Recursive Mono 18deg Heading-Bold.ufo
<glyph name="comma" format="2">
  <advance width="600"/>
  <unicode hex="002C"/>
  <guideline x="-40.0" y="0" angle="178.6305069678644" identifier="lVMOfOvhBT"/>
  <guideline x="10.0" y="0" angle="178.6305069678644" identifier="jaZJtDo7Z7"/>
  <guideline x="60.0" y="0" angle="178.6305069678644" identifier="IwpyqaAzMn"/>
  <guideline x="110.0" y="0" angle="178.6305069678644" identifier="JeCjrDg7yC"/>
  <guideline x="160.0" y="0" angle="178.6305069678644" identifier="leNFGB688I"/>
  <guideline x="210.0" y="0" angle="178.6305069678644" identifier="de8h0tWpX6"/>
  <guideline x="260.0" y="0" angle="178.6305069678644" identifier="2QM18SQrKv"/>
  <guideline x="310.0" y="0" angle="178.6305069678644" identifier="93wxzZ07kZ"/>
  <guideline x="360.0" y="0" angle="178.6305069678644" identifier="oC8bWVhKq6"/>
  <guideline x="410.0" y="0" angle="178.6305069678644" identifier="qXeWGFHPgj"/>
  <guideline x="460.0" y="0" angle="178.6305069678644" identifier="y3Acqq1lig"/>
  <guideline x="510.0" y="0" angle="178.6305069678644" identifier="cwqC1LLtAL"/>
  <guideline x="560.0" y="0" angle="178.6305069678644" identifier="RFk8iBmsf2"/>
  <guideline x="-123.30934145344611" y="-250.0" angle="180.0" identifier="ngSNiLqtKb"/>
  <guideline x="-106.64747316275688" y="-200.0" angle="180.0" identifier="1eh51WlIRy"/>
  <guideline x="-89.98560487206767" y="-150.0" angle="180.0" identifier="i6y9RHvqJN"/>
  <guideline x="-73.32373658137844" y="-100.0" angle="180.0" identifier="jyHPdN5n0g"/>
  <guideline x="-56.66186829068922" y="-50.0" angle="180.0" identifier="zMIina8zkg"/>
  <guideline x="-40.0" y="0" angle="180.0" identifier="fib7hvTO7s"/>
  <guideline x="-23.33813170931078" y="50.0" angle="180.0" identifier="JfBdPGrVUY"/>
  <guideline x="-6.676263418621559" y="100.0" angle="180.0" identifier="ZO7hXKrOSP"/>
  <guideline x="9.985604872067668" y="150.0" angle="180.0" identifier="pGCPyD7vdv"/>
  <guideline x="26.64747316275688" y="200.0" angle="180.0" identifier="KpIRpesi34"/>
  <guideline x="43.30934145344611" y="250.0" angle="180.0" identifier="Y9iFhAEzWd"/>
  <guideline x="59.97120974413534" y="300.0" angle="180.0" identifier="lAi2qqqA32"/>
  <guideline x="76.63307803482455" y="350.0" angle="180.0" identifier="ybLfK6ZThu"/>
  <guideline x="93.29494632551376" y="400.0" angle="180.0" identifier="7zVAh2AnGp"/>
  <guideline x="109.95681461620299" y="450.0" angle="180.0" identifier="DXa004pwmF"/>
  <guideline x="126.61868290689222" y="500.0" angle="180.0" identifier="DC6EH0rSgg"/>
  <guideline x="143.28055119758145" y="550.0" angle="180.0" identifier="aQrD4AHMvh"/>
  <guideline x="159.94241948827067" y="600.0" angle="180.0" identifier="bHm3K5LJKO"/>
  <guideline x="176.60428777895987" y="650.0" angle="180.0" identifier="9Zfy8hYT0C"/>
  <guideline x="193.2661560696491" y="700.0" angle="180.0" identifier="oxdDipMbAw"/>
  <outline>
    <contour>
      <point x="119.01122819978721" y="-117.0" type="curve" smooth="yes"/>
      <point x="133.01324351769773" y="-138.0"/>
      <point x="165.01439512793235" y="-150.0"/>
      <point x="210.01439512793235" y="-150.0" type="curve"/>
      <point x="235.01439512793235" y="-150.0" type="line"/>
      <point x="262.33985912466267" y="-68.0"/>
      <point x="364.3320857555792" y="13.0"/>
      <point x="391.65754975230954" y="95.0" type="curve"/>
      <point x="394.3234486788198" y="103.0"/>
      <point x="393.32316077626115" y="106.0"/>
      <point x="389.32258497114384" y="112.0" type="curve" smooth="yes"/>
      <point x="371.98675648230227" y="138.0"/>
      <point x="312.98560487206765" y="150.0"/>
      <point x="264.98560487206765" y="150.0" type="curve"/>
      <point x="239.98560487206765" y="150.0" type="line"/>
      <point x="212.66014087533733" y="68.0"/>
      <point x="144.00172741535187" y="-18.0"/>
      <point x="116.67626341862155" y="-100.0" type="curve" smooth="yes"/>
      <point x="114.01036449211128" y="-108.0"/>
      <point x="115.01065239466993" y="-111.0"/>
    </contour>
  </outline>
</glyph>
<glyph name="hyphen" format="2">
  <advance width="600"/>
  <unicode hex="002D"/>
  <guideline x="-40.0" y="0" angle="178.6305069678644" identifier="FVT24qrYLe"/>
  <guideline x="10.0" y="0" angle="178.6305069678644" identifier="oUiiTsjLaU"/>
  <guideline x="60.0" y="0" angle="178.6305069678644" identifier="oJGaU0kOBv"/>
  <guideline x="110.0" y="0" angle="178.6305069678644" identifier="DZ6MR67eLJ"/>
  <guideline x="160.0" y="0" angle="178.6305069678644" identifier="Cw027fk1if"/>
  <guideline x="210.0" y="0" angle="178.6305069678644" identifier="g5SxBd3qHW"/>
  <guideline x="260.0" y="0" angle="178.6305069678644" identifier="7rjIhWMuRs"/>
  <guideline x="310.0" y="0" angle="178.6305069678644" identifier="hwZHmfYYDh"/>
  <guideline x="360.0" y="0" angle="178.6305069678644" identifier="ZDfyQCityt"/>
  <guideline x="410.0" y="0" angle="178.6305069678644" identifier="ahYlwh56Nl"/>
  <guideline x="460.0" y="0" angle="178.6305069678644" identifier="9oWdstaZRK"/>
  <guideline x="510.0" y="0" angle="178.6305069678644" identifier="H0Ym9p3AZK"/>
  <guideline x="560.0" y="0" angle="178.6305069678644" identifier="8XA3bP8sbm"/>
  <guideline x="-123.30934145344611" y="-250.0" angle="180.0" identifier="azDukfyDfW"/>
  <guideline x="-106.64747316275688" y="-200.0" angle="180.0" identifier="nrkLV5EDhh"/>
  <guideline x="-89.98560487206767" y="-150.0" angle="180.0" identifier="5sRZTmpTD4"/>
  <guideline x="-73.32373658137844" y="-100.0" angle="180.0" identifier="Ubtc0X9a16"/>
  <guideline x="-56.66186829068922" y="-50.0" angle="180.0" identifier="cL9wOOApOX"/>
  <guideline x="-40.0" y="0" angle="180.0" identifier="gM7rF7iNyb"/>
  <guideline x="-23.33813170931078" y="50.0" angle="180.0" identifier="S30Xe0W63N"/>
  <guideline x="-6.676263418621559" y="100.0" angle="180.0" identifier="GkJXOszJ2H"/>
  <guideline x="9.985604872067668" y="150.0" angle="180.0" identifier="iIewJGKq3u"/>
  <guideline x="26.64747316275688" y="200.0" angle="180.0" identifier="NxMiHYUjdv"/>
  <guideline x="43.30934145344611" y="250.0" angle="180.0" identifier="5TA10AURR1"/>
  <guideline x="59.97120974413534" y="300.0" angle="180.0" identifier="kdKk4QKmP3"/>
  <guideline x="76.63307803482455" y="350.0" angle="180.0" identifier="ZJVABXWSUb"/>
  <guideline x="93.29494632551376" y="400.0" angle="180.0" identifier="Hd2QQNaaXy"/>
  <guideline x="109.95681461620299" y="450.0" angle="180.0" identifier="yDsGMUbMNZ"/>
  <guideline x="126.61868290689222" y="500.0" angle="180.0" identifier="789cxosvsD"/>
  <guideline x="143.28055119758145" y="550.0" angle="180.0" identifier="iVsimp7xEZ"/>
  <guideline x="159.94241948827067" y="600.0" angle="180.0" identifier="2o3GcFHvoN"/>
  <guideline x="176.60428777895987" y="650.0" angle="180.0" identifier="DOzpvDnw4M"/>
  <guideline x="193.2661560696491" y="700.0" angle="180.0" identifier="syIvuYmAl2"/>
  <outline>
    <contour>
      <point x="183.29782535110024" y="370.0" type="curve"/>
      <point x="161.63739657320426" y="305.0" type="line"/>
      <point x="152.30675033041828" y="277.0"/>
      <point x="151.97639199019096" y="246.0"/>
      <point x="163.97811940554286" y="228.0" type="curve" smooth="yes"/>
      <point x="167.97869521066013" y="222.0"/>
      <point x="170.3122204790326" y="220.0"/>
      <point x="178.3122204790326" y="220.0" type="curve" smooth="yes"/>
      <point x="242.3122204790326" y="220.0"/>
      <point x="319.3122204790326" y="220.0"/>
      <point x="383.3122204790326" y="220.0" type="curve" smooth="yes"/>
      <point x="425.3122204790326" y="220.0"/>
      <point x="492.3122204790326" y="220.0"/>
      <point x="533.3122204790326" y="220.0" type="curve"/>
      <point x="541.6431546243772" y="245.0" type="line"/>
      <point x="557.6385481834388" y="293.0"/>
      <point x="559.9677549134316" y="336.0"/>
      <point x="542.63192642459" y="362.0" type="curve" smooth="yes"/>
      <point x="538.6313506194726" y="368.0"/>
      <point x="536.2978253511003" y="370.0"/>
      <point x="528.2978253511003" y="370.0" type="curve" smooth="yes"/>
      <point x="426.29782535110024" y="370.0"/>
      <point x="285.29782535110024" y="370.0"/>
    </contour>
  </outline>
</glyph>
<glyph name="period" format="2">
  <advance width="600"/>
  <unicode hex="002E"/>
  <guideline x="-40.0" y="0" angle="178.6305069678644" identifier="1dxSiBdZBj"/>
  <guideline x="10.0" y="0" angle="178.6305069678644" identifier="GG5qBG2Ezw"/>
  <guideline x="60.0" y="0" angle="178.6305069678644" identifier="2N0TyoMGIC"/>
  <guideline x="110.0" y="0" angle="178.6305069678644" identifier="bVFaBmgN31"/>
  <guideline x="160.0" y="0" angle="178.6305069678644" identifier="gqkSmefDcT"/>
  <guideline x="210.0" y="0" angle="178.6305069678644" identifier="nY2Yu9eJRO"/>
  <guideline x="260.0" y="0" angle="178.6305069678644" identifier="0M5dGu1kCj"/>
  <guideline x="310.0" y="0" angle="178.6305069678644" identifier="tA95GXI1Zh"/>
  <guideline x="360.0" y="0" angle="178.6305069678644" identifier="mbQpp9CGIP"/>
  <guideline x="410.0" y="0" angle="178.6305069678644" identifier="7Y128CDOqY"/>
  <guideline x="460.0" y="0" angle="178.6305069678644" identifier="D9CiSUfPr2"/>
  <guideline x="510.0" y="0" angle="178.6305069678644" identifier="rVXyWQE1Iv"/>
  <guideline x="560.0" y="0" angle="178.6305069678644" identifier="S0qVC9zapq"/>
  <guideline x="-123.30934145344611" y="-250.0" angle="180.0" identifier="LX9kSm10LW"/>
  <guideline x="-106.64747316275688" y="-200.0" angle="180.0" identifier="2R8CJhFsYL"/>
  <guideline x="-89.98560487206767" y="-150.0" angle="180.0" identifier="O6jdVLC8kb"/>
  <guideline x="-73.32373658137844" y="-100.0" angle="180.0" identifier="yNw9T0c89u"/>
  <guideline x="-56.66186829068922" y="-50.0" angle="180.0" identifier="jlFgAP75RH"/>
  <guideline x="-40.0" y="0" angle="180.0" identifier="hEW3vJFkyS"/>
  <guideline x="-23.33813170931078" y="50.0" angle="180.0" identifier="K6djVnODYg"/>
  <guideline x="-6.676263418621559" y="100.0" angle="180.0" identifier="6jajWt4sko"/>
  <guideline x="9.985604872067668" y="150.0" angle="180.0" identifier="O2vpZ1E1xh"/>
  <guideline x="26.64747316275688" y="200.0" angle="180.0" identifier="05CXFVuxsR"/>
  <guideline x="43.30934145344611" y="250.0" angle="180.0" identifier="bY5y3CULvi"/>
  <guideline x="59.97120974413534" y="300.0" angle="180.0" identifier="tFdmuNDtGh"/>
  <guideline x="76.63307803482455" y="350.0" angle="180.0" identifier="g0AHXCrxFS"/>
  <guideline x="93.29494632551376" y="400.0" angle="180.0" identifier="ZPj74aedpH"/>
  <guideline x="109.95681461620299" y="450.0" angle="180.0" identifier="kPTmC3OQzN"/>
  <guideline x="126.61868290689222" y="500.0" angle="180.0" identifier="X3MEuHtgOd"/>
  <guideline x="143.28055119758145" y="550.0" angle="180.0" identifier="HDyfWp8BUJ"/>
  <guideline x="159.94241948827067" y="600.0" angle="180.0" identifier="VrmuWE8n4b"/>
  <guideline x="176.60428777895987" y="650.0" angle="180.0" identifier="OSwecWizIZ"/>
  <guideline x="193.2661560696491" y="700.0" angle="180.0" identifier="3kDnJprAik"/>
  <outline>
    <contour>
      <point x="356.66762634186216" y="-10.0" type="line"/>
      <point x="370.6635957060411" y="32.0"/>
      <point x="391.32431238649576" y="94.0"/>
      <point x="405.32028175067467" y="136.0" type="curve" smooth="yes"/>
      <point x="418.89477761236185" y="176.73521535779"/>
      <point x="363.50975442146375" y="190.0"/>
      <point x="308.31509950461907" y="190.0" type="curve"/>
      <point x="223.31509950461907" y="190.0" type="line"/>
      <point x="209.3191301404401" y="148.0"/>
      <point x="188.99165082579924" y="87.0"/>
      <point x="174.6624440958065" y="44.0" type="curve" smooth="yes"/>
      <point x="158.95268256458525" y="-3.142857142857146"/>
      <point x="217.09070326493907" y="-10.0"/>
      <point x="271.66762634186216" y="-10.0" type="curve"/>
    </contour>
  </outline>
</glyph>
<glyph name="zero" format="2">
  <advance width="600"/>
  <unicode hex="0030"/>
  <outline>
    <contour>
      <point x="489.9309033859248" y="720.0" type="curve"/>
      <point x="347.9309033859248" y="720.0"/>
      <point x="200.27853587967093" y="571.0"/>
      <point x="126.63307803482456" y="350.0" type="curve" smooth="yes"/>
      <point x="113.30358340227318" y="310.0" type="line" smooth="yes"/>
      <point x="45.32316077626115" y="106.0"/>
      <point x="115.33525268372432" y="-20.0"/>
      <point x="238.33525268372432" y="-20.0" type="curve" smooth="yes"/>
      <point x="263.3352526837243" y="-20.0" type="line"/>
      <point x="302.3352526837243" y="-20.0"/>
      <point x="340.99827258464813" y="18.0"/>
      <point x="359.65956507022" y="74.0" type="curve"/>
      <point x="240.65956507022003" y="74.0"/>
      <point x="203.65409492160575" y="131.0"/>
      <point x="251.6402755987907" y="275.0" type="curve" smooth="yes"/>
      <point x="266.635957060411" y="320.0" type="line" smooth="yes"/>
      <point x="314.28890037178223" y="463.0"/>
      <point x="392.2785358796709" y="571.0"/>
      <point x="474.2785358796709" y="571.0" type="curve" smooth="yes"/>
      <point x="528.2785358796709" y="571.0"/>
      <point x="538.9455864164158" y="567.0"/>
      <point x="560.9470259292091" y="552.0" type="curve"/>
      <point x="580.9455864164158" y="567.0"/>
      <point x="584.6117732454848" y="572.0"/>
      <point x="593.9424194882706" y="600.0" type="curve"/>
      <point x="615.6028482661667" y="665.0"/>
      <point x="553.9309033859248" y="720.0"/>
    </contour>
    <contour>
      <point x="263.3352526837243" y="-20.0" type="curve"/>
      <point x="405.3352526837243" y="-20.0"/>
      <point x="546.3228728737025" y="109.0"/>
      <point x="609.9712097441353" y="300.0" type="curve" smooth="yes"/>
      <point x="623.3007043766867" y="340.0" type="line" smooth="yes"/>
      <point x="701.611485342926" y="575.0"/>
      <point x="637.9309033859248" y="720.0"/>
      <point x="514.9309033859248" y="720.0" type="curve" smooth="yes"/>
      <point x="489.9309033859248" y="720.0" type="line"/>
      <point x="450.9309033859248" y="720.0"/>
      <point x="412.267883485001" y="682.0"/>
      <point x="393.60659099942905" y="626.0" type="curve"/>
      <point x="512.606590999429" y="626.0"/>
      <point x="544.9467380266503" y="555.0"/>
      <point x="484.9640121801692" y="375.0" type="curve" smooth="yes"/>
      <point x="469.9683307185489" y="330.0" type="line" smooth="yes"/>
      <point x="431.97927101577744" y="216.0"/>
      <point x="360.9876201899782" y="129.0"/>
      <point x="278.9876201899782" y="129.0" type="curve" smooth="yes"/>
      <point x="224.9876201899782" y="129.0"/>
      <point x="214.32056965323332" y="133.0"/>
      <point x="192.3191301404401" y="148.0" type="curve"/>
      <point x="172.32056965323332" y="133.0"/>
      <point x="168.6543828241644" y="128.0"/>
      <point x="159.32373658137845" y="100.0" type="curve"/>
      <point x="137.66330780348247" y="35.0"/>
      <point x="198.33525268372432" y="-20.0"/>
    </contour>
    <contour>
      <point x="185.3142357969431" y="199.0" type="curve"/>
      <point x="311.64171511158395" y="260.0"/>
      <point x="418.6350933527351" y="329.0"/>
      <point x="530.9599815443481" y="417.0" type="curve" smooth="yes"/>
      <point x="567.6238651529479" y="446.0"/>
      <point x="589.2880366641062" y="472.0"/>
      <point x="566.2834302231679" y="520.0" type="curve"/>
      <point x="427.2937947152792" y="412.0"/>
      <point x="321.2998406690108" y="349.0"/>
      <point x="192.63941189111478" y="284.0" type="curve" smooth="yes"/>
      <point x="162.64085140390802" y="269.0"/>
      <point x="171.9778315029842" y="231.0"/>
    </contour>
  </outline>
</glyph>
<glyph name="three" format="2">
  <advance width="600"/>
  <unicode hex="0033"/>
  <guideline x="-40.0" y="0" angle="178.6305069678644" identifier="gHHLA83LMo"/>
  <guideline x="10.0" y="0" angle="178.6305069678644" identifier="oLUMTWMXUC"/>
  <guideline x="60.0" y="0" angle="178.6305069678644" identifier="kjzmD92jB6"/>
  <guideline x="110.0" y="0" angle="178.6305069678644" identifier="NVAE72hbK5"/>
  <guideline x="160.0" y="0" angle="178.6305069678644" identifier="USsgxWqQkh"/>
  <guideline x="210.0" y="0" angle="178.6305069678644" identifier="RsEjFHnSac"/>
  <guideline x="260.0" y="0" angle="178.6305069678644" identifier="RMPhdqSig8"/>
  <guideline x="310.0" y="0" angle="178.6305069678644" identifier="bJKx00lzzw"/>
  <guideline x="360.0" y="0" angle="178.6305069678644" identifier="KXrZtB8ycH"/>
  <guideline x="410.0" y="0" angle="178.6305069678644" identifier="Kxxvhpjq7b"/>
  <guideline x="460.0" y="0" angle="178.6305069678644" identifier="KRs7LNe9Ct"/>
  <guideline x="510.0" y="0" angle="178.6305069678644" identifier="a8cuNBKqdn"/>
  <guideline x="560.0" y="0" angle="178.6305069678644" identifier="YTGD44gCGx"/>
  <guideline x="-123.30934145344611" y="-250.0" angle="180.0" identifier="R0h0HvB4QQ"/>
  <guideline x="-106.64747316275688" y="-200.0" angle="180.0" identifier="nEXiMuHRol"/>
  <guideline x="-89.98560487206767" y="-150.0" angle="180.0" identifier="aRNUTVGAtl"/>
  <guideline x="-73.32373658137844" y="-100.0" angle="180.0" identifier="t09ypCTYGZ"/>
  <guideline x="-56.66186829068922" y="-50.0" angle="180.0" identifier="UyvhN4YHns"/>
  <guideline x="-40.0" y="0" angle="180.0" identifier="TCixurdInY"/>
  <guideline x="-23.33813170931078" y="50.0" angle="180.0" identifier="PukiZ8pROI"/>
  <guideline x="-6.676263418621559" y="100.0" angle="180.0" identifier="yNE7xLLjhB"/>
  <guideline x="9.985604872067668" y="150.0" angle="180.0" identifier="xmjhw26WJA"/>
  <guideline x="26.64747316275688" y="200.0" angle="180.0" identifier="EJ2fo5IQFU"/>
  <guideline x="43.30934145344611" y="250.0" angle="180.0" identifier="OVySUgrOwK"/>
  <guideline x="59.97120974413534" y="300.0" angle="180.0" identifier="sEJtBnsDch"/>
  <guideline x="76.63307803482455" y="350.0" angle="180.0" identifier="WhHaaBrdbT"/>
  <guideline x="93.29494632551376" y="400.0" angle="180.0" identifier="aALb9lkebp"/>
  <guideline x="109.95681461620299" y="450.0" angle="180.0" identifier="kWlV15sOet"/>
  <guideline x="126.61868290689222" y="500.0" angle="180.0" identifier="WodmgssIU0"/>
  <guideline x="143.28055119758145" y="550.0" angle="180.0" identifier="RZrCjBoz3j"/>
  <guideline x="159.94241948827067" y="600.0" angle="180.0" identifier="oXrjgksSeI"/>
  <guideline x="176.60428777895987" y="650.0" angle="180.0" identifier="dv7A9HzzgD"/>
  <guideline x="193.2661560696491" y="700.0" angle="180.0" identifier="mGHLVY0tYA"/>
  <outline>
    <contour>
      <point x="263.2661560696491" y="700.0" type="curve"/>
      <point x="254.93522192430453" y="675.0" type="line"/>
      <point x="238.93982836524287" y="627.0"/>
      <point x="236.61062163525014" y="584.0"/>
      <point x="253.9464501240917" y="558.0" type="curve" smooth="yes"/>
      <point x="257.947025929209" y="552.0"/>
      <point x="260.2805511975814" y="550.0"/>
      <point x="268.2805511975814" y="550.0" type="curve" smooth="yes"/>
      <point x="356.2805511975814" y="550.0"/>
      <point x="445.2805511975814" y="550.0"/>
      <point x="533.2805511975814" y="550.0" type="curve" smooth="yes"/>
      <point x="583.2805511975814" y="550.0"/>
      <point x="646.6129248557193" y="560.0"/>
      <point x="689.9452985138571" y="570.0" type="curve"/>
      <point x="695.9435710985052" y="588.0" type="line" smooth="yes"/>
      <point x="713.271914120822" y="640.0"/>
      <point x="707.2690350952356" y="670.0"/>
      <point x="692.6002571431388" y="692.0" type="curve" smooth="yes"/>
      <point x="688.5996813380216" y="698.0"/>
      <point x="686.2661560696491" y="700.0"/>
      <point x="678.2661560696491" y="700.0" type="curve"/>
      <point x="543.2661560696491" y="700.0"/>
      <point x="404.2661560696491" y="700.0"/>
    </contour>
    <contour>
      <point x="698.2762326592017" y="595.0"/>
      <point x="649.9398283652429" y="627.0"/>
      <point x="585.9398283652429" y="627.0" type="curve"/>
      <point x="505.2822786129333" y="532.0"/>
      <point x="385.2900519820168" y="451.0"/>
      <point x="259.9625726673759" y="390.0" type="curve"/>
      <point x="245.30012857156942" y="346.0"/>
      <point x="266.6350933527351" y="329.0"/>
      <point x="289.6350933527351" y="329.0" type="curve" smooth="yes"/>
      <point x="326.6350933527351" y="329.0"/>
      <point x="343.9680428159902" y="333.0"/>
      <point x="381.6333659373832" y="347.0" type="curve" smooth="yes"/>
      <point x="504.96228476481724" y="393.0"/>
      <point x="678.2819907103747" y="535.0"/>
      <point x="689.9452985138571" y="570.0" type="curve" smooth="yes"/>
    </contour>
    <contour>
      <point x="251.63163852203132" y="365.0" type="line"/>
      <point x="238.3021438894799" y="325.0"/>
      <point x="234.3055987201837" y="289.0"/>
      <point x="248.30761403809424" y="268.0" type="curve" smooth="yes"/>
      <point x="252.3081898432115" y="262.0"/>
      <point x="254.64171511158395" y="260.0"/>
      <point x="262.64171511158395" y="260.0" type="curve"/>
      <point x="403.64171511158395" y="260.0"/>
      <point x="493.64574574740504" y="218.0"/>
      <point x="456.32316077626115" y="106.0" type="curve" smooth="yes"/>
      <point x="452.9907871181233" y="96.0" type="line"/>
      <point x="492.9907871181233" y="96.0"/>
      <point x="555.6535191164885" y="137.0"/>
      <point x="567.9833016515985" y="174.0" type="curve" smooth="yes"/>
      <point x="599.9740887697218" y="270.0"/>
      <point x="504.962572667376" y="390.0"/>
      <point x="259.9625726673759" y="390.0" type="curve"/>
    </contour>
    <contour>
      <point x="253.33525268372432" y="-20.0" type="curve" smooth="yes"/>
      <point x="409.3352526837243" y="-20.0"/>
      <point x="529.994241948827" y="60.0"/>
      <point x="562.9847411643917" y="159.0" type="curve" smooth="yes"/>
      <point x="567.9833016515985" y="174.0" type="line" smooth="yes"/>
      <point x="577.6471852601983" y="203.0"/>
      <point x="548.3067503304183" y="277.0"/>
      <point x="510.9732250620459" y="279.0" type="curve"/>
      <point x="509.9740887697218" y="270.0"/>
      <point x="507.9749524773978" y="261.0"/>
      <point x="504.3093414534461" y="250.0" type="curve" smooth="yes"/>
      <point x="481.6492005781088" y="182.0"/>
      <point x="394.320857555792" y="130.0"/>
      <point x="282.320857555792" y="130.0" type="curve" smooth="yes"/>
      <point x="192.32085755579197" y="130.0"/>
      <point x="133.98502906695037" y="156.0"/>
      <point x="86.645745747405" y="218.0" type="curve"/>
      <point x="82.645745747405" y="218.0" type="line"/>
      <point x="78.64689735763959" y="206.0"/>
      <point x="71.64891267555012" y="185.0"/>
      <point x="63.98445326183308" y="162.0" type="curve" smooth="yes"/>
      <point x="42.990499215564654" y="99.0"/>
      <point x="44.99452985138572" y="57.0"/>
      <point x="58.99654516929624" y="36.0" type="curve" smooth="yes"/>
      <point x="80.33294946325513" y="4.0"/>
      <point x="158.33525268372432" y="-20.0"/>
    </contour>
  </outline>
</glyph>
<glyph name="five" format="2">
  <advance width="600"/>
  <unicode hex="0035"/>
  <guideline x="-40.0" y="0" angle="178.6305069678644" identifier="Y4YAnw5Iev"/>
  <guideline x="10.0" y="0" angle="178.6305069678644" identifier="iyzyCXxE8V"/>
  <guideline x="60.0" y="0" angle="178.6305069678644" identifier="8GsSrhZAYG"/>
  <guideline x="110.0" y="0" angle="178.6305069678644" identifier="S7dPMdK8r6"/>
  <guideline x="160.0" y="0" angle="178.6305069678644" identifier="zXlhXa0bzU"/>
  <guideline x="210.0" y="0" angle="178.6305069678644" identifier="xLyJ2kk3nX"/>
  <guideline x="260.0" y="0" angle="178.6305069678644" identifier="LXBuq9gxf6"/>
  <guideline x="310.0" y="0" angle="178.6305069678644" identifier="z2Uw7KCjw1"/>
  <guideline x="360.0" y="0" angle="178.6305069678644" identifier="QdCsmQSwcm"/>
  <guideline x="410.0" y="0" angle="178.6305069678644" identifier="J7DAUzDQFn"/>
  <guideline x="460.0" y="0" angle="178.6305069678644" identifier="Y2ux71oi3s"/>
  <guideline x="510.0" y="0" angle="178.6305069678644" identifier="2jF5FUS3Pe"/>
  <guideline x="560.0" y="0" angle="178.6305069678644" identifier="g6XH20SAtK"/>
  <guideline x="-123.30934145344611" y="-250.0" angle="180.0" identifier="CXaobe8NTi"/>
  <guideline x="-106.64747316275688" y="-200.0" angle="180.0" identifier="RuXdljHnG6"/>
  <guideline x="-89.98560487206767" y="-150.0" angle="180.0" identifier="HXKifW8fiv"/>
  <guideline x="-73.32373658137844" y="-100.0" angle="180.0" identifier="wZZDSMCBQX"/>
  <guideline x="-56.66186829068922" y="-50.0" angle="180.0" identifier="2JTczRQKNn"/>
  <guideline x="-40.0" y="0" angle="180.0" identifier="cs8cdRo98q"/>
  <guideline x="-23.33813170931078" y="50.0" angle="180.0" identifier="0x5DXqvXQB"/>
  <guideline x="-6.676263418621559" y="100.0" angle="180.0" identifier="eujHwfQfhM"/>
  <guideline x="9.985604872067668" y="150.0" angle="180.0" identifier="E7Gh3YrwXb"/>
  <guideline x="26.64747316275688" y="200.0" angle="180.0" identifier="M5yz9oEJHR"/>
  <guideline x="43.30934145344611" y="250.0" angle="180.0" identifier="CYmSjbShef"/>
  <guideline x="59.97120974413534" y="300.0" angle="180.0" identifier="0X35vzMmaL"/>
  <guideline x="76.63307803482455" y="350.0" angle="180.0" identifier="J4P7EQGF51"/>
  <guideline x="93.29494632551376" y="400.0" angle="180.0" identifier="RyWZkWOoQR"/>
  <guideline x="109.95681461620299" y="450.0" angle="180.0" identifier="UJ6qSBxy2y"/>
  <guideline x="126.61868290689222" y="500.0" angle="180.0" identifier="C42FnPm3dU"/>
  <guideline x="143.28055119758145" y="550.0" angle="180.0" identifier="qfcHMk9QZj"/>
  <guideline x="159.94241948827067" y="600.0" angle="180.0" identifier="zLToriOkju"/>
  <guideline x="176.60428777895987" y="650.0" angle="180.0" identifier="hAMFWzmUGH"/>
  <guideline x="193.2661560696491" y="700.0" angle="180.0" identifier="m5B9KnOhXj"/>
  <outline>
    <contour>
      <point x="293.2661560696491" y="700.0" type="curve"/>
      <point x="284.9352219243045" y="675.0" type="line"/>
      <point x="268.9398283652429" y="627.0"/>
      <point x="266.61062163525014" y="584.0"/>
      <point x="283.9464501240917" y="558.0" type="curve" smooth="yes"/>
      <point x="287.947025929209" y="552.0"/>
      <point x="290.2805511975814" y="550.0"/>
      <point x="298.2805511975814" y="550.0" type="curve" smooth="yes"/>
      <point x="346.2805511975814" y="550.0"/>
      <point x="345.2805511975814" y="550.0"/>
      <point x="393.2805511975814" y="550.0" type="curve"/>
      <point x="493.2805511975814" y="550.0"/>
      <point x="573.2805511975814" y="550.0"/>
      <point x="673.2805511975814" y="550.0" type="curve"/>
      <point x="681.611485342926" y="575.0" type="line"/>
      <point x="697.6068789019877" y="623.0"/>
      <point x="699.9360856319804" y="666.0"/>
      <point x="682.6002571431388" y="692.0" type="curve" smooth="yes"/>
      <point x="678.5996813380216" y="698.0"/>
      <point x="676.2661560696491" y="700.0"/>
      <point x="668.2661560696491" y="700.0" type="curve"/>
      <point x="523.2661560696491" y="700.0"/>
      <point x="444.2661560696491" y="700.0"/>
    </contour>
    <contour>
      <point x="286.9712097441353" y="300.0" type="line"/>
      <point x="435.27623265920175" y="595.0" type="line" smooth="yes"/>
      <point x="450.2733536336153" y="625.0"/>
      <point x="407.27191412082203" y="640.0"/>
      <point x="338.27191412082203" y="640.0" type="curve"/>
      <point x="313.27191412082203" y="640.0" type="line"/>
      <point x="166.63307803482456" y="350.0" type="line" smooth="yes"/>
      <point x="162.96717910831427" y="342.0"/>
      <point x="163.6345175476178" y="335.0"/>
      <point x="167.63509335273508" y="329.0" type="curve" smooth="yes"/>
      <point x="178.97005813390075" y="312.0"/>
      <point x="210.97120974413534" y="300.0"/>
      <point x="274.9712097441353" y="300.0" type="curve"/>
    </contour>
    <contour>
      <point x="235.30099227924535" y="337.0"/>
      <point x="250.9712097441353" y="300.0"/>
      <point x="286.9712097441353" y="300.0" type="curve"/>
      <point x="444.9712097441353" y="300.0"/>
      <point x="501.3102051611221" y="241.0"/>
      <point x="460.98848389765413" y="120.0" type="curve" smooth="yes"/>
      <point x="452.9907871181233" y="96.0" type="line"/>
      <point x="492.9907871181233" y="96.0"/>
      <point x="561.3185543353228" y="154.0"/>
      <point x="573.6483368704328" y="191.0" type="curve" smooth="yes"/>
      <point x="610.3044471099491" y="301.0"/>
      <point x="559.9596936417895" y="420.0"/>
      <point x="280.9596936417895" y="420.0" type="curve"/>
    </contour>
    <contour>
      <point x="253.33525268372432" y="-20.0" type="curve" smooth="yes"/>
      <point x="409.3352526837243" y="-20.0"/>
      <point x="535.6592771676615" y="77.0"/>
      <point x="568.649776383226" y="176.0" type="curve" smooth="yes"/>
      <point x="573.6483368704328" y="191.0" type="line" smooth="yes"/>
      <point x="583.3122204790326" y="220.0"/>
      <point x="548.3067503304183" y="277.0"/>
      <point x="510.9732250620459" y="279.0" type="curve"/>
      <point x="509.9740887697218" y="270.0"/>
      <point x="507.9749524773978" y="261.0"/>
      <point x="504.3093414534461" y="250.0" type="curve" smooth="yes"/>
      <point x="481.6492005781088" y="182.0"/>
      <point x="394.320857555792" y="130.0"/>
      <point x="282.320857555792" y="130.0" type="curve" smooth="yes"/>
      <point x="192.32085755579197" y="130.0"/>
      <point x="132.65207960369523" y="152.0"/>
      <point x="78.64804896787417" y="194.0" type="curve"/>
      <point x="74.64804896787417" y="194.0" type="line"/>
      <point x="63.98445326183308" y="162.0" type="line"/>
      <point x="42.990499215564654" y="99.0"/>
      <point x="44.99452985138572" y="57.0"/>
      <point x="58.99654516929624" y="36.0" type="curve" smooth="yes"/>
      <point x="80.33294946325513" y="4.0"/>
      <point x="158.33525268372432" y="-20.0"/>
    </contour>
  </outline>
</glyph>
<glyph name="six" format="2">
  <advance width="600"/>
  <unicode hex="0036"/>
  <outline>
    <contour>
      <point x="100.99596936417896" y="42.0" type="curve" smooth="yes"/>
      <point x="132.33381317093108" y="-5.0"/>
      <point x="195.17210261507847" y="2.3147922556236296"/>
      <point x="275.99539355906165" y="48.0" type="curve"/>
      <point x="231.324888191613" y="88.0"/>
      <point x="200.65380701904712" y="134.0"/>
      <point x="228.97898311321876" y="219.0" type="curve" smooth="yes"/>
      <point x="261.3030075971559" y="316.0"/>
      <point x="308.2960979357483" y="388.0"/>
      <point x="409.62213773759595" y="464.0" type="curve" smooth="yes"/>
      <point x="486.94990495479544" y="522.0"/>
      <point x="581.6117732454848" y="572.0"/>
      <point x="679.9424194882706" y="600.0" type="curve"/>
      <point x="681.2753689515258" y="604.0" type="line" smooth="yes"/>
      <point x="697.6039998764013" y="653.0"/>
      <point x="662.9309033859248" y="720.0"/>
      <point x="610.9309033859248" y="720.0" type="curve" smooth="yes"/>
      <point x="570.1252161821333" y="720.0"/>
      <point x="464.6028482661667" y="665.0"/>
      <point x="355.2773842694363" y="583.0" type="curve" smooth="yes"/>
      <point x="229.95307188294055" y="489.0"/>
      <point x="131.63163852203132" y="365.0"/>
      <point x="83.64545784484636" y="221.0" type="curve" smooth="yes"/>
      <point x="57.31970594555739" y="142.0"/>
      <point x="69.65812555742681" y="89.0"/>
    </contour>
    <contour>
      <point x="263.3352526837243" y="-20.0" type="curve"/>
      <point x="405.3352526837243" y="-20.0"/>
      <point x="534.3263277044063" y="73.0"/>
      <point x="579.9798468208947" y="210.0" type="curve" smooth="yes"/>
      <point x="581.6460336499637" y="215.0" type="line" smooth="yes"/>
      <point x="599.3076140380942" y="268.0"/>
      <point x="596.9706339390181" y="306.0"/>
      <point x="579.6348054501764" y="332.0" type="curve" smooth="yes"/>
      <point x="556.9648758878451" y="366.0"/>
      <point x="490.29840115621755" y="364.0"/>
      <point x="451.3001285715694" y="346.0" type="curve"/>
      <point x="459.3027196945972" y="319.0"/>
      <point x="452.30675033041825" y="277.0"/>
      <point x="437.6443062346118" y="233.0" type="curve" smooth="yes"/>
      <point x="436.64459413717043" y="230.0" type="line" smooth="yes"/>
      <point x="417.31682691997094" y="172.0"/>
      <point x="360.9876201899782" y="129.0"/>
      <point x="278.9876201899782" y="129.0" type="curve" smooth="yes"/>
      <point x="210.9876201899782" y="129.0"/>
      <point x="165.6532312139298" y="140.0"/>
      <point x="134.98358955415713" y="171.0" type="curve"/>
      <point x="104.31913014044011" y="148.0"/>
      <point x="78.32603980184761" y="76.0"/>
      <point x="100.99596936417896" y="42.0" type="curve" smooth="yes"/>
      <point x="135.00086370767593" y="-9.0"/>
      <point x="205.016571365043" y="-20.0"/>
    </contour>
    <contour>
      <point x="579.6348054501764" y="332.0" type="curve" smooth="yes"/>
      <point x="547.6301990092381" y="380.0"/>
      <point x="512.2949463255138" y="400.0"/>
      <point x="458.29494632551376" y="400.0" type="curve" smooth="yes"/>
      <point x="410.29494632551376" y="400.0"/>
      <point x="284.6316385220313" y="365.0"/>
      <point x="256.63365383994187" y="344.0" type="curve" smooth="yes"/>
      <point x="239.30156808436266" y="331.0"/>
      <point x="231.96919442622482" y="321.0"/>
      <point x="224.9712097441353" y="300.0" type="curve"/>
      <point x="280.9712097441353" y="300.0"/>
      <point x="342.9712097441353" y="300.0"/>
      <point x="379.9712097441353" y="300.0" type="curve" smooth="yes"/>
      <point x="457.9712097441353" y="300.0"/>
      <point x="488.9732250620459" y="279.0"/>
      <point x="509.9795589183361" y="213.0" type="curve"/>
      <point x="565.3096293560047" y="247.0"/>
      <point x="598.3041592073905" y="304.0"/>
    </contour>
  </outline>
</glyph>
<glyph name="C" format="2">
  <advance width="600"/>
  <unicode hex="0043"/>
  <guideline x="-40.0" y="0" angle="178.6305069678644" identifier="8h91z27wez"/>
  <guideline x="10.0" y="0" angle="178.6305069678644" identifier="ZYLDLC5up6"/>
  <guideline x="60.0" y="0" angle="178.6305069678644" identifier="9jmk6w40hm"/>
  <guideline x="110.0" y="0" angle="178.6305069678644" identifier="CzGyyA3n6P"/>
  <guideline x="160.0" y="0" angle="178.6305069678644" identifier="levMyWp6Lb"/>
  <guideline x="210.0" y="0" angle="178.6305069678644" identifier="z1TII09j3Z"/>
  <guideline x="260.0" y="0" angle="178.6305069678644" identifier="4nGANUc0cc"/>
  <guideline x="310.0" y="0" angle="178.6305069678644" identifier="nKjz8zQGba"/>
  <guideline x="360.0" y="0" angle="178.6305069678644" identifier="JJS7EmQHkb"/>
  <guideline x="410.0" y="0" angle="178.6305069678644" identifier="jHNXrXjzue"/>
  <guideline x="460.0" y="0" angle="178.6305069678644" identifier="Cf4lPVVdhE"/>
  <guideline x="510.0" y="0" angle="178.6305069678644" identifier="FyLLohIMEO"/>
  <guideline x="560.0" y="0" angle="178.6305069678644" identifier="8GlFqmzOxo"/>
  <guideline x="-123.30934145344611" y="-250.0" angle="180.0" identifier="f1q0fO0wcU"/>
  <guideline x="-106.64747316275688" y="-200.0" angle="180.0" identifier="ryGYdVddiD"/>
  <guideline x="-89.98560487206767" y="-150.0" angle="180.0" identifier="GHvV9zTFan"/>
  <guideline x="-73.32373658137844" y="-100.0" angle="180.0" identifier="NxtzT2gavh"/>
  <guideline x="-56.66186829068922" y="-50.0" angle="180.0" identifier="QnvlBRpuDI"/>
  <guideline x="-40.0" y="0" angle="180.0" identifier="HGg9eVba2u"/>
  <guideline x="-23.33813170931078" y="50.0" angle="180.0" identifier="icZHGEecUP"/>
  <guideline x="-6.676263418621559" y="100.0" angle="180.0" identifier="Ih1Er61bmz"/>
  <guideline x="9.985604872067668" y="150.0" angle="180.0" identifier="sS03zHTsWK"/>
  <guideline x="26.64747316275688" y="200.0" angle="180.0" identifier="6EYEHSWNMQ"/>
  <guideline x="43.30934145344611" y="250.0" angle="180.0" identifier="Tye2TIkbbI"/>
  <guideline x="59.97120974413534" y="300.0" angle="180.0" identifier="N9OupD3jlO"/>
  <guideline x="76.63307803482455" y="350.0" angle="180.0" identifier="K17tSqCAaG"/>
  <guideline x="93.29494632551376" y="400.0" angle="180.0" identifier="cFfoowmY4D"/>
  <guideline x="109.95681461620299" y="450.0" angle="180.0" identifier="sPlbDY43a5"/>
  <guideline x="126.61868290689222" y="500.0" angle="180.0" identifier="Txs1XMgyvm"/>
  <guideline x="143.28055119758145" y="550.0" angle="180.0" identifier="dVdkT3Nzt8"/>
  <guideline x="159.94241948827067" y="600.0" angle="180.0" identifier="MfJGWFkNzO"/>
  <guideline x="176.60428777895987" y="650.0" angle="180.0" identifier="BOCxvSBdyr"/>
  <guideline x="193.2661560696491" y="700.0" angle="180.0" identifier="byUsd0NEbk"/>
  <outline>
    <contour>
      <point x="527.2785358796709" y="571.0" type="curve" smooth="yes"/>
      <point x="547.2785358796709" y="571.0"/>
      <point x="568.9452985138571" y="570.0"/>
      <point x="592.2799753924642" y="556.0" type="curve"/>
      <point x="653.2776721719949" y="580.0"/>
      <point x="690.9392525601255" y="633.0"/>
      <point x="668.9360856319804" y="666.0" type="curve"/>
      <point x="648.2664439722078" y="697.0"/>
      <point x="620.9309033859248" y="720.0"/>
      <point x="577.9309033859248" y="720.0" type="curve" smooth="yes"/>
      <point x="574.9309033859248" y="720.0" type="line" smooth="yes"/>
      <point x="404.9309033859248" y="720.0"/>
      <point x="197.95163237014737" y="504.0"/>
      <point x="124.63941189111478" y="284.0" type="curve" smooth="yes"/>
      <point x="105.97811940554286" y="228.0" type="line" smooth="yes"/>
      <point x="88.64977638322605" y="176.0"/>
      <point x="141.32085755579197" y="130.0"/>
      <point x="235.32085755579197" y="130.0" type="curve"/>
      <point x="234.98560487206765" y="150.0"/>
      <point x="240.3148116020604" y="193.0"/>
      <point x="255.31049306368072" y="238.0" type="curve" smooth="yes"/>
      <point x="264.64113930646664" y="266.0" type="line" smooth="yes"/>
      <point x="315.9596936417895" y="420.0"/>
      <point x="449.2785358796709" y="571.0"/>
    </contour>
    <contour>
      <point x="286.3352526837243" y="-20.0" type="line" smooth="yes"/>
      <point x="373.3352526837243" y="-20.0"/>
      <point x="447.33266156069647" y="7.0"/>
      <point x="493.9959693641789" y="42.0" type="curve" smooth="yes"/>
      <point x="510.9948177539444" y="54.0"/>
      <point x="543.3237365813784" y="100.0"/>
      <point x="563.9844532618331" y="162.0" type="curve"/>
      <point x="582.645745747405" y="218.0" type="line"/>
      <point x="578.645745747405" y="218.0" type="line"/>
      <point x="507.65092799346064" y="164.0"/>
      <point x="426.320857555792" y="130.0"/>
      <point x="333.320857555792" y="130.0" type="curve" smooth="yes"/>
      <point x="238.32085755579197" y="130.0"/>
      <point x="214.6512158960193" y="161.0"/>
      <point x="268.3024317920386" y="322.0" type="curve"/>
      <point x="189.63566915785236" y="323.0"/>
      <point x="133.63682076808698" y="311.0"/>
      <point x="105.97811940554286" y="228.0" type="curve" smooth="yes"/>
      <point x="60.32460028905439" y="91.0"/>
      <point x="108.33525268372432" y="-20.0"/>
      <point x="281.3352526837243" y="-20.0" type="curve" smooth="yes"/>
    </contour>
    <contour>
      <point x="628.2949463255138" y="400.0" type="line"/>
      <point x="682.2793995873469" y="562.0" type="line" smooth="yes"/>
      <point x="694.2759447566431" y="598.0"/>
      <point x="693.6063030968704" y="629.0"/>
      <point x="668.9360856319804" y="666.0" type="curve" smooth="yes"/>
      <point x="640.2652923619731" y="709.0"/>
      <point x="597.598529727787" y="710.0"/>
      <point x="556.2681713875596" y="679.0" type="curve"/>
      <point x="559.9357977294218" y="669.0"/>
      <point x="553.9398283652429" y="627.0"/>
      <point x="544.6091821224569" y="599.0" type="curve" smooth="yes"/>
      <point x="496.62300144527194" y="455.0" type="line" smooth="yes"/>
      <point x="494.29033988457536" y="448.0"/>
      <point x="494.2906277871341" y="445.0"/>
      <point x="498.9579662264375" y="438.0" type="curve" smooth="yes"/>
      <point x="515.6270320810929" y="413.0"/>
      <point x="552.2949463255138" y="400.0"/>
      <point x="603.2949463255138" y="400.0" type="curve" smooth="yes"/>
    </contour>
  </outline>
</glyph>
<glyph name="G" format="2">
  <advance width="600"/>
  <unicode hex="0047"/>
  <guideline x="-40.0" y="0" angle="178.6305069678644" identifier="wwqBu32KH8"/>
  <guideline x="10.0" y="0" angle="178.6305069678644" identifier="Mu0eF5cECe"/>
  <guideline x="60.0" y="0" angle="178.6305069678644" identifier="6GvHumgVhv"/>
  <guideline x="110.0" y="0" angle="178.6305069678644" identifier="JdGaMGCvTG"/>
  <guideline x="160.0" y="0" angle="178.6305069678644" identifier="o4vyYB0WpY"/>
  <guideline x="210.0" y="0" angle="178.6305069678644" identifier="T418MrSGiZ"/>
  <guideline x="260.0" y="0" angle="178.6305069678644" identifier="6kwVeRssvB"/>
  <guideline x="310.0" y="0" angle="178.6305069678644" identifier="ayxRFgiQ8M"/>
  <guideline x="360.0" y="0" angle="178.6305069678644" identifier="9tamccSmoa"/>
  <guideline x="410.0" y="0" angle="178.6305069678644" identifier="AqnSiEWKhv"/>
  <guideline x="460.0" y="0" angle="178.6305069678644" identifier="wSD7WrX3ej"/>
  <guideline x="510.0" y="0" angle="178.6305069678644" identifier="oWI1MjXxpk"/>
  <guideline x="560.0" y="0" angle="178.6305069678644" identifier="kpY31FltLL"/>
  <guideline x="-123.30934145344611" y="-250.0" angle="180.0" identifier="iMY5U86b0v"/>
  <guideline x="-106.64747316275688" y="-200.0" angle="180.0" identifier="xxChjghEYi"/>
  <guideline x="-89.98560487206767" y="-150.0" angle="180.0" identifier="y70l0FNmpa"/>
  <guideline x="-73.32373658137844" y="-100.0" angle="180.0" identifier="KuTRaUUIeo"/>
  <guideline x="-56.66186829068922" y="-50.0" angle="180.0" identifier="irXSS3fyvs"/>
  <guideline x="-40.0" y="0" angle="180.0" identifier="yTaa1bd0a5"/>
  <guideline x="-23.33813170931078" y="50.0" angle="180.0" identifier="WFPxZykIB3"/>
  <guideline x="-6.676263418621559" y="100.0" angle="180.0" identifier="orjzCNZ2r5"/>
  <guideline x="9.985604872067668" y="150.0" angle="180.0" identifier="yhSWUcHqkz"/>
  <guideline x="26.64747316275688" y="200.0" angle="180.0" identifier="GVPlIBwZUr"/>
  <guideline x="43.30934145344611" y="250.0" angle="180.0" identifier="v205DkN3By"/>
  <guideline x="59.97120974413534" y="300.0" angle="180.0" identifier="WhH9k9yIcr"/>
  <guideline x="76.63307803482455" y="350.0" angle="180.0" identifier="CW6pfuVfA8"/>
  <guideline x="93.29494632551376" y="400.0" angle="180.0" identifier="v8CfvOAea0"/>
  <guideline x="109.95681461620299" y="450.0" angle="180.0" identifier="oOaOrdAI85"/>
  <guideline x="126.61868290689222" y="500.0" angle="180.0" identifier="0BbsOG40l8"/>
  <guideline x="143.28055119758145" y="550.0" angle="180.0" identifier="mfarMprJqE"/>
  <guideline x="159.94241948827067" y="600.0" angle="180.0" identifier="20zSzCmMaa"/>
  <guideline x="176.60428777895987" y="650.0" angle="180.0" identifier="EVGLirWJDg"/>
  <guideline x="193.2661560696491" y="700.0" angle="180.0" identifier="b017v8Wjvg"/>
  <outline>
    <contour>
      <point x="574.9309033859248" y="720.0" type="curve" smooth="yes"/>
      <point x="570.9309033859248" y="720.0" type="line" smooth="yes"/>
      <point x="395.9309033859248" y="720.0"/>
      <point x="218.94558641641578" y="567.0"/>
      <point x="124.63941189111478" y="284.0" type="curve" smooth="yes"/>
      <point x="122.30675033041828" y="277.0" type="line" smooth="yes"/>
      <point x="96.28299479389807" y="198.90625"/>
      <point x="141.32085755579197" y="130.0"/>
      <point x="235.32085755579197" y="130.0" type="curve"/>
      <point x="234.9053459295473" y="154.78796719112123"/>
      <point x="246.0165594120437" y="210.11016949152543"/>
      <point x="264.9743766722804" y="267.0" type="curve" smooth="yes"/>
      <point x="267.97351296460454" y="276.0" type="line" smooth="yes"/>
      <point x="339.2863092487544" y="490.0"/>
      <point x="452.61090953780877" y="581.0"/>
      <point x="530.6109095378088" y="581.0" type="curve" smooth="yes"/>
      <point x="550.6109095378088" y="581.0"/>
      <point x="572.2776721719949" y="580.0"/>
      <point x="595.612349050602" y="566.0" type="curve"/>
      <point x="656.6100458301328" y="590.0"/>
      <point x="680.9392525601255" y="633.0"/>
      <point x="658.9360856319804" y="666.0" type="curve"/>
      <point x="638.9332066063939" y="696.0"/>
      <point x="614.9309033859248" y="720.0"/>
    </contour>
    <contour>
      <point x="333.320857555792" y="130.0" type="curve" smooth="yes"/>
      <point x="238.32085755579197" y="130.0"/>
      <point x="225.9809984311293" y="198.0"/>
      <point x="273.96717910831427" y="342.0" type="curve"/>
      <point x="195.3042141369129" y="342.99995172468454"/>
      <point x="139.325658655908" y="328.07142857142856"/>
      <point x="122.30675033041828" y="277.0" type="curve" smooth="yes"/>
      <point x="67.48081278512738" y="112.4748201438849"/>
      <point x="106.33525268372432" y="-20.0"/>
      <point x="279.3352526837243" y="-20.0" type="curve" smooth="yes"/>
      <point x="283.3352526837243" y="-20.0" type="line" smooth="yes"/>
      <point x="399.3352526837243" y="-20.0"/>
      <point x="520.3292067299927" y="43.0"/>
      <point x="552.9864685797436" y="141.0" type="curve" smooth="yes"/>
      <point x="569.9815742362466" y="192.0"/>
      <point x="561.3099172585634" y="244.0"/>
      <point x="545.3076140380942" y="268.0" type="curve" smooth="yes"/>
      <point x="539.3067503304183" y="277.0"/>
      <point x="520.3058866227424" y="286.0"/>
      <point x="504.3058866227424" y="286.0" type="curve"/>
      <point x="504.97351296460454" y="276.0"/>
      <point x="502.9743766722804" y="267.0"/>
      <point x="496.9761040876323" y="249.0" type="curve" smooth="yes"/>
      <point x="467.3179785302055" y="160.0"/>
      <point x="408.320857555792" y="130.0"/>
    </contour>
    <contour>
      <point x="403.2992648638935" y="355.0" type="curve"/>
      <point x="394.9683307185489" y="330.0" type="line"/>
      <point x="378.97293715948723" y="282.0"/>
      <point x="383.3084777457702" y="259.0"/>
      <point x="400.6443062346118" y="233.0" type="curve" smooth="yes"/>
      <point x="404.64488203972905" y="227.0"/>
      <point x="406.9784073081015" y="225.0"/>
      <point x="414.9784073081015" y="225.0" type="curve" smooth="yes"/>
      <point x="462.9784073081015" y="225.0"/>
      <point x="411.9784073081015" y="225.0"/>
      <point x="459.9784073081015" y="225.0" type="curve" smooth="yes"/>
      <point x="505.9784073081015" y="225.0"/>
      <point x="568.9784073081015" y="225.0"/>
      <point x="614.9784073081015" y="225.0" type="curve"/>
      <point x="623.3093414534461" y="250.0" type="line"/>
      <point x="636.6388360859975" y="290.0"/>
      <point x="641.6353812552937" y="326.0"/>
      <point x="627.6333659373832" y="347.0" type="curve" smooth="yes"/>
      <point x="623.6327901322659" y="353.0"/>
      <point x="621.2992648638934" y="355.0"/>
      <point x="613.2992648638934" y="355.0" type="curve" smooth="yes"/>
      <point x="528.2992648638934" y="355.0"/>
      <point x="488.2992648638934" y="355.0"/>
    </contour>
    <contour>
      <point x="634.956814616203" y="450.0" type="line"/>
      <point x="672.2793995873469" y="562.0" type="line" smooth="yes"/>
      <point x="684.2759447566431" y="598.0"/>
      <point x="683.6063030968704" y="629.0"/>
      <point x="658.9360856319804" y="666.0" type="curve" smooth="yes"/>
      <point x="630.2652923619731" y="709.0"/>
      <point x="587.598529727787" y="710.0"/>
      <point x="546.2681713875596" y="679.0" type="curve"/>
      <point x="549.9357977294218" y="669.0"/>
      <point x="543.9398283652429" y="627.0"/>
      <point x="534.6091821224569" y="599.0" type="curve" smooth="yes"/>
      <point x="503.28486973596114" y="505.0" type="line" smooth="yes"/>
      <point x="500.9522081752647" y="498.0"/>
      <point x="500.9524960778233" y="495.0"/>
      <point x="505.61983451712683" y="488.0" type="curve" smooth="yes"/>
      <point x="522.2889003717822" y="463.0"/>
      <point x="558.956814616203" y="450.0"/>
      <point x="609.956814616203" y="450.0" type="curve" smooth="yes"/>
    </contour>
  </outline>
</glyph>
<glyph name="L" format="2">
  <advance width="600"/>
  <unicode hex="004C"/>
  <outline>
    <contour>
      <point x="213.32517609417167" y="85.0" type="line"/>
      <point x="288.30358340227315" y="310.0"/>
      <point x="331.6244409580652" y="440.0"/>
      <point x="406.6028482661667" y="665.0" type="curve"/>
      <point x="409.2687471926769" y="673.0"/>
      <point x="408.26845929011824" y="676.0"/>
      <point x="404.267883485001" y="682.0" type="curve" smooth="yes"/>
      <point x="394.933206606394" y="696.0"/>
      <point x="334.59852972778697" y="710.0"/>
      <point x="286.59852972778697" y="710.0" type="curve" smooth="yes"/>
      <point x="261.59852972778697" y="710.0" type="line"/>
      <point x="226.27536895152582" y="604.0"/>
      <point x="190.28573344363707" y="496.0"/>
      <point x="154.96257266737592" y="390.0" type="curve" smooth="yes"/>
      <point x="116.97351296460451" y="276.0"/>
      <point x="109.64229091670126" y="254.0"/>
      <point x="71.65323121392981" y="140.0" type="curve" smooth="yes"/>
      <point x="68.98733228741955" y="132.0"/>
      <point x="69.9876201899782" y="129.0"/>
      <point x="73.98819599509548" y="123.0" type="curve" smooth="yes"/>
      <point x="91.32402448393708" y="97.0"/>
      <point x="140.32517609417167" y="85.0"/>
      <point x="188.32517609417167" y="85.0" type="curve" smooth="yes"/>
    </contour>
    <contour>
      <point x="74.98560487206767" y="150.0" type="curve"/>
      <point x="66.65467072672305" y="125.0" type="line"/>
      <point x="50.6592771676614" y="77.0"/>
      <point x="48.33007043766867" y="34.0"/>
      <point x="65.66589892651028" y="8.0" type="curve" smooth="yes"/>
      <point x="69.66647473162757" y="2.0"/>
      <point x="72.0" y="0.0"/>
      <point x="80.0" y="0.0" type="curve" smooth="yes"/>
      <point x="128.0" y="0.0"/>
      <point x="77.0" y="0.0"/>
      <point x="125.0" y="0.0" type="curve" smooth="yes"/>
      <point x="204.94805194805195" y="0.0"/>
      <point x="450.05194805194805" y="0.0"/>
      <point x="530.0" y="0.0" type="curve"/>
      <point x="538.3309341453446" y="25.0" type="line"/>
      <point x="546.6618682906892" y="50.0"/>
      <point x="541.9896355078887" y="108.0"/>
      <point x="519.3197059455574" y="142.0" type="curve" smooth="yes"/>
      <point x="515.31913014044" y="148.0"/>
      <point x="512.9856048720677" y="150.0"/>
      <point x="504.9856048720677" y="150.0" type="curve" smooth="yes"/>
      <point x="381.22950731109205" y="150.0"/>
      <point x="198.74170243304326" y="150.0"/>
    </contour>
  </outline>
</glyph>
<glyph name="N" format="2">
  <advance width="600"/>
  <unicode hex="004E"/>
  <outline>
    <contour>
      <point x="181.66762634186216" y="-10.0" type="line"/>
      <point x="196.33007043766867" y="34.0"/>
      <point x="203.99452985138572" y="57.0"/>
      <point x="218.65697394719223" y="101.0" type="curve" smooth="yes"/>
      <point x="332.6241530555065" y="443.0"/>
      <point x="374.9971214782763" y="658.4095388871441"/>
      <point x="351.9334945089526" y="693.0" type="curve" smooth="yes"/>
      <point x="345.26586816709045" y="703.0"/>
      <point x="330.59852972778697" y="710.0"/>
      <point x="296.59852972778697" y="710.0" type="curve" smooth="yes"/>
      <point x="271.59852972778697" y="710.0" type="line"/>
      <point x="236.27536895152582" y="604.0"/>
      <point x="200.28573344363707" y="496.0"/>
      <point x="164.96257266737592" y="390.0" type="curve" smooth="yes"/>
      <point x="126.97351296460451" y="276.0"/>
      <point x="87.98474116439172" y="159.0"/>
      <point x="49.99568146162031" y="45.0" type="curve" smooth="yes"/>
      <point x="47.32978253511003" y="37.0"/>
      <point x="48.33007043766867" y="34.0"/>
      <point x="52.33064624278596" y="28.0" type="curve" smooth="yes"/>
      <point x="68.99971209744135" y="3.0"/>
      <point x="112.66762634186216" y="-10.0"/>
      <point x="156.66762634186216" y="-10.0" type="curve" smooth="yes"/>
    </contour>
    <contour>
      <point x="491.66762634186216" y="-10.0" type="line"/>
      <point x="566.6460336499637" y="215.0"/>
      <point x="641.6244409580652" y="440.0"/>
      <point x="716.6028482661667" y="665.0" type="curve"/>
      <point x="719.268747192677" y="673.0"/>
      <point x="718.2684592901182" y="676.0"/>
      <point x="714.267883485001" y="682.0" type="curve" smooth="yes"/>
      <point x="705.5999692405802" y="695.0"/>
      <point x="650.598529727787" y="710.0"/>
      <point x="606.598529727787" y="710.0" type="curve" smooth="yes"/>
      <point x="581.598529727787" y="710.0" type="line"/>
      <point x="546.2753689515258" y="604.0"/>
      <point x="536.9447227087398" y="576.0"/>
      <point x="501.6215619324787" y="470.0" type="curve" smooth="yes"/>
      <point x="419.9784073081015" y="225.00000000000003"/>
      <point x="375.02211378791236" y="53.95906184214823"/>
      <point x="395.66445941371705" y="23.0" type="curve" smooth="yes"/>
      <point x="409.66647473162755" y="2.0"/>
      <point x="428.66762634186216" y="-10.0"/>
      <point x="446.66762634186216" y="-10.0" type="curve" smooth="yes"/>
    </contour>
    <contour>
      <point x="441.5999692405802" y="695.0"/>
      <point x="378.59852972778697" y="710.0"/>
      <point x="318.59852972778697" y="710.0" type="curve" smooth="yes"/>
      <point x="284.59852972778697" y="710.0" type="line"/>
      <point x="299.2698988029115" y="661.0"/>
      <point x="309.27594475664307" y="598.0"/>
      <point x="305.6149401736298" y="539.0" type="curve" smooth="yes"/>
      <point x="290.9686186211075" y="327.0"/>
      <point x="303.6566860446336" y="104.0"/>
      <point x="349.66330780348244" y="35.0" type="curve" smooth="yes"/>
      <point x="362.6479653272666" y="15.525817047873552"/>
      <point x="420.66762634186216" y="-10.0"/>
      <point x="446.66762634186216" y="-10.0" type="curve"/>
      <point x="466.66762634186216" y="-10.0"/>
      <point x="487.99003722683165" y="5.9718309859154886"/>
      <point x="509.6598529727787" y="71.0" type="curve"/>
      <point x="397.7535289806475" y="203.08747191168712"/>
      <point x="417.3067666765256" y="435.667858677469"/>
      <point x="439.26932299779423" y="667.0" type="curve" smooth="yes"/>
    </contour>
  </outline>
</glyph>
<glyph name="O" format="2">
  <advance width="600"/>
  <unicode hex="004F"/>
  <outline>
    <contour>
      <point x="489.9309033859248" y="720.0" type="curve"/>
      <point x="347.9309033859248" y="720.0"/>
      <point x="206.9432831959466" y="591.0"/>
      <point x="126.63307803482456" y="350.0" type="curve" smooth="yes"/>
      <point x="113.30358340227318" y="310.0" type="line" smooth="yes"/>
      <point x="41.99078711812331" y="96.0"/>
      <point x="115.33525268372432" y="-20.0"/>
      <point x="238.33525268372432" y="-20.0" type="curve" smooth="yes"/>
      <point x="263.3352526837243" y="-20.0" type="line"/>
      <point x="302.3352526837243" y="-20.0"/>
      <point x="340.99827258464813" y="18.0"/>
      <point x="359.65956507022" y="74.0" type="curve"/>
      <point x="240.65956507022003" y="74.0"/>
      <point x="200.3217212634679" y="121.0"/>
      <point x="251.6402755987907" y="275.0" type="curve" smooth="yes"/>
      <point x="266.635957060411" y="320.0" type="line" smooth="yes"/>
      <point x="320.9536476880579" y="483.0"/>
      <point x="392.2785358796709" y="571.0"/>
      <point x="474.2785358796709" y="571.0" type="curve" smooth="yes"/>
      <point x="528.2785358796709" y="571.0"/>
      <point x="538.9455864164158" y="567.0"/>
      <point x="560.9470259292091" y="552.0" type="curve"/>
      <point x="580.9455864164158" y="567.0"/>
      <point x="584.6117732454848" y="572.0"/>
      <point x="593.9424194882706" y="600.0" type="curve"/>
      <point x="615.6028482661667" y="665.0"/>
      <point x="553.9309033859248" y="720.0"/>
    </contour>
    <contour>
      <point x="263.3352526837243" y="-20.0" type="curve"/>
      <point x="405.3352526837243" y="-20.0"/>
      <point x="542.9904992155647" y="99.0"/>
      <point x="609.9712097441353" y="300.0" type="curve" smooth="yes"/>
      <point x="623.3007043766867" y="340.0" type="line" smooth="yes"/>
      <point x="708.2762326592017" y="595.0"/>
      <point x="637.9309033859248" y="720.0"/>
      <point x="514.9309033859248" y="720.0" type="curve" smooth="yes"/>
      <point x="489.9309033859248" y="720.0" type="line"/>
      <point x="450.9309033859248" y="720.0"/>
      <point x="412.267883485001" y="682.0"/>
      <point x="393.60659099942905" y="626.0" type="curve"/>
      <point x="512.606590999429" y="626.0"/>
      <point x="551.611485342926" y="575.0"/>
      <point x="484.9640121801692" y="375.0" type="curve" smooth="yes"/>
      <point x="469.9683307185489" y="330.0" type="line" smooth="yes"/>
      <point x="428.6468973576396" y="206.0"/>
      <point x="360.9876201899782" y="129.0"/>
      <point x="278.9876201899782" y="129.0" type="curve" smooth="yes"/>
      <point x="224.9876201899782" y="129.0"/>
      <point x="214.32056965323332" y="133.0"/>
      <point x="192.3191301404401" y="148.0" type="curve"/>
      <point x="172.32056965323332" y="133.0"/>
      <point x="168.6543828241644" y="128.0"/>
      <point x="159.32373658137845" y="100.0" type="curve"/>
      <point x="137.66330780348247" y="35.0"/>
      <point x="198.33525268372432" y="-20.0"/>
    </contour>
  </outline>
</glyph>
<glyph name="Q" format="2">
  <advance width="600"/>
  <unicode hex="0051"/>
  <guideline x="-40.0" y="0" angle="178.6305069678644" identifier="C9o10zaAMG"/>
  <guideline x="10.0" y="0" angle="178.6305069678644" identifier="kcaVuCfvs0"/>
  <guideline x="60.0" y="0" angle="178.6305069678644" identifier="VWfBNA5YxC"/>
  <guideline x="110.0" y="0" angle="178.6305069678644" identifier="EBzwGyEfcH"/>
  <guideline x="160.0" y="0" angle="178.6305069678644" identifier="c5bFWwFzvR"/>
  <guideline x="210.0" y="0" angle="178.6305069678644" identifier="wfv5XVJAyD"/>
  <guideline x="260.0" y="0" angle="178.6305069678644" identifier="e0cAQisuqu"/>
  <guideline x="310.0" y="0" angle="178.6305069678644" identifier="1UQstsOFY6"/>
  <guideline x="360.0" y="0" angle="178.6305069678644" identifier="hTWfyiZMz3"/>
  <guideline x="410.0" y="0" angle="178.6305069678644" identifier="6hxiYYOmm5"/>
  <guideline x="460.0" y="0" angle="178.6305069678644" identifier="sXMUGvcT79"/>
  <guideline x="510.0" y="0" angle="178.6305069678644" identifier="3aGfnFrky9"/>
  <guideline x="560.0" y="0" angle="178.6305069678644" identifier="SXzZL6leR0"/>
  <guideline x="-123.30934145344611" y="-250.0" angle="180.0" identifier="uBIHXfcIBf"/>
  <guideline x="-106.64747316275688" y="-200.0" angle="180.0" identifier="JU3yBVcbva"/>
  <guideline x="-89.98560487206767" y="-150.0" angle="180.0" identifier="EWI7tNE3PA"/>
  <guideline x="-73.32373658137844" y="-100.0" angle="180.0" identifier="8eDmGFhY7N"/>
  <guideline x="-56.66186829068922" y="-50.0" angle="180.0" identifier="n9Ccw6O7t6"/>
  <guideline x="-40.0" y="0" angle="180.0" identifier="KOteGKj0Xd"/>
  <guideline x="-23.33813170931078" y="50.0" angle="180.0" identifier="zQejJqvCGJ"/>
  <guideline x="-6.676263418621559" y="100.0" angle="180.0" identifier="4q8Sr0grFS"/>
  <guideline x="9.985604872067668" y="150.0" angle="180.0" identifier="NalxTbIKvX"/>
  <guideline x="26.64747316275688" y="200.0" angle="180.0" identifier="JVqmvU8AzW"/>
  <guideline x="43.30934145344611" y="250.0" angle="180.0" identifier="URctMgqCdZ"/>
  <guideline x="59.97120974413534" y="300.0" angle="180.0" identifier="Z9WkH7B2zM"/>
  <guideline x="76.63307803482455" y="350.0" angle="180.0" identifier="wuI7lsfekP"/>
  <guideline x="93.29494632551376" y="400.0" angle="180.0" identifier="w2lmap228a"/>
  <guideline x="109.95681461620299" y="450.0" angle="180.0" identifier="H5lYWfsGlu"/>
  <guideline x="126.61868290689222" y="500.0" angle="180.0" identifier="kmlaqOgWxz"/>
  <guideline x="143.28055119758145" y="550.0" angle="180.0" identifier="3PBNkt8Gs8"/>
  <guideline x="159.94241948827067" y="600.0" angle="180.0" identifier="42i6wv6H6l"/>
  <guideline x="176.60428777895987" y="650.0" angle="180.0" identifier="s1AGGPP2cs"/>
  <guideline x="193.2661560696491" y="700.0" angle="180.0" identifier="YSpxWO1Gd3"/>
  <outline>
    <contour>
      <point x="376.6526554088125" y="146.0" type="line"/>
      <point x="271.99280243603386" y="75.0"/>
      <point x="284.6621561932479" y="47.0"/>
      <point x="289.3312220479033" y="22.0" type="curve" smooth="yes"/>
      <point x="309.0080612716421" y="-84.0" type="line" smooth="yes"/>
      <point x="326.684036787705" y="-181.0"/>
      <point x="364.018713666312" y="-195.0"/>
      <point x="388.018713666312" y="-195.0" type="curve" smooth="yes"/>
      <point x="418.018713666312" y="-195.0"/>
      <point x="429.68490049538093" y="-190.0"/>
      <point x="451.0166983484015" y="-174.0" type="curve" smooth="yes"/>
      <point x="467.0155467381669" y="-162.0"/>
      <point x="498.345329273277" y="-125.0"/>
      <point x="528.3366921965176" y="-35.0" type="curve" smooth="yes"/>
      <point x="536.6676263418622" y="-10.0" type="line"/>
      <point x="532.6676263418622" y="-10.0" type="line"/>
      <point x="518.6682021469794" y="-16.0"/>
      <point x="505.3352526837243" y="-20.0"/>
      <point x="488.3352526837243" y="-20.0" type="curve" smooth="yes"/>
      <point x="468.3352526837243" y="-20.0"/>
      <point x="452.6679142444208" y="-13.0"/>
      <point x="434.3309341453446" y="25.0" type="curve" smooth="yes"/>
    </contour>
    <component base="O" yxScale="0.33323736581378444" xOffset="-40.0"/>
  </outline>
</glyph>
<glyph name="T" format="2">
  <advance width="600"/>
  <unicode hex="0054"/>
  <guideline x="-40.0" y="0" angle="178.6305069678644" identifier="uNpTdDMIg6"/>
  <guideline x="10.0" y="0" angle="178.6305069678644" identifier="4zREJzMpve"/>
  <guideline x="60.0" y="0" angle="178.6305069678644" identifier="vt6enIhcc6"/>
  <guideline x="110.0" y="0" angle="178.6305069678644" identifier="1KkKGJwz1A"/>
  <guideline x="160.0" y="0" angle="178.6305069678644" identifier="q0UjrP1ZvL"/>
  <guideline x="210.0" y="0" angle="178.6305069678644" identifier="EFdK9ejNsU"/>
  <guideline x="260.0" y="0" angle="178.6305069678644" identifier="0woUMzWvcD"/>
  <guideline x="310.0" y="0" angle="178.6305069678644" identifier="M1pc042LNV"/>
  <guideline x="360.0" y="0" angle="178.6305069678644" identifier="vNYtHeJMCP"/>
  <guideline x="410.0" y="0" angle="178.6305069678644" identifier="xaLNMraOTX"/>
  <guideline x="460.0" y="0" angle="178.6305069678644" identifier="J7wspj6e5v"/>
  <guideline x="510.0" y="0" angle="178.6305069678644" identifier="3rYyHMlhDa"/>
  <guideline x="560.0" y="0" angle="178.6305069678644" identifier="21TT8d4HOK"/>
  <guideline x="-106.64747316275688" y="-200" angle="180.0" identifier="dJChzWfvUH"/>
  <guideline x="-89.98560487206767" y="-150" angle="180.0" identifier="V5AO4IwaD4"/>
  <guideline x="-73.32373658137844" y="-100" angle="180.0" identifier="uPyB6jB2gl"/>
  <guideline x="-56.66186829068922" y="-50" angle="180.0" identifier="O3BSWC7sY5"/>
  <guideline x="-40.0" y="0" angle="180.0" identifier="Y8FQW115Cj"/>
  <guideline x="-23.33813170931078" y="50" angle="180.0" identifier="qX9tekJHHr"/>
  <guideline x="-6.676263418621559" y="100" angle="180.0" identifier="cAAtXahFC4"/>
  <guideline x="9.985604872067668" y="150" angle="180.0" identifier="XrEOlVx2PD"/>
  <guideline x="26.64747316275688" y="200" angle="180.0" identifier="J60bT5mDHT"/>
  <guideline x="43.30934145344611" y="250" angle="180.0" identifier="6jFR0t2IB8"/>
  <guideline x="59.97120974413534" y="300" angle="180.0" identifier="S5ZgupvDsg"/>
  <guideline x="76.63307803482455" y="350" angle="180.0" identifier="EqZ2BFI8F9"/>
  <guideline x="93.29494632551376" y="400" angle="180.0" identifier="DNIoHUYiQt"/>
  <guideline x="109.95681461620299" y="450" angle="180.0" identifier="Tvh6CSvGmy"/>
  <guideline x="126.61868290689222" y="500" angle="180.0" identifier="tR7LPHFTW7"/>
  <guideline x="143.28055119758145" y="550" angle="180.0" identifier="Vtn930EZF3"/>
  <guideline x="159.94241948827067" y="600" angle="180.0" identifier="jHhCa2RaGq"/>
  <guideline x="176.60428777895987" y="650" angle="180.0" identifier="PlulDGkhWc"/>
  <guideline x="193.2661560696491" y="700" angle="180.0" identifier="ew2LjymB4s"/>
  <guideline x="209.92802436033833" y="750" angle="180.0" identifier="zGw8wXp5cr"/>
  <outline>
    <contour>
      <point x="335.00143951279324" y="-15.0" type="line"/>
      <point x="409.97984682089475" y="210.0"/>
      <point x="469.9625726673759" y="390.0"/>
      <point x="544.9409799754774" y="615.0" type="curve"/>
      <point x="547.6068789019877" y="623.0"/>
      <point x="546.606590999429" y="626.0"/>
      <point x="542.6060151943118" y="632.0" type="curve" smooth="yes"/>
      <point x="533.2713383157047" y="646.0"/>
      <point x="472.93666143709777" y="660.0"/>
      <point x="424.93666143709777" y="660.0" type="curve" smooth="yes"/>
      <point x="399.93666143709777" y="660.0" type="line"/>
      <point x="364.61350066083656" y="554.0"/>
      <point x="328.6238651529479" y="446.0"/>
      <point x="293.3007043766867" y="340.0" type="curve" smooth="yes"/>
      <point x="255.31164467391528" y="226.0"/>
      <point x="231.3185543353228" y="154.0"/>
      <point x="193.3294946325514" y="40.0" type="curve" smooth="yes"/>
      <point x="190.6635957060411" y="32.0"/>
      <point x="191.66388360859975" y="29.0"/>
      <point x="195.66445941371705" y="23.0" type="curve" smooth="yes"/>
      <point x="213.00028790255865" y="-3.0"/>
      <point x="262.00143951279324" y="-15.0"/>
      <point x="310.00143951279324" y="-15.0" type="curve" smooth="yes"/>
    </contour>
    <contour>
      <point x="223.26615606964913" y="700.0" type="curve"/>
      <point x="214.9352219243045" y="675.0" type="line"/>
      <point x="198.93982836524285" y="627.0"/>
      <point x="196.6106216352501" y="584.0"/>
      <point x="213.9464501240917" y="558.0" type="curve" smooth="yes"/>
      <point x="217.94702592920902" y="552.0"/>
      <point x="220.28055119758142" y="550.0"/>
      <point x="228.28055119758142" y="550.0" type="curve" smooth="yes"/>
      <point x="276.2805511975814" y="550.0"/>
      <point x="260.2805511975814" y="550.0"/>
      <point x="308.2805511975814" y="550.0" type="curve" smooth="yes"/>
      <point x="384.2805511975814" y="550.0"/>
      <point x="637.2805511975814" y="550.0"/>
      <point x="713.2805511975814" y="550.0" type="curve"/>
      <point x="721.611485342926" y="575.0" type="line"/>
      <point x="729.9424194882706" y="600.0"/>
      <point x="725.2701867054702" y="658.0"/>
      <point x="702.6002571431388" y="692.0" type="curve" smooth="yes"/>
      <point x="698.5996813380216" y="698.0"/>
      <point x="696.2661560696491" y="700.0"/>
      <point x="688.2661560696491" y="700.0" type="curve" smooth="yes"/>
      <point x="570.2661560696491" y="700.0"/>
      <point x="341.2661560696491" y="700.0"/>
    </contour>
  </outline>
</glyph>
<glyph name="U" format="2">
  <advance width="600"/>
  <unicode hex="0055"/>
  <outline>
    <contour>
      <point x="571.598529727787" y="710.0" type="line"/>
      <point x="496.62012241968546" y="485.0"/>
      <point x="421.64171511158395" y="260.0"/>
      <point x="346.66330780348244" y="35.0" type="curve"/>
      <point x="343.9974088769722" y="27.0"/>
      <point x="344.9976967795308" y="24.0"/>
      <point x="348.99827258464813" y="18.0" type="curve" smooth="yes"/>
      <point x="358.33294946325515" y="4.0"/>
      <point x="418.66762634186216" y="-10.0"/>
      <point x="466.66762634186216" y="-10.0" type="curve" smooth="yes"/>
      <point x="491.66762634186216" y="-10.0" type="line"/>
      <point x="531.3228728737025" y="109.0"/>
      <point x="571.9778315029841" y="231.0"/>
      <point x="611.6330780348245" y="350.0" type="curve" smooth="yes"/>
      <point x="645.0750601331047" y="450.35483870967744"/>
      <point x="679.8284925097487" y="554.6451612903226"/>
      <point x="713.2704746080287" y="655.0" type="curve" smooth="yes"/>
      <point x="715.9363735345391" y="663.0"/>
      <point x="714.9360856319804" y="666.0"/>
      <point x="710.9355098268632" y="672.0" type="curve" smooth="yes"/>
      <point x="693.5996813380216" y="698.0"/>
      <point x="644.598529727787" y="710.0"/>
      <point x="596.598529727787" y="710.0" type="curve" smooth="yes"/>
    </contour>
    <contour>
      <point x="51.99222663091655" y="81.0"/>
      <point x="96.66762634186216" y="-10.0"/>
      <point x="161.66762634186216" y="-10.0" type="curve" smooth="yes"/>
      <point x="212.66762634186216" y="-10.0"/>
      <point x="331.32690350952356" y="67.0"/>
      <point x="394.98848389765413" y="120.0" type="curve" smooth="yes"/>
      <point x="436.6517917011366" y="155.0"/>
      <point x="446.6500642857847" y="173.0"/>
      <point x="474.9752403799564" y="258.0" type="curve"/>
      <point x="368.8232362221413" y="179.08491588330804"/>
      <point x="304.71371312700853" y="159.0"/>
      <point x="237.98474116439172" y="159.0" type="curve" smooth="yes"/>
      <point x="189.58474116439172" y="159.0"/>
      <point x="154.48738366228866" y="164.47396733828757"/>
      <point x="138.98157423624662" y="192.0" type="curve"/>
      <point x="105.98157423624662" y="192.0"/>
      <point x="78.6512158960193" y="161.0"/>
      <point x="70.98675648230225" y="138.0" type="curve" smooth="yes"/>
    </contour>
    <contour>
      <point x="261.59852972778697" y="710.0" type="line"/>
      <point x="196.55564975776372" y="514.8151658767772"/>
      <point x="136.02963645232546" y="333.1848341232228"/>
      <point x="70.98675648230225" y="138.0" type="curve"/>
      <point x="56.65754975230952" y="95.0"/>
      <point x="128.6587013625441" y="83.0"/>
      <point x="212.6587013625441" y="83.0" type="curve"/>
      <point x="242.98330165159848" y="174.0"/>
      <point x="270.9752403799564" y="258.0"/>
      <point x="301.63307803482456" y="350.0" type="curve" smooth="yes"/>
      <point x="335.07506013310467" y="450.35483870967744"/>
      <point x="369.8284925097487" y="554.6451612903226"/>
      <point x="403.2704746080288" y="655.0" type="curve" smooth="yes"/>
      <point x="405.9363735345391" y="663.0"/>
      <point x="404.9360856319804" y="666.0"/>
      <point x="400.93550982686315" y="672.0" type="curve" smooth="yes"/>
      <point x="383.5996813380215" y="698.0"/>
      <point x="334.59852972778697" y="710.0"/>
      <point x="286.59852972778697" y="710.0" type="curve" smooth="yes"/>
    </contour>
  </outline>
</glyph>
<glyph name="W" format="2">
  <advance width="600"/>
  <unicode hex="0057"/>
  <guideline x="-40.0" y="0" angle="178.6305069678644" identifier="bGj47yySE3"/>
  <guideline x="10.0" y="0" angle="178.6305069678644" identifier="wWpEQnAxC8"/>
  <guideline x="60.0" y="0" angle="178.6305069678644" identifier="LJ5jwEZkdJ"/>
  <guideline x="110.0" y="0" angle="178.6305069678644" identifier="hp8J5qC6Ea"/>
  <guideline x="160.0" y="0" angle="178.6305069678644" identifier="dIC4O5gKRh"/>
  <guideline x="210.0" y="0" angle="178.6305069678644" identifier="6prPO88iJz"/>
  <guideline x="260.0" y="0" angle="178.6305069678644" identifier="3LyeM7KJrY"/>
  <guideline x="310.0" y="0" angle="178.6305069678644" identifier="gB8EMUe8TK"/>
  <guideline x="360.0" y="0" angle="178.6305069678644" identifier="VR8hlw6XtX"/>
  <guideline x="410.0" y="0" angle="178.6305069678644" identifier="kqrgm2K3RZ"/>
  <guideline x="460.0" y="0" angle="178.6305069678644" identifier="qv2do3nol2"/>
  <guideline x="510.0" y="0" angle="178.6305069678644" identifier="gmPIlJ3gGV"/>
  <guideline x="560.0" y="0" angle="178.6305069678644" identifier="YlV4IPMK9u"/>
  <guideline x="-123.30934145344611" y="-250.0" angle="180.0" identifier="B3vbzTR5cu"/>
  <guideline x="-106.64747316275688" y="-200.0" angle="180.0" identifier="vBvm2b3m5B"/>
  <guideline x="-89.98560487206767" y="-150.0" angle="180.0" identifier="TK4u8icXuN"/>
  <guideline x="-73.32373658137844" y="-100.0" angle="180.0" identifier="ywkVrLhUoF"/>
  <guideline x="-56.66186829068922" y="-50.0" angle="180.0" identifier="0yBhsIdiuV"/>
  <guideline x="-40.0" y="0" angle="180.0" identifier="HF3RDNOoSB"/>
  <guideline x="-23.33813170931078" y="50.0" angle="180.0" identifier="AHdwwDRZ02"/>
  <guideline x="-6.676263418621559" y="100.0" angle="180.0" identifier="XtMeksQbjU"/>
  <guideline x="9.985604872067668" y="150.0" angle="180.0" identifier="PLOXizrDyo"/>
  <guideline x="26.64747316275688" y="200.0" angle="180.0" identifier="klaBZr3GQ2"/>
  <guideline x="43.30934145344611" y="250.0" angle="180.0" identifier="XLxwdQonV8"/>
  <guideline x="59.97120974413534" y="300.0" angle="180.0" identifier="NBmayOPpXI"/>
  <guideline x="76.63307803482455" y="350.0" angle="180.0" identifier="S1golYLCiP"/>
  <guideline x="93.29494632551376" y="400.0" angle="180.0" identifier="Kp93Qk2toE"/>
  <guideline x="109.95681461620299" y="450.0" angle="180.0" identifier="gdWk5Hyn8L"/>
  <guideline x="126.61868290689222" y="500.0" angle="180.0" identifier="T8Svw5DO2d"/>
  <guideline x="143.28055119758145" y="550.0" angle="180.0" identifier="gllb3Wfq0T"/>
  <guideline x="159.94241948827067" y="600.0" angle="180.0" identifier="y7vWcqSf6Z"/>
  <guideline x="176.60428777895987" y="650.0" angle="180.0" identifier="NW0EUzB06i"/>
  <guideline x="193.2661560696491" y="700.0" angle="180.0" identifier="CiHvkCsQsQ"/>
  <outline>
    <contour>
      <point x="234.59852972778697" y="710.0" type="line"/>
      <point x="76.97725569786691" y="237.0"/>
      <point x="48.9913629232406" y="90.0"/>
      <point x="100.99884838976541" y="12.0" type="curve" smooth="yes"/>
      <point x="110.33352526837243" y="-2.0"/>
      <point x="127.66762634186216" y="-10.0"/>
      <point x="146.66762634186216" y="-10.0" type="curve"/>
      <point x="149.66762634186216" y="-10.0" type="line"/>
      <point x="163.66762634186216" y="-10.0"/>
      <point x="206.66186829068923" y="50.0"/>
      <point x="218.65841345998547" y="86.0" type="curve"/>
      <point x="184.6561102395163" y="110.0"/>
      <point x="201.31625111485363" y="178.0"/>
      <point x="361.93666143709777" y="660.0" type="curve" smooth="yes"/>
      <point x="364.26932299779423" y="667.0"/>
      <point x="363.9357977294218" y="669.0"/>
      <point x="358.93493402174585" y="678.0" type="curve" smooth="yes"/>
      <point x="346.933206606394" y="696.0"/>
      <point x="303.59852972778697" y="710.0"/>
      <point x="258.59852972778697" y="710.0" type="curve" smooth="yes"/>
    </contour>
    <contour>
      <point x="457.2845818334025" y="508.0"/>
      <point x="433.9496170522368" y="525.0"/>
      <point x="411.9496170522368" y="525.0" type="curve" smooth="yes"/>
      <point x="391.9496170522368" y="525.0" type="line"/>
      <point x="301.64229091670126" y="254.0"/>
      <point x="236.426725490112" y="179.74384930215655"/>
      <point x="125.32805511975815" y="55.0" type="curve"/>
      <point x="113.99827258464813" y="18.0"/>
      <point x="117.66762634186216" y="-10.0"/>
      <point x="146.66762634186216" y="-10.0" type="curve" smooth="yes"/>
      <point x="167.66762634186216" y="-10.0" type="line"/>
      <point x="289.3142939434183" y="128.0175481382034"/>
      <point x="377.9740887697218" y="270.0"/>
      <point x="446.2877487615476" y="475.0" type="curve" smooth="yes"/>
    </contour>
    <contour>
      <point x="473.28486973596114" y="505.0"/>
      <point x="449.9496170522368" y="525.0"/>
      <point x="411.9496170522368" y="525.0" type="curve" smooth="yes"/>
      <point x="406.9496170522368" y="525.0" type="line"/>
      <point x="318.9775436004256" y="234.0"/>
      <point x="305.9899234104474" y="105.0"/>
      <point x="354.6658989265103" y="8.0" type="curve" smooth="yes"/>
      <point x="360.66705053674485" y="-4.0"/>
      <point x="371.66762634186216" y="-10.0"/>
      <point x="384.66762634186216" y="-10.0" type="curve" smooth="yes"/>
      <point x="396.66762634186216" y="-10.0" type="line" smooth="yes"/>
      <point x="413.66762634186216" y="-10.0"/>
      <point x="445.9971209744135" y="30.0"/>
      <point x="452.6618682906892" y="50.0" type="curve"/>
      <point x="408.32373658137845" y="100.0"/>
      <point x="381.9778315029842" y="231.0"/>
      <point x="466.62012241968546" y="485.0" type="curve" smooth="yes"/>
    </contour>
    <contour>
      <point x="614.598529727787" y="710.0" type="line"/>
      <point x="434.31711482252956" y="169.0"/>
      <point x="411.655534434399" y="116.0"/>
      <point x="367.3254639967303" y="82.0" type="curve"/>
      <point x="349.66445941371705" y="23.0"/>
      <point x="360.66762634186216" y="-10.0"/>
      <point x="397.66762634186216" y="-10.0" type="curve" smooth="yes"/>
      <point x="415.66762634186216" y="-10.0" type="line"/>
      <point x="526.9887718002128" y="117.0"/>
      <point x="609.3081898432115" y="262.0"/>
      <point x="737.2713383157047" y="646.0" type="curve" smooth="yes"/>
      <point x="741.9366614370978" y="660.0"/>
      <point x="742.6028482661667" y="665.0"/>
      <point x="739.2690350952356" y="670.0" type="curve" smooth="yes"/>
      <point x="722.5999692405802" y="695.0"/>
      <point x="672.598529727787" y="710.0"/>
      <point x="638.598529727787" y="710.0" type="curve" smooth="yes"/>
    </contour>
  </outline>
</glyph>
<glyph name="d" format="2">
  <advance width="600"/>
  <unicode hex="0064"/>
  <guideline x="-40.0" y="0" angle="178.6305069678644" identifier="MKTR1gCytv"/>
  <guideline x="10.0" y="0" angle="178.6305069678644" identifier="QPGoh2q0Cj"/>
  <guideline x="60.0" y="0" angle="178.6305069678644" identifier="Q1HEBNW9ut"/>
  <guideline x="110.0" y="0" angle="178.6305069678644" identifier="fVJFdUA02k"/>
  <guideline x="160.0" y="0" angle="178.6305069678644" identifier="tDIyogudXK"/>
  <guideline x="210.0" y="0" angle="178.6305069678644" identifier="IkWlg6nc3Y"/>
  <guideline x="260.0" y="0" angle="178.6305069678644" identifier="iQn5Ufzqya"/>
  <guideline x="310.0" y="0" angle="178.6305069678644" identifier="eXS4fLUuJ2"/>
  <guideline x="360.0" y="0" angle="178.6305069678644" identifier="YquVRGuRoz"/>
  <guideline x="410.0" y="0" angle="178.6305069678644" identifier="vPllat2R3g"/>
  <guideline x="460.0" y="0" angle="178.6305069678644" identifier="rUSnmEmFvr"/>
  <guideline x="510.0" y="0" angle="178.6305069678644" identifier="3VDvBksNwR"/>
  <guideline x="560.0" y="0" angle="178.6305069678644" identifier="iNYhz7eKq7"/>
  <guideline x="-106.64747316275688" y="-200" angle="180.0" identifier="OadOyy4lkD"/>
  <guideline x="-89.98560487206767" y="-150" angle="180.0" identifier="D7qSXlwn4m"/>
  <guideline x="-73.32373658137844" y="-100" angle="180.0" identifier="ucvk639pyS"/>
  <guideline x="-56.66186829068922" y="-50" angle="180.0" identifier="SkuOe5rpKF"/>
  <guideline x="-40.0" y="0" angle="180.0" identifier="QxaNjhF7mH"/>
  <guideline x="-23.33813170931078" y="50" angle="180.0" identifier="mxgcJ6sPEC"/>
  <guideline x="-6.676263418621559" y="100" angle="180.0" identifier="5py8VKpxft"/>
  <guideline x="9.985604872067668" y="150" angle="180.0" identifier="pN8uSVEDWk"/>
  <guideline x="26.64747316275688" y="200" angle="180.0" identifier="TmPu11kG0U"/>
  <guideline x="43.30934145344611" y="250" angle="180.0" identifier="fiVSB0NsYF"/>
  <guideline x="59.97120974413534" y="300" angle="180.0" identifier="tscW6Od94M"/>
  <guideline x="76.63307803482455" y="350" angle="180.0" identifier="4yAP0ckmVv"/>
  <guideline x="93.29494632551376" y="400" angle="180.0" identifier="Xmc0pVLbpM"/>
  <guideline x="109.95681461620299" y="450" angle="180.0" identifier="juEMJ9Orzd"/>
  <guideline x="126.61868290689222" y="500" angle="180.0" identifier="ARN6UcewdY"/>
  <guideline x="143.28055119758145" y="550" angle="180.0" identifier="DedDfd0Dhu"/>
  <guideline x="159.94241948827067" y="600" angle="180.0" identifier="MpZxcWxhoG"/>
  <guideline x="176.60428777895987" y="650" angle="180.0" identifier="F1onJqa3AH"/>
  <guideline x="193.2661560696491" y="700" angle="180.0" identifier="cob1UwbQ7G"/>
  <guideline x="209.92802436033833" y="750" angle="180.0" identifier="f9jDLuZKW3"/>
  <outline>
    <contour>
      <point x="399.9452985138571" y="570.0" type="curve" smooth="yes"/>
      <point x="300.9452985138571" y="570.0"/>
      <point x="157.95451139573382" y="474.0"/>
      <point x="79.97696779530827" y="240.0" type="curve" smooth="yes"/>
      <point x="62.64862477299147" y="188.0" type="line" smooth="yes"/>
      <point x="46.653231213929814" y="140.0"/>
      <point x="68.66014087533733" y="68.0"/>
      <point x="155.66014087533733" y="68.0" type="curve" smooth="yes"/>
      <point x="185.66014087533733" y="68.0"/>
      <point x="213.32575189928897" y="79.0"/>
      <point x="223.32287287370252" y="109.0" type="curve"/>
      <point x="211.98790809253683" y="126.0"/>
      <point x="217.98474116439172" y="159.0"/>
      <point x="240.97811940554288" y="228.0" type="curve" smooth="yes"/>
      <point x="244.97696779530827" y="240.0" type="line" smooth="yes"/>
      <point x="290.29724954598294" y="376.0"/>
      <point x="339.95825412899626" y="435.0"/>
      <point x="409.95825412899626" y="435.0" type="curve" smooth="yes"/>
      <point x="448.95825412899626" y="435.0"/>
      <point x="469.95825412899626" y="435.0"/>
      <point x="496.95825412899626" y="435.0" type="curve"/>
      <point x="509.6244409580652" y="440.0"/>
      <point x="518.9547992982925" y="471.0"/>
      <point x="512.6198345171268" y="488.0" type="curve" smooth="yes"/>
      <point x="497.61580388130574" y="530.0"/>
      <point x="462.9452985138571" y="570.0"/>
    </contour>
    <contour>
      <point x="27.658701362544107" y="83.0"/>
      <point x="76.66762634186216" y="-10.0"/>
      <point x="151.66762634186216" y="-10.0" type="curve" smooth="yes"/>
      <point x="205.66762634186216" y="-10.0"/>
      <point x="329.9936661437098" y="66.0"/>
      <point x="394.98848389765413" y="120.0" type="curve" smooth="yes"/>
      <point x="436.6517917011366" y="155.0"/>
      <point x="444.650640090902" y="167.0"/>
      <point x="466.311068868798" y="232.0" type="curve"/>
      <point x="356.3174027250882" y="166.0"/>
      <point x="287.98560487206765" y="150.0"/>
      <point x="214.98560487206765" y="150.0" type="curve"/>
      <point x="164.98560487206765" y="150.0"/>
      <point x="161.64862477299147" y="188.0"/>
      <point x="130.64344252693581" y="242.0" type="curve"/>
      <point x="97.64344252693581" y="242.0"/>
      <point x="70.31308418670852" y="211.0"/>
      <point x="62.64862477299147" y="188.0" type="curve" smooth="yes"/>
    </contour>
    <contour>
      <point x="588.2603980184762" y="760.0" type="line"/>
      <point x="548.6051514866358" y="641.0"/>
      <point x="524.6120611480434" y="569.0"/>
      <point x="484.956814616203" y="450.0" type="curve" smooth="yes"/>
      <point x="440.3030075971559" y="316.0"/>
      <point x="394.6494884806674" y="179.0"/>
      <point x="349.9956814616203" y="45.0" type="curve" smooth="yes"/>
      <point x="347.32978253511004" y="37.0"/>
      <point x="348.33007043766867" y="34.0"/>
      <point x="352.330646242786" y="28.0" type="curve" smooth="yes"/>
      <point x="369.66647473162755" y="2.0"/>
      <point x="418.66762634186216" y="-10.0"/>
      <point x="466.66762634186216" y="-10.0" type="curve" smooth="yes"/>
      <point x="491.66762634186216" y="-10.0" type="line"/>
      <point x="577.6428667218186" y="248.0"/>
      <point x="663.9513444675887" y="507.0"/>
      <point x="733.2647165568559" y="715.0" type="curve"/>
      <point x="735.9306154833662" y="723.0"/>
      <point x="734.9303275808074" y="726.0"/>
      <point x="730.9297517756902" y="732.0" type="curve" smooth="yes"/>
      <point x="721.5950748970831" y="746.0"/>
      <point x="661.2603980184762" y="760.0"/>
      <point x="613.2603980184762" y="760.0" type="curve" smooth="yes"/>
    </contour>
  </outline>
</glyph>
<glyph name="f" format="2">
  <advance width="600"/>
  <unicode hex="0066"/>
  <guideline x="-40.0" y="0" angle="178.6305069678644" identifier="ngkDIzkMRx"/>
  <guideline x="10.0" y="0" angle="178.6305069678644" identifier="IxTFFYxuDQ"/>
  <guideline x="60.0" y="0" angle="178.6305069678644" identifier="LjLgsCpQsO"/>
  <guideline x="110.0" y="0" angle="178.6305069678644" identifier="TmKmlBeFRo"/>
  <guideline x="160.0" y="0" angle="178.6305069678644" identifier="fsPtp3f8f7"/>
  <guideline x="210.0" y="0" angle="178.6305069678644" identifier="PMQtxCDKgv"/>
  <guideline x="260.0" y="0" angle="178.6305069678644" identifier="ire7dBVUqF"/>
  <guideline x="310.0" y="0" angle="178.6305069678644" identifier="fPJ65EXIKj"/>
  <guideline x="360.0" y="0" angle="178.6305069678644" identifier="VwFSPjSuZd"/>
  <guideline x="410.0" y="0" angle="178.6305069678644" identifier="smgfabkYMk"/>
  <guideline x="460.0" y="0" angle="178.6305069678644" identifier="rAVAd4M6nM"/>
  <guideline x="510.0" y="0" angle="178.6305069678644" identifier="6mLTFGp8hG"/>
  <guideline x="560.0" y="0" angle="178.6305069678644" identifier="afeO4jtAnq"/>
  <guideline x="-106.64747316275688" y="-200" angle="180.0" identifier="DZSfCE99kq"/>
  <guideline x="-89.98560487206767" y="-150" angle="180.0" identifier="KJpSY2cDei"/>
  <guideline x="-73.32373658137844" y="-100" angle="180.0" identifier="zQ2BLJn8n9"/>
  <guideline x="-56.66186829068922" y="-50" angle="180.0" identifier="kNSFUgUgxD"/>
  <guideline x="-40.0" y="0" angle="180.0" identifier="ydWmoSHp91"/>
  <guideline x="-23.33813170931078" y="50" angle="180.0" identifier="78KqDstu6R"/>
  <guideline x="-6.676263418621559" y="100" angle="180.0" identifier="JgSC5uC5wQ"/>
  <guideline x="9.985604872067668" y="150" angle="180.0" identifier="uU1bHpOME9"/>
  <guideline x="26.64747316275688" y="200" angle="180.0" identifier="Scc1t7tCCE"/>
  <guideline x="43.30934145344611" y="250" angle="180.0" identifier="UTQVnATBJn"/>
  <guideline x="59.97120974413534" y="300" angle="180.0" identifier="Wb5otge0qv"/>
  <guideline x="76.63307803482455" y="350" angle="180.0" identifier="nTmHDRNyN8"/>
  <guideline x="93.29494632551376" y="400" angle="180.0" identifier="73HWzd5iUW"/>
  <guideline x="109.95681461620299" y="450" angle="180.0" identifier="xigXaf219L"/>
  <guideline x="126.61868290689222" y="500" angle="180.0" identifier="6UPvSX1aer"/>
  <guideline x="143.28055119758145" y="550" angle="180.0" identifier="O391lKpuKy"/>
  <guideline x="159.94241948827067" y="600" angle="180.0" identifier="Bfu3LMzRms"/>
  <guideline x="176.60428777895987" y="650" angle="180.0" identifier="bjpycXr0SS"/>
  <guideline x="193.2661560696491" y="700" angle="180.0" identifier="84dkHcN5BN"/>
  <guideline x="209.92802436033833" y="750" angle="180.0" identifier="FfBWs7cQb5"/>
  <outline>
    <contour>
      <point x="406.9412678780361" y="612.0" type="curve"/>
      <point x="466.26582096800047" y="635.4898018941268"/>
      <point x="523.238947087855" y="640.0"/>
      <point x="573.271914120822" y="640.0" type="curve" smooth="yes"/>
      <point x="648.511914120822" y="640.0"/>
      <point x="710.2730657310566" y="628.0"/>
      <point x="735.9409799754774" y="615.0" type="curve"/>
      <point x="739.9409799754774" y="615.0" type="line"/>
      <point x="745.272777828498" y="631.0" type="line"/>
      <point x="762.267883485001" y="682.0"/>
      <point x="766.153714702502" y="729.8858132662232"/>
      <point x="756.5947869945246" y="749.0" type="curve" smooth="yes"/>
      <point x="748.3085153645595" y="766.0870531449575"/>
      <point x="704.7914260381505" y="775.0"/>
      <point x="668.2589585056829" y="775.0" type="curve"/>
      <point x="648.2589585056829" y="775.0" type="line"/>
      <point x="575.1100223354701" y="775.0"/>
      <point x="518.2285736040533" y="772.7270477265839"/>
      <point x="435.93176709360074" y="711.0" type="curve" smooth="yes"/>
      <point x="399.93435821662854" y="684.0"/>
      <point x="378.6057272917531" y="635.0"/>
    </contour>
    <contour>
      <point x="281.66762634186216" y="-10.0" type="line"/>
      <point x="346.00624061290927" y="183.07142857142856"/>
      <point x="386.9765846062647" y="306.0178571428571"/>
      <point x="451.6186829068922" y="500.0" type="curve"/>
      <point x="460.68195666228024" y="573.8586602721797"/>
      <point x="479.9112450278408" y="659.9237288135594"/>
      <point x="501.93032758080744" y="726.0" type="curve"/>
      <point x="481.27089437585255" y="735.7390064718545"/>
      <point x="462.9411862003466" y="731.2585224501713"/>
      <point x="435.93176709360074" y="711.0" type="curve" smooth="yes"/>
      <point x="373.26961090035286" y="664.0"/>
      <point x="345.9392525601255" y="633.0"/>
      <point x="333.27623265920175" y="595.0" type="curve" smooth="yes"/>
      <point x="284.6235772503892" y="449.0"/>
      <point x="217.30962935600473" y="247.0"/>
      <point x="149.9956814616203" y="45.0" type="curve" smooth="yes"/>
      <point x="147.32978253511" y="37.0"/>
      <point x="148.33007043766867" y="34.0"/>
      <point x="152.33064624278597" y="28.0" type="curve" smooth="yes"/>
      <point x="169.66647473162757" y="2.0"/>
      <point x="208.66762634186216" y="-10.0"/>
      <point x="256.66762634186216" y="-10.0" type="curve" smooth="yes"/>
    </contour>
    <contour>
      <point x="151.61868290689222" y="500.0" type="curve"/>
      <point x="143.28774876154762" y="475.0" type="line"/>
      <point x="126.29264310504459" y="424.0"/>
      <point x="125.62991110667946" y="383.0"/>
      <point x="142.29897696133483" y="358.0" type="curve" smooth="yes"/>
      <point x="146.96631540063834" y="351.0"/>
      <point x="149.63307803482456" y="350.0"/>
      <point x="156.63307803482456" y="350.0" type="curve" smooth="yes"/>
      <point x="207.04687113827282" y="350.0"/>
      <point x="276.2192849313763" y="350.0"/>
      <point x="326.63307803482456" y="350.0" type="curve" smooth="yes"/>
      <point x="357.094616496363" y="350.0"/>
      <point x="609.6330780348245" y="350.0"/>
      <point x="626.6330780348245" y="350.0" type="curve"/>
      <point x="634.9640121801692" y="375.0" type="line"/>
      <point x="652.292355202486" y="427.0"/>
      <point x="652.6218498350373" y="467.0"/>
      <point x="635.9527839803819" y="492.0" type="curve" smooth="yes"/>
      <point x="631.2854455410784" y="499.0"/>
      <point x="628.6186829068922" y="500.0"/>
      <point x="621.6186829068922" y="500.0" type="curve" smooth="yes"/>
      <point x="558.2478963900382" y="500.0"/>
      <point x="216.04564919902703" y="500.0"/>
    </contour>
  </outline>
</glyph>
<glyph name="h" format="2">
  <advance width="600"/>
  <unicode hex="0068"/>
  <guideline x="-40.0" y="0" angle="178.6305069678644" identifier="FavjXmLOIB"/>
  <guideline x="10.0" y="0" angle="178.6305069678644" identifier="1Ths5nz8tX"/>
  <guideline x="60.0" y="0" angle="178.6305069678644" identifier="csp9N0ju5D"/>
  <guideline x="110.0" y="0" angle="178.6305069678644" identifier="ZDz5NNIQMM"/>
  <guideline x="160.0" y="0" angle="178.6305069678644" identifier="GhGcCh3Bu6"/>
  <guideline x="210.0" y="0" angle="178.6305069678644" identifier="lPXI5yl9Ef"/>
  <guideline x="260.0" y="0" angle="178.6305069678644" identifier="mY8LILc4KD"/>
  <guideline x="310.0" y="0" angle="178.6305069678644" identifier="TqknhcOXmC"/>
  <guideline x="360.0" y="0" angle="178.6305069678644" identifier="birlu17txR"/>
  <guideline x="410.0" y="0" angle="178.6305069678644" identifier="l1rKmyRpUz"/>
  <guideline x="460.0" y="0" angle="178.6305069678644" identifier="RePZKCdsii"/>
  <guideline x="510.0" y="0" angle="178.6305069678644" identifier="tri0TfjfFn"/>
  <guideline x="560.0" y="0" angle="178.6305069678644" identifier="kuhdAH2xuj"/>
  <guideline x="-106.64747316275688" y="-200" angle="180.0" identifier="8OblGHiEoZ"/>
  <guideline x="-89.98560487206767" y="-150" angle="180.0" identifier="7ieuksMfvz"/>
  <guideline x="-73.32373658137844" y="-100" angle="180.0" identifier="9tAYRMjgjg"/>
  <guideline x="-56.66186829068922" y="-50" angle="180.0" identifier="HOYyIngEcK"/>
  <guideline x="-40.0" y="0" angle="180.0" identifier="07qwjqtJmU"/>
  <guideline x="-23.33813170931078" y="50" angle="180.0" identifier="QmopIUWy78"/>
  <guideline x="-6.676263418621559" y="100" angle="180.0" identifier="tMwv3jwuz2"/>
  <guideline x="9.985604872067668" y="150" angle="180.0" identifier="jOPt9zIE1r"/>
  <guideline x="26.64747316275688" y="200" angle="180.0" identifier="YYVPXTejD0"/>
  <guideline x="43.30934145344611" y="250" angle="180.0" identifier="lRs2lJFfjv"/>
  <guideline x="59.97120974413534" y="300" angle="180.0" identifier="zJIXQTynk3"/>
  <guideline x="76.63307803482455" y="350" angle="180.0" identifier="jZGVwZAnrc"/>
  <guideline x="93.29494632551376" y="400" angle="180.0" identifier="dt24aTlIr9"/>
  <guideline x="109.95681461620299" y="450" angle="180.0" identifier="nxW3njktzw"/>
  <guideline x="126.61868290689222" y="500" angle="180.0" identifier="j1a6F5lNMo"/>
  <guideline x="143.28055119758145" y="550" angle="180.0" identifier="cWoFYfSxEg"/>
  <guideline x="159.94241948827067" y="600" angle="180.0" identifier="AaFAQHLo7H"/>
  <guideline x="176.60428777895987" y="650" angle="180.0" identifier="R8kihE9UVF"/>
  <guideline x="193.2661560696491" y="700" angle="180.0" identifier="nyKhciuBC9"/>
  <guideline x="209.92802436033833" y="750" angle="180.0" identifier="gi9bFUlZ9L"/>
  <outline>
    <contour>
      <point x="186.66762634186216" y="-10.0" type="line"/>
      <point x="267.19998974686007" y="231.66666666666666"/>
      <point x="347.732353151858" y="473.33333333333337"/>
      <point x="428.2647165568559" y="715.0" type="curve"/>
      <point x="430.9306154833662" y="723.0"/>
      <point x="429.9303275808075" y="726.0"/>
      <point x="425.9297517756902" y="732.0" type="curve" smooth="yes"/>
      <point x="416.5950748970832" y="746.0"/>
      <point x="356.26039801847617" y="760.0"/>
      <point x="308.26039801847617" y="760.0" type="curve" smooth="yes"/>
      <point x="283.26039801847617" y="760.0" type="line"/>
      <point x="221.57445896894671" y="574.8888888888889"/>
      <point x="158.3334122122863" y="385.1111111111111"/>
      <point x="96.64747316275688" y="200.0" type="curve" smooth="yes"/>
      <point x="79.65236750625388" y="149.0"/>
      <point x="61.99078711812331" y="96.0"/>
      <point x="44.99568146162031" y="45.0" type="curve" smooth="yes"/>
      <point x="42.32978253511003" y="37.0"/>
      <point x="43.33007043766867" y="34.0"/>
      <point x="47.33064624278596" y="28.0" type="curve" smooth="yes"/>
      <point x="64.66647473162757" y="2.0"/>
      <point x="113.66762634186216" y="-10.0"/>
      <point x="161.66762634186216" y="-10.0" type="curve" smooth="yes"/>
    </contour>
    <contour>
      <point x="646.2883245666649" y="469.0"/>
      <point x="606.6129248557193" y="560.0"/>
      <point x="541.6129248557193" y="560.0" type="curve" smooth="yes"/>
      <point x="499.61292485571926" y="560.0"/>
      <point x="415.2845818334025" y="508.0"/>
      <point x="349.95595090852703" y="459.0" type="curve" smooth="yes"/>
      <point x="285.9605573494654" y="411.0"/>
      <point x="269.29494632551376" y="400.0"/>
      <point x="241.96948232878344" y="318.0" type="curve"/>
      <point x="344.6301990092381" y="380.0"/>
      <point x="396.29494632551376" y="400.0"/>
      <point x="463.29494632551376" y="400.0" type="curve" smooth="yes"/>
      <point x="511.2949463255138" y="400.0"/>
      <point x="542.2960979357483" y="388.0"/>
      <point x="559.2989769613348" y="358.0" type="curve"/>
      <point x="592.2989769613348" y="358.0"/>
      <point x="619.6293353015622" y="389.0"/>
      <point x="627.2937947152792" y="412.0" type="curve" smooth="yes"/>
    </contour>
    <contour>
      <point x="486.66762634186216" y="-10.0" type="line"/>
      <point x="534.6538070190471" y="134.0"/>
      <point x="579.3076140380942" y="268.0"/>
      <point x="627.2937947152792" y="412.0" type="curve"/>
      <point x="641.6230014452719" y="455.0"/>
      <point x="575.6218498350373" y="467.0"/>
      <point x="485.6218498350373" y="467.0" type="curve"/>
      <point x="455.29724954598294" y="376.0"/>
      <point x="427.30531081762507" y="292.0"/>
      <point x="396.6474731627569" y="200.0" type="curve" smooth="yes"/>
      <point x="379.6523675062539" y="149.0"/>
      <point x="361.9907871181233" y="96.0"/>
      <point x="344.9956814616203" y="45.0" type="curve" smooth="yes"/>
      <point x="342.32978253511004" y="37.0"/>
      <point x="343.33007043766867" y="34.0"/>
      <point x="347.330646242786" y="28.0" type="curve" smooth="yes"/>
      <point x="364.66647473162755" y="2.0"/>
      <point x="413.66762634186216" y="-10.0"/>
      <point x="461.66762634186216" y="-10.0" type="curve" smooth="yes"/>
    </contour>
  </outline>
</glyph>
<glyph name="l" format="2">
  <advance width="600"/>
  <unicode hex="006C"/>
  <outline>
    <contour>
      <point x="239.92802436033833" y="750.0" type="curve"/>
      <point x="231.59709021499373" y="725.0" type="line"/>
      <point x="215.60169665593207" y="677.0"/>
      <point x="213.27248992593934" y="634.0"/>
      <point x="230.6083184147809" y="608.0" type="curve" smooth="yes"/>
      <point x="234.60889421989822" y="602.0"/>
      <point x="236.94241948827067" y="600.0"/>
      <point x="244.94241948827067" y="600.0" type="curve" smooth="yes"/>
      <point x="309.66844688553095" y="600.0"/>
      <point x="382.82120736705855" y="600.0"/>
      <point x="419.9424194882707" y="600.0" type="curve"/>
      <point x="428.2733536336153" y="625.0" type="line"/>
      <point x="444.2687471926769" y="673.0"/>
      <point x="447.2647165568559" y="715.0"/>
      <point x="429.26212543382803" y="742.0" type="curve" smooth="yes"/>
      <point x="425.2615496287108" y="748.0"/>
      <point x="422.9280243603383" y="750.0"/>
      <point x="414.9280243603383" y="750.0" type="curve" smooth="yes"/>
      <point x="360.8371152694292" y="750.0"/>
      <point x="295.0650106617082" y="750.0"/>
    </contour>
    <contour>
      <point x="539.2650044594145" y="712.0" type="curve" smooth="yes"/>
      <point x="521.9291759705729" y="738.0"/>
      <point x="482.9280243603383" y="750.0"/>
      <point x="434.9280243603383" y="750.0" type="curve"/>
      <point x="409.9280243603383" y="750.0" type="line"/>
      <point x="214.98416535927444" y="165.0" type="line" smooth="yes"/>
      <point x="198.9887718002128" y="117.0"/>
      <point x="210.65726184975088" y="98.0"/>
      <point x="241.99510565650303" y="51.0" type="curve"/>
      <point x="265.33179785302053" y="16.0"/>
      <point x="296.33237365813784" y="10.0"/>
      <point x="318.9974088769722" y="27.0" type="curve"/>
      <point x="333.9930903385925" y="72.0"/>
      <point x="346.6561102395163" y="110.0"/>
      <point x="361.6517917011366" y="155.0" type="curve" smooth="yes"/>
      <point x="541.5999692405802" y="695.0" type="line" smooth="yes"/>
      <point x="544.2658681670905" y="703.0"/>
      <point x="543.2655802645318" y="706.0"/>
    </contour>
    <contour>
      <point x="591.6489126755502" y="185.0" type="line"/>
      <point x="587.6489126755502" y="185.0" type="line"/>
      <point x="519.6520796036953" y="152.0"/>
      <point x="469.6532312139298" y="140.0"/>
      <point x="401.6532312139298" y="140.0" type="curve" smooth="yes"/>
      <point x="332.6532312139298" y="140.0"/>
      <point x="277.31941804299873" y="145.0"/>
      <point x="238.31625111485363" y="178.0" type="curve"/>
      <point x="221.9876201899782" y="129.0"/>
      <point x="221.99222663091655" y="81.0"/>
      <point x="241.99510565650303" y="51.0" type="curve" smooth="yes"/>
      <point x="277.33352526837245" y="-2.0"/>
      <point x="289.66762634186216" y="-10.0"/>
      <point x="346.66762634186216" y="-10.0" type="curve" smooth="yes"/>
      <point x="356.66762634186216" y="-10.0" type="line" smooth="yes"/>
      <point x="444.66762634186216" y="-10.0"/>
      <point x="485.33237365813784" y="10.0"/>
      <point x="498.6647473162757" y="20.0" type="curve" smooth="yes"/>
      <point x="515.9968330718549" y="33.0"/>
      <point x="563.3237365813784" y="100.0"/>
      <point x="586.3171148225296" y="169.0" type="curve"/>
    </contour>
  </outline>
</glyph>
<glyph name="n" format="2">
  <advance width="600"/>
  <unicode hex="006E"/>
  <guideline x="-40.0" y="0" angle="178.6305069678644" identifier="7kV9o6QDUW"/>
  <guideline x="10.0" y="0" angle="178.6305069678644" identifier="LbHHM4j7ED"/>
  <guideline x="60.0" y="0" angle="178.6305069678644" identifier="MiQlkogLKL"/>
  <guideline x="110.0" y="0" angle="178.6305069678644" identifier="zv8dsZS1BA"/>
  <guideline x="160.0" y="0" angle="178.6305069678644" identifier="L3PTYbJxgr"/>
  <guideline x="210.0" y="0" angle="178.6305069678644" identifier="3FLrJpgvTl"/>
  <guideline x="260.0" y="0" angle="178.6305069678644" identifier="P6eRsNgO5Y"/>
  <guideline x="310.0" y="0" angle="178.6305069678644" identifier="v3SAw6qtEA"/>
  <guideline x="360.0" y="0" angle="178.6305069678644" identifier="4Ctkeqze6G"/>
  <guideline x="410.0" y="0" angle="178.6305069678644" identifier="yhIU0LY3Ef"/>
  <guideline x="460.0" y="0" angle="178.6305069678644" identifier="W5G40k0dY7"/>
  <guideline x="510.0" y="0" angle="178.6305069678644" identifier="RkP4yiQxup"/>
  <guideline x="560.0" y="0" angle="178.6305069678644" identifier="SEco1fZLGD"/>
  <guideline x="-106.64747316275688" y="-200" angle="180.0" identifier="SqVwYDFO9K"/>
  <guideline x="-89.98560487206767" y="-150" angle="180.0" identifier="NyoKPTC6dS"/>
  <guideline x="-73.32373658137844" y="-100" angle="180.0" identifier="jVcvqF1mm0"/>
  <guideline x="-56.66186829068922" y="-50" angle="180.0" identifier="ogVPOrMsR0"/>
  <guideline x="-40.0" y="0" angle="180.0" identifier="63DZyOm9HQ"/>
  <guideline x="-23.33813170931078" y="50" angle="180.0" identifier="F0Jiyr43MJ"/>
  <guideline x="-6.676263418621559" y="100" angle="180.0" identifier="dDI5V3AuBd"/>
  <guideline x="9.985604872067668" y="150" angle="180.0" identifier="FLYjt2Jskl"/>
  <guideline x="26.64747316275688" y="200" angle="180.0" identifier="M0bf5WM3x5"/>
  <guideline x="43.30934145344611" y="250" angle="180.0" identifier="uuaTDsSUTL"/>
  <guideline x="59.97120974413534" y="300" angle="180.0" identifier="q7R7sWngA7"/>
  <guideline x="76.63307803482455" y="350" angle="180.0" identifier="CifoJYhnrM"/>
  <guideline x="93.29494632551376" y="400" angle="180.0" identifier="KXgyn4U80d"/>
  <guideline x="109.95681461620299" y="450" angle="180.0" identifier="MH5BwExYLS"/>
  <guideline x="126.61868290689222" y="500" angle="180.0" identifier="UWDi2sCeH6"/>
  <guideline x="143.28055119758145" y="550" angle="180.0" identifier="Kbnc7HbgjO"/>
  <guideline x="159.94241948827067" y="600" angle="180.0" identifier="oI4fNWJ67D"/>
  <guideline x="176.60428777895987" y="650" angle="180.0" identifier="wRnN9UFC6G"/>
  <guideline x="193.2661560696491" y="700" angle="180.0" identifier="VlFGhIqG0I"/>
  <guideline x="209.92802436033833" y="750" angle="180.0" identifier="sDlHaqLgeL"/>
  <outline>
    <contour>
      <point x="186.66762634186216" y="-10.0" type="line"/>
      <point x="244.9841653592744" y="165.0"/>
      <point x="303.3007043766867" y="340.0"/>
      <point x="361.617243394099" y="515.0" type="curve"/>
      <point x="364.2831423206093" y="523.0"/>
      <point x="363.28285441805065" y="526.0"/>
      <point x="359.2822786129333" y="532.0" type="curve" smooth="yes"/>
      <point x="349.9476017343263" y="546.0"/>
      <point x="289.61292485571926" y="560.0"/>
      <point x="241.61292485571926" y="560.0" type="curve" smooth="yes"/>
      <point x="216.61292485571926" y="560.0" type="line"/>
      <point x="176.95767832387892" y="441.0"/>
      <point x="136.30271969459722" y="319.0"/>
      <point x="96.64747316275688" y="200.0" type="curve" smooth="yes"/>
      <point x="79.65236750625388" y="149.0"/>
      <point x="61.99078711812331" y="96.0"/>
      <point x="44.99568146162031" y="45.0" type="curve" smooth="yes"/>
      <point x="42.32978253511003" y="37.0"/>
      <point x="43.33007043766867" y="34.0"/>
      <point x="47.33064624278596" y="28.0" type="curve" smooth="yes"/>
      <point x="64.66647473162757" y="2.0"/>
      <point x="113.66762634186216" y="-10.0"/>
      <point x="161.66762634186216" y="-10.0" type="curve" smooth="yes"/>
    </contour>
    <contour>
      <point x="646.2883245666649" y="469.0"/>
      <point x="606.6129248557193" y="560.0"/>
      <point x="541.6129248557193" y="560.0" type="curve" smooth="yes"/>
      <point x="499.61292485571926" y="560.0"/>
      <point x="415.2845818334025" y="508.0"/>
      <point x="349.95595090852703" y="459.0" type="curve" smooth="yes"/>
      <point x="285.9605573494654" y="411.0"/>
      <point x="269.29494632551376" y="400.0"/>
      <point x="241.96948232878344" y="318.0" type="curve"/>
      <point x="344.6301990092381" y="380.0"/>
      <point x="396.29494632551376" y="400.0"/>
      <point x="463.29494632551376" y="400.0" type="curve" smooth="yes"/>
      <point x="511.2949463255138" y="400.0"/>
      <point x="542.2960979357483" y="388.0"/>
      <point x="559.2989769613348" y="358.0" type="curve"/>
      <point x="592.2989769613348" y="358.0"/>
      <point x="619.6293353015622" y="389.0"/>
      <point x="627.2937947152792" y="412.0" type="curve" smooth="yes"/>
    </contour>
    <contour>
      <point x="486.66762634186216" y="-10.0" type="line"/>
      <point x="534.6538070190471" y="134.0"/>
      <point x="579.3076140380942" y="268.0"/>
      <point x="627.2937947152792" y="412.0" type="curve"/>
      <point x="641.6230014452719" y="455.0"/>
      <point x="575.6218498350373" y="467.0"/>
      <point x="485.6218498350373" y="467.0" type="curve"/>
      <point x="455.29724954598294" y="376.0"/>
      <point x="427.30531081762507" y="292.0"/>
      <point x="396.6474731627569" y="200.0" type="curve" smooth="yes"/>
      <point x="379.6523675062539" y="149.0"/>
      <point x="361.9907871181233" y="96.0"/>
      <point x="344.9956814616203" y="45.0" type="curve" smooth="yes"/>
      <point x="342.32978253511004" y="37.0"/>
      <point x="343.33007043766867" y="34.0"/>
      <point x="347.330646242786" y="28.0" type="curve" smooth="yes"/>
      <point x="364.66647473162755" y="2.0"/>
      <point x="413.66762634186216" y="-10.0"/>
      <point x="461.66762634186216" y="-10.0" type="curve" smooth="yes"/>
    </contour>
  </outline>
</glyph>
<glyph name="o" format="2">
  <advance width="600"/>
  <unicode hex="006F"/>
  <guideline x="-40.0" y="0" angle="178.6305069678644" identifier="HfdI9BHJve"/>
  <guideline x="10.0" y="0" angle="178.6305069678644" identifier="nCJmEJs6Wi"/>
  <guideline x="60.0" y="0" angle="178.6305069678644" identifier="Kmh4JFeXhm"/>
  <guideline x="110.0" y="0" angle="178.6305069678644" identifier="6pzBnpqmau"/>
  <guideline x="160.0" y="0" angle="178.6305069678644" identifier="4rx46OwDVk"/>
  <guideline x="210.0" y="0" angle="178.6305069678644" identifier="p6oZwa3jdV"/>
  <guideline x="260.0" y="0" angle="178.6305069678644" identifier="Twd6xTs1jc"/>
  <guideline x="310.0" y="0" angle="178.6305069678644" identifier="IgLYFNUqsi"/>
  <guideline x="360.0" y="0" angle="178.6305069678644" identifier="M5YkhTshtD"/>
  <guideline x="410.0" y="0" angle="178.6305069678644" identifier="GtV3NCujLa"/>
  <guideline x="460.0" y="0" angle="178.6305069678644" identifier="cZJpfZ9qkv"/>
  <guideline x="510.0" y="0" angle="178.6305069678644" identifier="F8kbJCTp0W"/>
  <guideline x="560.0" y="0" angle="178.6305069678644" identifier="ljcGbcSq34"/>
  <guideline x="-106.64747316275688" y="-200" angle="180.0" identifier="59rHVFJnOI"/>
  <guideline x="-89.98560487206767" y="-150" angle="180.0" identifier="e2cdRFtbC0"/>
  <guideline x="-73.32373658137844" y="-100" angle="180.0" identifier="xjQURFG53z"/>
  <guideline x="-56.66186829068922" y="-50" angle="180.0" identifier="b1Yr4JNZBD"/>
  <guideline x="-40.0" y="0" angle="180.0" identifier="SdJr7577YB"/>
  <guideline x="-23.33813170931078" y="50" angle="180.0" identifier="PGcKypEyrp"/>
  <guideline x="-6.676263418621559" y="100" angle="180.0" identifier="cGN5upRvsb"/>
  <guideline x="9.985604872067668" y="150" angle="180.0" identifier="UgoD4ClzyH"/>
  <guideline x="26.64747316275688" y="200" angle="180.0" identifier="k1dmIWfgUu"/>
  <guideline x="43.30934145344611" y="250" angle="180.0" identifier="cjZR68rk0K"/>
  <guideline x="59.97120974413534" y="300" angle="180.0" identifier="5o6ywz580i"/>
  <guideline x="76.63307803482455" y="350" angle="180.0" identifier="6k5IrcpiHd"/>
  <guideline x="93.29494632551376" y="400" angle="180.0" identifier="MaLmIJaTNL"/>
  <guideline x="109.95681461620299" y="450" angle="180.0" identifier="OPdcO1IeBK"/>
  <guideline x="126.61868290689222" y="500" angle="180.0" identifier="wiF0IT02V0"/>
  <guideline x="143.28055119758145" y="550" angle="180.0" identifier="dvV2j6XLJt"/>
  <guideline x="159.94241948827067" y="600" angle="180.0" identifier="8GMIudx0fe"/>
  <guideline x="176.60428777895987" y="650" angle="180.0" identifier="VQuJ4TfjUt"/>
  <guideline x="193.2661560696491" y="700" angle="180.0" identifier="HEN3SOih2E"/>
  <guideline x="209.92802436033833" y="750" angle="180.0" identifier="7sc2CYiZZR"/>
  <outline>
    <contour>
      <point x="439.9452985138571" y="570.0" type="curve"/>
      <point x="297.86529851385717" y="570.0"/>
      <point x="163.62242564015463" y="461.0"/>
      <point x="109.97120974413534" y="300.0" type="curve" smooth="yes"/>
      <point x="96.64171511158395" y="260.0" type="line" smooth="yes"/>
      <point x="38.99165082579924" y="87.0"/>
      <point x="115.5597424796427" y="-20.0"/>
      <point x="238.33525268372432" y="-20.0" type="curve" smooth="yes"/>
      <point x="263.3352526837243" y="-20.0" type="line"/>
      <point x="302.3352526837243" y="-20.0"/>
      <point x="340.99827258464813" y="18.0"/>
      <point x="359.65956507022" y="74.0" type="curve"/>
      <point x="240.65956507022003" y="74.0"/>
      <point x="198.9887718002128" y="117.0"/>
      <point x="234.9784073081015" y="225.0" type="curve" smooth="yes"/>
      <point x="249.9740887697218" y="270.0" type="line" smooth="yes"/>
      <point x="278.63250222970726" y="356.0"/>
      <point x="342.2929310076032" y="421.0"/>
      <point x="424.2929310076032" y="421.0" type="curve" smooth="yes"/>
      <point x="478.2929310076032" y="421.0"/>
      <point x="488.9599815443481" y="417.0"/>
      <point x="510.96142105714137" y="402.0" type="curve"/>
      <point x="530.9599815443481" y="417.0"/>
      <point x="534.626168373417" y="422.0"/>
      <point x="543.956814616203" y="450.0" type="curve"/>
      <point x="565.617243394099" y="515.0"/>
      <point x="504.4229104541556" y="570.0"/>
    </contour>
    <contour>
      <point x="263.3352526837243" y="-20.0" type="curve"/>
      <point x="405.3352526837243" y="-20.0"/>
      <point x="539.6581255574268" y="89.0"/>
      <point x="593.3093414534461" y="250.0" type="curve" smooth="yes"/>
      <point x="606.6388360859975" y="290.0" type="line" smooth="yes"/>
      <point x="664.2889003717822" y="463.0"/>
      <point x="587.9452985138571" y="570.0"/>
      <point x="464.9452985138571" y="570.0" type="curve" smooth="yes"/>
      <point x="439.9452985138571" y="570.0" type="line"/>
      <point x="400.9452985138571" y="570.0"/>
      <point x="362.2822786129333" y="532.0"/>
      <point x="343.6209861273614" y="476.0" type="curve"/>
      <point x="462.6209861273614" y="476.0"/>
      <point x="504.2917793973686" y="433.0"/>
      <point x="468.3021438894799" y="325.0" type="curve" smooth="yes"/>
      <point x="453.3064624278596" y="280.0" type="line" smooth="yes"/>
      <point x="424.64804896787416" y="194.0"/>
      <point x="360.9876201899782" y="129.0"/>
      <point x="278.9876201899782" y="129.0" type="curve" smooth="yes"/>
      <point x="224.9876201899782" y="129.0"/>
      <point x="214.32056965323332" y="133.0"/>
      <point x="192.3191301404401" y="148.0" type="curve"/>
      <point x="172.32056965323332" y="133.0"/>
      <point x="168.6543828241644" y="128.0"/>
      <point x="159.32373658137845" y="100.0" type="curve"/>
      <point x="137.66330780348247" y="35.0"/>
      <point x="198.33525268372432" y="-20.0"/>
    </contour>
  </outline>
</glyph>
<glyph name="p" format="2">
  <advance width="600"/>
  <unicode hex="0070"/>
  <guideline x="-40.0" y="0" angle="178.6305069678644" identifier="3JxmcbpH9w"/>
  <guideline x="10.0" y="0" angle="178.6305069678644" identifier="TTo2zymdud"/>
  <guideline x="60.0" y="0" angle="178.6305069678644" identifier="PpoD2CSxeC"/>
  <guideline x="110.0" y="0" angle="178.6305069678644" identifier="3mxq2tLD56"/>
  <guideline x="160.0" y="0" angle="178.6305069678644" identifier="ZWXgNzCtzS"/>
  <guideline x="210.0" y="0" angle="178.6305069678644" identifier="zF6XEAaS8f"/>
  <guideline x="260.0" y="0" angle="178.6305069678644" identifier="1jalnTseGe"/>
  <guideline x="310.0" y="0" angle="178.6305069678644" identifier="8xj5LEfO48"/>
  <guideline x="360.0" y="0" angle="178.6305069678644" identifier="JkQ0YXIgIP"/>
  <guideline x="410.0" y="0" angle="178.6305069678644" identifier="lgHQNTDUla"/>
  <guideline x="460.0" y="0" angle="178.6305069678644" identifier="YsNYERB9pB"/>
  <guideline x="510.0" y="0" angle="178.6305069678644" identifier="VrUcr58xvC"/>
  <guideline x="560.0" y="0" angle="178.6305069678644" identifier="LWsunUhlPS"/>
  <guideline x="-106.64747316275688" y="-200" angle="180.0" identifier="wWLRdSV8dq"/>
  <guideline x="-89.98560487206767" y="-150" angle="180.0" identifier="2Xpv9w2Nk5"/>
  <guideline x="-73.32373658137844" y="-100" angle="180.0" identifier="xCmVGQssE1"/>
  <guideline x="-56.66186829068922" y="-50" angle="180.0" identifier="sQAEYwtYW2"/>
  <guideline x="-40.0" y="0" angle="180.0" identifier="b2kAxaep19"/>
  <guideline x="-23.33813170931078" y="50" angle="180.0" identifier="ZeZ0jwaMhR"/>
  <guideline x="-6.676263418621559" y="100" angle="180.0" identifier="tqV94RAv7a"/>
  <guideline x="9.985604872067668" y="150" angle="180.0" identifier="T7jePuF4YQ"/>
  <guideline x="26.64747316275688" y="200" angle="180.0" identifier="eEVycZTBaa"/>
  <guideline x="43.30934145344611" y="250" angle="180.0" identifier="41F9EgSRk8"/>
  <guideline x="59.97120974413534" y="300" angle="180.0" identifier="mMMDBr44dT"/>
  <guideline x="76.63307803482455" y="350" angle="180.0" identifier="ulMunhbAXw"/>
  <guideline x="93.29494632551376" y="400" angle="180.0" identifier="ZLi0SMUXA8"/>
  <guideline x="109.95681461620299" y="450" angle="180.0" identifier="irwlmxBTLF"/>
  <guideline x="126.61868290689222" y="500" angle="180.0" identifier="7UM4kJoZMA"/>
  <guideline x="143.28055119758145" y="550" angle="180.0" identifier="jMtuRQ5VQF"/>
  <guideline x="159.94241948827067" y="600" angle="180.0" identifier="ieiDyq0bk7"/>
  <guideline x="176.60428777895987" y="650" angle="180.0" identifier="z2FN9jBREu"/>
  <guideline x="193.2661560696491" y="700" angle="180.0" identifier="IzrcxpX7ur"/>
  <guideline x="209.92802436033833" y="750" angle="180.0" identifier="HX8fO6rlRq"/>
  <outline>
    <contour>
      <point x="110.02159269189849" y="-225.0" type="line"/>
      <point x="194.99712097441352" y="30.0"/>
      <point x="271.7605620042868" y="260.35664335664336"/>
      <point x="356.617243394099" y="515.0" type="curve"/>
      <point x="359.2831423206093" y="523.0"/>
      <point x="358.28285441805065" y="526.0"/>
      <point x="354.2822786129333" y="532.0" type="curve" smooth="yes"/>
      <point x="344.9476017343263" y="546.0"/>
      <point x="284.61292485571926" y="560.0"/>
      <point x="236.61292485571926" y="560.0" type="curve" smooth="yes"/>
      <point x="211.61292485571929" y="560.0" type="line"/>
      <point x="171.95767832387892" y="441.0"/>
      <point x="131.30271969459722" y="319.0"/>
      <point x="91.64747316275688" y="200.0" type="curve" smooth="yes"/>
      <point x="48.152752633496846" y="69.47826086956522"/>
      <point x="12.003742733262406" y="-39.0"/>
      <point x="-31.650352188343355" y="-170.0" type="curve" smooth="yes"/>
      <point x="-34.31625111485363" y="-178.0"/>
      <point x="-33.31596321229498" y="-181.0"/>
      <point x="-29.31538740717769" y="-187.0" type="curve" smooth="yes"/>
      <point x="-11.979558918336082" y="-213.0"/>
      <point x="37.021592691898505" y="-225.0"/>
      <point x="85.0215926918985" y="-225.0" type="curve" smooth="yes"/>
    </contour>
    <contour>
      <point x="676.2883245666649" y="469.0"/>
      <point x="618.6129248557193" y="560.0"/>
      <point x="551.6129248557193" y="560.0" type="curve" smooth="yes"/>
      <point x="492.61292485571926" y="560.0"/>
      <point x="383.6192587120095" y="494.0"/>
      <point x="308.29206729992734" y="430.0" type="curve" smooth="yes"/>
      <point x="267.62875949644484" y="395.0"/>
      <point x="258.62991110667946" y="383.0"/>
      <point x="236.96948232878344" y="318.0" type="curve"/>
      <point x="346.96314847249323" y="384.0"/>
      <point x="415.29494632551376" y="400.0"/>
      <point x="488.2949463255138" y="400.0" type="curve"/>
      <point x="536.2949463255138" y="400.0"/>
      <point x="550.631062716914" y="371.0"/>
      <point x="574.3018559869213" y="328.0" type="curve"/>
      <point x="607.3018559869213" y="328.0"/>
      <point x="639.6322143271486" y="359.0"/>
      <point x="647.2966737408657" y="382.0" type="curve" smooth="yes"/>
    </contour>
    <contour>
      <point x="303.3352526837243" y="-20.0" type="curve" smooth="yes"/>
      <point x="436.3352526837243" y="-20.0"/>
      <point x="570.3188422378814" y="151.0"/>
      <point x="633.3007043766867" y="340.0" type="curve" smooth="yes"/>
      <point x="647.2966737408657" y="382.0" type="line" smooth="yes"/>
      <point x="661.6258804708584" y="425.0"/>
      <point x="644.9530718829405" y="489.0"/>
      <point x="582.9530718829405" y="489.0" type="curve" smooth="yes"/>
      <point x="533.9530718829405" y="489.0"/>
      <point x="491.62098612736145" y="476.0"/>
      <point x="479.9576783238789" y="441.0" type="curve"/>
      <point x="489.29235520248596" y="427.0"/>
      <point x="490.960845252024" y="408.0"/>
      <point x="475.63192642459" y="362.0" type="curve" smooth="yes"/>
      <point x="468.3007043766867" y="340.0" type="line" smooth="yes"/>
      <point x="424.97984682089475" y="210.0"/>
      <point x="338.65467072672305" y="125.0"/>
      <point x="276.65467072672305" y="125.0" type="curve" smooth="yes"/>
      <point x="249.65467072672305" y="125.0"/>
      <point x="227.65467072672305" y="125.0"/>
      <point x="209.65467072672305" y="125.0" type="curve"/>
      <point x="204.3217212634679" y="121.0"/>
      <point x="202.32200916602656" y="118.0"/>
      <point x="199.6561102395163" y="110.0" type="curve" smooth="yes"/>
      <point x="185.66014087533733" y="68.0"/>
      <point x="227.33525268372432" y="-20.0"/>
    </contour>
  </outline>
</glyph>
<glyph name="v" format="2">
  <advance width="600"/>
  <unicode hex="0076"/>
  <guideline x="-40.0" y="0" angle="178.6305069678644" identifier="7ggL2Xqj1J"/>
  <guideline x="10.0" y="0" angle="178.6305069678644" identifier="wjoLVNRnq2"/>
  <guideline x="60.0" y="0" angle="178.6305069678644" identifier="THr2nn7oVm"/>
  <guideline x="110.0" y="0" angle="178.6305069678644" identifier="E1VwcSUGNZ"/>
  <guideline x="160.0" y="0" angle="178.6305069678644" identifier="mSACLfPcUi"/>
  <guideline x="210.0" y="0" angle="178.6305069678644" identifier="FU2HDXMYQu"/>
  <guideline x="260.0" y="0" angle="178.6305069678644" identifier="g0U9dsWhgj"/>
  <guideline x="310.0" y="0" angle="178.6305069678644" identifier="C5fgsYGlrn"/>
  <guideline x="360.0" y="0" angle="178.6305069678644" identifier="MBQXoYFYsD"/>
  <guideline x="410.0" y="0" angle="178.6305069678644" identifier="5dWExab8wj"/>
  <guideline x="460.0" y="0" angle="178.6305069678644" identifier="yZ22THYwP4"/>
  <guideline x="510.0" y="0" angle="178.6305069678644" identifier="aP0Aag6osY"/>
  <guideline x="560.0" y="0" angle="178.6305069678644" identifier="kL0gnx61YX"/>
  <guideline x="-106.64747316275688" y="-200" angle="180.0" identifier="aRlNKKVeDv"/>
  <guideline x="-89.98560487206767" y="-150" angle="180.0" identifier="pO7UvGAmZ4"/>
  <guideline x="-73.32373658137844" y="-100" angle="180.0" identifier="0yKUAhrSS6"/>
  <guideline x="-56.66186829068922" y="-50" angle="180.0" identifier="mtjxC33TlM"/>
  <guideline x="-40.0" y="0" angle="180.0" identifier="0QQwUgznBl"/>
  <guideline x="-23.33813170931078" y="50" angle="180.0" identifier="w6tYGzB8yR"/>
  <guideline x="-6.676263418621559" y="100" angle="180.0" identifier="wPKMHaSkFT"/>
  <guideline x="9.985604872067668" y="150" angle="180.0" identifier="MXdhDEA7pn"/>
  <guideline x="26.64747316275688" y="200" angle="180.0" identifier="U94Y0DJKXv"/>
  <guideline x="43.30934145344611" y="250" angle="180.0" identifier="h0G4sVuGdP"/>
  <guideline x="59.97120974413534" y="300" angle="180.0" identifier="LQILNlmZOO"/>
  <guideline x="76.63307803482455" y="350" angle="180.0" identifier="u1MJ6UZpXX"/>
  <guideline x="93.29494632551376" y="400" angle="180.0" identifier="0ejrvEuCNh"/>
  <guideline x="109.95681461620299" y="450" angle="180.0" identifier="tFZ3Y7Bd9A"/>
  <guideline x="126.61868290689222" y="500" angle="180.0" identifier="loEqq29wWC"/>
  <guideline x="143.28055119758145" y="550" angle="180.0" identifier="VNE3CIDdlP"/>
  <guideline x="159.94241948827067" y="600" angle="180.0" identifier="TtKdxHuQqd"/>
  <guideline x="176.60428777895987" y="650" angle="180.0" identifier="OKqpIMWvZ0"/>
  <guideline x="193.2661560696491" y="700" angle="180.0" identifier="Hlm6HhyBvb"/>
  <guideline x="209.92802436033833" y="750" angle="180.0" identifier="gNh26WVTzS"/>
  <outline>
    <contour>
      <point x="687.2825665154919" y="529.0"/>
      <point x="628.6129248557193" y="560.0"/>
      <point x="563.6129248557193" y="560.0" type="curve" smooth="yes"/>
      <point x="539.6129248557193" y="560.0" type="line"/>
      <point x="428.0346864243516" y="300.14782948147774"/>
      <point x="362.33358370228274" y="189.02815157933566"/>
      <point x="244.98905970277144" y="114.0" type="curve" smooth="yes"/>
      <point x="210.90832564967735" y="91.89220171870844"/>
      <point x="207.11968113638272" y="-10.0"/>
      <point x="266.66762634186216" y="-10.0" type="curve"/>
      <point x="306.66762634186216" y="-10.0" type="line"/>
      <point x="437.2198632902731" y="75.5284304057771"/>
      <point x="577.0109553343549" y="270.08657578901"/>
      <point x="668.9533597854993" y="486.0" type="curve" smooth="yes"/>
    </contour>
    <contour>
      <point x="348.28170280781603" y="538.0"/>
      <point x="283.61292485571926" y="560.0"/>
      <point x="218.61292485571926" y="560.0" type="curve" smooth="yes"/>
      <point x="194.61292485571929" y="560.0" type="line"/>
      <point x="131.55908575582586" y="300.04341168757776"/>
      <point x="115.32085755579197" y="130.0"/>
      <point x="177.32978253511" y="37.0" type="curve" smooth="yes"/>
      <point x="205.33381317093108" y="-5.0"/>
      <point x="237.66762634186216" y="-10.0"/>
      <point x="266.66762634186216" y="-10.0" type="curve"/>
      <point x="311.29619777043354" y="-10.0"/>
      <point x="341.9997120974414" y="3.0"/>
      <point x="364.9930903385925" y="72.0" type="curve"/>
      <point x="278.6538070190471" y="134.0"/>
      <point x="282.92236585082156" y="246.24757363836272"/>
      <point x="341.95105656503006" y="510.0" type="curve" smooth="yes"/>
    </contour>
  </outline>
</glyph>
<glyph name="w" format="2">
  <advance width="600"/>
  <unicode hex="0077"/>
  <outline>
    <contour>
      <point x="184.61292485571929" y="560.0" type="line"/>
      <point x="80.30962935600476" y="247.0"/>
      <point x="55.65754975230952" y="95.0"/>
      <point x="110.99884838976541" y="12.0" type="curve" smooth="yes"/>
      <point x="120.33352526837243" y="-2.0"/>
      <point x="137.66762634186216" y="-10.0"/>
      <point x="156.66762634186216" y="-10.0" type="curve"/>
      <point x="159.66762634186216" y="-10.0" type="line"/>
      <point x="172.66762634186216" y="-10.0"/>
      <point x="215.99539355906165" y="48.0"/>
      <point x="228.65841345998547" y="86.0" type="curve"/>
      <point x="187.32229706858521" y="115.0"/>
      <point x="211.97984682089475" y="210.0"/>
      <point x="311.95105656503006" y="510.0" type="curve" smooth="yes"/>
      <point x="314.61695549154035" y="518.0"/>
      <point x="313.2834302231679" y="520.0"/>
      <point x="308.9493291496782" y="528.0" type="curve" smooth="yes"/>
      <point x="296.9476017343263" y="546.0"/>
      <point x="253.61292485571926" y="560.0"/>
      <point x="208.61292485571929" y="560.0" type="curve" smooth="yes"/>
    </contour>
    <contour>
      <point x="423.96084525202406" y="408.0"/>
      <point x="400.6258804708584" y="425.0"/>
      <point x="378.6258804708584" y="425.0" type="curve" smooth="yes"/>
      <point x="367.6258804708584" y="425.0" type="line"/>
      <point x="296.6463215525223" y="212.0"/>
      <point x="224.98502906695035" y="156.0"/>
      <point x="135.32805511975815" y="55.0" type="curve"/>
      <point x="123.99827258464813" y="18.0"/>
      <point x="127.66762634186216" y="-10.0"/>
      <point x="156.66762634186216" y="-10.0" type="curve" smooth="yes"/>
      <point x="177.66762634186216" y="-10.0" type="line"/>
      <point x="275.990211313006" y="102.0"/>
      <point x="358.6463215525223" y="212.0"/>
      <point x="412.96401218016916" y="375.0" type="curve" smooth="yes"/>
    </contour>
    <contour>
      <point x="445.0944281009082" y="405.4"/>
      <point x="416.8758804708584" y="425.0"/>
      <point x="378.6258804708584" y="425.0" type="curve" smooth="yes"/>
      <point x="373.6258804708584" y="425.0" type="line"/>
      <point x="295.31509950461907" y="190.0"/>
      <point x="304.65812555742684" y="89.0"/>
      <point x="345.6658989265103" y="8.0" type="curve" smooth="yes"/>
      <point x="351.66705053674485" y="-4.0"/>
      <point x="362.66762634186216" y="-10.0"/>
      <point x="375.66762634186216" y="-10.0" type="curve" smooth="yes"/>
      <point x="399.66762634186216" y="-10.0" type="line" smooth="yes"/>
      <point x="415.66762634186216" y="-10.0"/>
      <point x="434.9976967795308" y="24.0"/>
      <point x="443.6618682906892" y="50.0" type="curve"/>
      <point x="397.99107502068193" y="93.0"/>
      <point x="365.650640090902" y="167.0"/>
      <point x="438.296385838307" y="385.0" type="curve" smooth="yes"/>
    </contour>
    <contour>
      <point x="581.6129248557193" y="560.0" type="line"/>
      <point x="489.63941189111483" y="284.0"/>
      <point x="450.64891267555015" y="185.0"/>
      <point x="358.3254639967303" y="82.0" type="curve"/>
      <point x="342.9971209744135" y="30.0"/>
      <point x="347.66762634186216" y="-10.0"/>
      <point x="388.66762634186216" y="-10.0" type="curve" smooth="yes"/>
      <point x="418.66762634186216" y="-10.0" type="line"/>
      <point x="532.9884838976541" y="120.0"/>
      <point x="612.9729371594872" y="282.0"/>
      <point x="684.2857334436371" y="496.0" type="curve" smooth="yes"/>
      <point x="688.9510565650301" y="510.0"/>
      <point x="689.617243394099" y="515.0"/>
      <point x="686.2834302231679" y="520.0" type="curve" smooth="yes"/>
      <point x="669.6143643685125" y="545.0"/>
      <point x="639.6129248557193" y="560.0"/>
      <point x="605.6129248557193" y="560.0" type="curve" smooth="yes"/>
    </contour>
  </outline>
</glyph>
<glyph name="f.alt1" format="2">
  <advance width="600"/>
  <outline>
    <contour>
      <point x="171.6598529727787" y="71.0" type="line"/>
      <point x="183.66158038813057" y="53.0"/>
      <point x="220.33122204790328" y="22.0"/>
      <point x="281.66762634186216" y="-10.0" type="curve"/>
      <point x="360.6592771676614" y="77.0" type="line"/>
      <point x="341.9913629232406" y="90.0" type="line" smooth="yes"/>
      <point x="311.98934760533007" y="111.0"/>
      <point x="231.32287287370252" y="109.0"/>
      <point x="209.65668604463357" y="104.0" type="curve" smooth="yes"/>
      <point x="198.65697394719223" y="101.0"/>
      <point x="195.99049921556465" y="99.0"/>
      <point x="189.65783765486816" y="92.0" type="curve"/>
    </contour>
    <component base="f" yxScale="0.33323736581378444" xOffset="-40.0"/>
  </outline>
</glyph>
<glyph name="f.alt2" format="2">
  <advance width="600"/>
  <outline>
    <contour>
      <point x="406.9412678780361" y="612.0" type="curve"/>
      <point x="465.6057272917531" y="635.0"/>
      <point x="523.271914120822" y="640.0"/>
      <point x="573.271914120822" y="640.0" type="curve" smooth="yes"/>
      <point x="648.271914120822" y="640.0"/>
      <point x="710.2730657310566" y="628.0"/>
      <point x="735.9409799754774" y="615.0" type="curve"/>
      <point x="739.9409799754774" y="615.0" type="line"/>
      <point x="745.272777828498" y="631.0" type="line"/>
      <point x="762.267883485001" y="682.0"/>
      <point x="766.2632770440626" y="730.0"/>
      <point x="756.5947869945246" y="749.0" type="curve" smooth="yes"/>
      <point x="748.2598222133589" y="766.0"/>
      <point x="705.2589585056829" y="775.0"/>
      <point x="668.2589585056829" y="775.0" type="curve"/>
      <point x="648.2589585056829" y="775.0" type="line"/>
      <point x="575.2589585056829" y="775.0"/>
      <point x="518.5924837740554" y="773.0"/>
      <point x="435.93176709360074" y="711.0" type="curve" smooth="yes"/>
      <point x="399.93435821662854" y="684.0"/>
      <point x="378.6057272917531" y="635.0"/>
    </contour>
    <contour>
      <point x="281.66762634186216" y="-10.0" type="line"/>
      <point x="345.98243794392255" y="183.0"/>
      <point x="386.97063393901806" y="306.0"/>
      <point x="451.6186829068922" y="500.0" type="curve"/>
      <point x="460.2782479771123" y="574.0"/>
      <point x="479.93666143709777" y="660.0"/>
      <point x="501.93032758080744" y="726.0" type="curve"/>
      <point x="481.2627012389453" y="736.0"/>
      <point x="462.5965144098764" y="731.0"/>
      <point x="435.93176709360074" y="711.0" type="curve" smooth="yes"/>
      <point x="373.26961090035286" y="664.0"/>
      <point x="345.9392525601255" y="633.0"/>
      <point x="333.27623265920175" y="595.0" type="curve" smooth="yes"/>
      <point x="284.6235772503892" y="449.0"/>
      <point x="217.30962935600473" y="247.0"/>
      <point x="149.9956814616203" y="45.0" type="curve" smooth="yes"/>
      <point x="147.32978253511" y="37.0"/>
      <point x="148.33007043766867" y="34.0"/>
      <point x="152.33064624278597" y="28.0" type="curve" smooth="yes"/>
      <point x="169.66647473162757" y="2.0"/>
      <point x="208.66762634186216" y="-10.0"/>
      <point x="256.66762634186216" y="-10.0" type="curve" smooth="yes"/>
    </contour>
    <contour>
      <point x="151.61868290689222" y="500.0" type="curve"/>
      <point x="143.28774876154762" y="475.0" type="line"/>
      <point x="126.29264310504459" y="424.0"/>
      <point x="125.62991110667946" y="383.0"/>
      <point x="142.29897696133483" y="358.0" type="curve" smooth="yes"/>
      <point x="146.96631540063834" y="351.0"/>
      <point x="149.63307803482456" y="350.0"/>
      <point x="156.63307803482456" y="350.0" type="curve" smooth="yes"/>
      <point x="206.63307803482456" y="350.0"/>
      <point x="276.63307803482456" y="350.0"/>
      <point x="326.63307803482456" y="350.0" type="curve" smooth="yes"/>
      <point x="356.63307803482456" y="350.0"/>
      <point x="609.6330780348245" y="350.0"/>
      <point x="626.6330780348245" y="350.0" type="curve"/>
      <point x="634.9640121801692" y="375.0" type="line"/>
      <point x="652.292355202486" y="427.0"/>
      <point x="652.6218498350373" y="467.0"/>
      <point x="635.9527839803819" y="492.0" type="curve" smooth="yes"/>
      <point x="631.2854455410784" y="499.0"/>
      <point x="628.6186829068922" y="500.0"/>
      <point x="621.6186829068922" y="500.0" type="curve" smooth="yes"/>
      <point x="558.6186829068922" y="500.0"/>
      <point x="215.61868290689222" y="500.0"/>
    </contour>
    <contour>
      <point x="185.99539355906165" y="48.0"/>
      <point x="220.66762634186216" y="-10.0"/>
      <point x="281.66762634186216" y="-10.0" type="curve"/>
      <point x="319.3320857555792" y="13.0"/>
      <point x="353.32690350952356" y="67.0"/>
      <point x="367.98934760533007" y="111.0" type="curve"/>
      <point x="371.6549586292817" y="122.0" type="line"/>
      <point x="311.6549586292817" y="122.0"/>
      <point x="263.65438282416443" y="128.0"/>
      <point x="237.3185543353228" y="154.0" type="curve"/>
      <point x="228.3185543353228" y="154.0"/>
      <point x="219.65236750625388" y="149.0"/>
      <point x="217.31970594555742" y="142.0" type="curve" smooth="yes"/>
    </contour>
  </outline>
</glyph>
<glyph name="f.italic" format="2">
  <advance width="600"/>
  <outline>
    <contour>
      <point x="436.9412678780361" y="612.0" type="curve"/>
      <point x="492.27248992593934" y="634.0"/>
      <point x="546.271914120822" y="640.0"/>
      <point x="593.271914120822" y="640.0" type="curve" smooth="yes"/>
      <point x="659.4999842962607" y="640.0"/>
      <point x="712.7746500129882" y="626.733025388996"/>
      <point x="735.9409799754774" y="615.0" type="curve"/>
      <point x="739.9409799754774" y="615.0" type="line"/>
      <point x="745.272777828498" y="631.0" type="line"/>
      <point x="762.267883485001" y="682.0"/>
      <point x="766.2632770440626" y="730.0"/>
      <point x="756.5947869945246" y="749.0" type="curve" smooth="yes"/>
      <point x="748.2598222133589" y="766.0"/>
      <point x="705.2589585056829" y="775.0"/>
      <point x="668.2589585056829" y="775.0" type="curve"/>
      <point x="648.2589585056829" y="775.0" type="line"/>
      <point x="586.7249270920704" y="775.0"/>
      <point x="541.6355546012217" y="767.7819275462721"/>
      <point x="465.93176709360074" y="711.0" type="curve" smooth="yes"/>
      <point x="429.93435821662854" y="684.0"/>
      <point x="408.6057272917531" y="635.0"/>
    </contour>
    <contour>
      <point x="305.0028790255865" y="-30.0" type="line"/>
      <point x="371.65035218834333" y="170.0"/>
      <point x="414.30473501250776" y="298.0"/>
      <point x="481.6186829068922" y="500.0" type="curve"/>
      <point x="505.2785358796709" y="571.0"/>
      <point x="534.9366614370978" y="660.0"/>
      <point x="556.9303275808074" y="726.0" type="curve"/>
      <point x="528.5956507022005" y="740.0"/>
      <point x="497.92946387313157" y="735.0"/>
      <point x="465.93176709360074" y="711.0" type="curve" smooth="yes"/>
      <point x="403.26961090035286" y="664.0"/>
      <point x="375.9392525601255" y="633.0"/>
      <point x="363.27623265920175" y="595.0" type="curve" smooth="yes"/>
      <point x="312.95739042132027" y="444.0"/>
      <point x="242.97754360042558" y="234.0"/>
      <point x="173.3309341453446" y="25.0" type="curve" smooth="yes"/>
      <point x="170.66503521883433" y="17.0"/>
      <point x="171.665323121393" y="14.0"/>
      <point x="175.66589892651027" y="8.0" type="curve" smooth="yes"/>
      <point x="193.00172741535187" y="-18.0"/>
      <point x="232.00287902558648" y="-30.0"/>
      <point x="280.0028790255865" y="-30.0" type="curve" smooth="yes"/>
    </contour>
    <contour>
      <point x="151.61868290689222" y="500.0" type="curve"/>
      <point x="143.28774876154762" y="475.0" type="line"/>
      <point x="126.29264310504459" y="424.0"/>
      <point x="125.62991110667946" y="383.0"/>
      <point x="142.29897696133483" y="358.0" type="curve" smooth="yes"/>
      <point x="146.96631540063834" y="351.0"/>
      <point x="149.63307803482456" y="350.0"/>
      <point x="156.63307803482456" y="350.0" type="curve" smooth="yes"/>
      <point x="206.63307803482456" y="350.0"/>
      <point x="276.63307803482456" y="350.0"/>
      <point x="326.63307803482456" y="350.0" type="curve" smooth="yes"/>
      <point x="356.63307803482456" y="350.0"/>
      <point x="609.6330780348245" y="350.0"/>
      <point x="626.6330780348245" y="350.0" type="curve"/>
      <point x="634.9640121801692" y="375.0" type="line"/>
      <point x="652.292355202486" y="427.0"/>
      <point x="652.6218498350373" y="467.0"/>
      <point x="635.9527839803819" y="492.0" type="curve" smooth="yes"/>
      <point x="631.2854455410784" y="499.0"/>
      <point x="628.6186829068922" y="500.0"/>
      <point x="621.6186829068922" y="500.0" type="curve" smooth="yes"/>
      <point x="558.6186829068922" y="500.0"/>
      <point x="215.61868290689222" y="500.0"/>
    </contour>
    <contour>
      <point x="116.67626341862155" y="-100.0" type="curve" smooth="yes"/>
      <point x="31.167976125803875" y="-100.0"/>
      <point x="-4.244003449214318" y="-92.08497350389754"/>
      <point x="-69.32805511975815" y="-55.0" type="curve"/>
      <point x="-73.32805511975815" y="-55.0" type="line"/>
      <point x="-88.99021131300601" y="-102.0" type="line"/>
      <point x="-109.65092799346064" y="-164.0"/>
      <point x="-100.98128633368796" y="-195.0"/>
      <point x="-91.64660945508095" y="-209.0" type="curve" smooth="yes"/>
      <point x="-73.17895590063766" y="-236.69749324207868"/>
      <point x="-31.732021865817245" y="-250.0"/>
      <point x="11.690658546553891" y="-250.0" type="curve" smooth="yes"/>
      <point x="21.69065854655389" y="-250.0" type="line" smooth="yes"/>
      <point x="88.69065854655389" y="-250.0"/>
      <point x="99.6895069363193" y="-238.0"/>
      <point x="166.35137522700853" y="-188.0" type="curve" smooth="yes"/>
      <point x="206.34849620142205" y="-158.0"/>
      <point x="238.3438897604837" y="-110.0"/>
      <point x="254.67252068535913" y="-61.0" type="curve"/>
      <point x="207.00834917420076" y="-87.0"/>
      <point x="172.67626341862155" y="-100.0"/>
    </contour>
    <contour>
      <point x="315.0" y="0.0" type="curve" smooth="yes"/>
      <point x="327.9962572667376" y="39.0"/>
      <point x="340.9925145334752" y="78.0"/>
      <point x="353.98877180021276" y="117.0" type="curve"/>
      <point x="203.9887718002128" y="117.0" type="line"/>
      <point x="190.99251453347517" y="78.0"/>
      <point x="177.9962572667376" y="39.0"/>
      <point x="165.0" y="0.0" type="curve" smooth="yes"/>
      <point x="136.34158654001453" y="-86.0"/>
      <point x="113.34590507839425" y="-131.0"/>
      <point x="47.35281473980176" y="-203.0" type="curve"/>
      <point x="76.68749161840877" y="-217.0"/>
      <point x="126.35425425259501" y="-218.0"/>
      <point x="166.35137522700853" y="-188.0" type="curve" smooth="yes"/>
      <point x="263.6777029314148" y="-115.0"/>
      <point x="289.3407228323386" y="-77.0"/>
    </contour>
  </outline>
</glyph>
<glyph name="f.ss01" format="2">
  <advance width="600"/>
  <outline>
    <contour>
      <point x="381.9412678780361" y="612.0" type="curve"/>
      <point x="447.60543938919443" y="638.0"/>
      <point x="515.271914120822" y="640.0"/>
      <point x="573.271914120822" y="640.0" type="curve" smooth="yes"/>
      <point x="639.271914120822" y="640.0"/>
      <point x="691.9398283652429" y="627.0"/>
      <point x="714.9409799754774" y="615.0" type="curve"/>
      <point x="739.9409799754774" y="615.0" type="line"/>
      <point x="748.271914120822" y="640.0" type="line"/>
      <point x="763.9340703140699" y="687.0"/>
      <point x="765.5965144098764" y="731.0"/>
      <point x="756.5947869945246" y="749.0" type="curve" smooth="yes"/>
      <point x="748.5933474817314" y="764.0"/>
      <point x="717.2589585056829" y="775.0"/>
      <point x="688.2589585056829" y="775.0" type="curve"/>
      <point x="598.2589585056829" y="775.0" type="line"/>
      <point x="534.2589585056829" y="775.0"/>
      <point x="482.9265848475451" y="765.0"/>
      <point x="410.93176709360074" y="711.0" type="curve" smooth="yes"/>
      <point x="374.93435821662854" y="684.0"/>
      <point x="353.6057272917531" y="635.0"/>
    </contour>
    <contour>
      <point x="268.3309341453446" y="25.0" type="line"/>
      <point x="334.6451699422877" y="224.0"/>
      <point x="376.63307803482456" y="350.0"/>
      <point x="443.2805511975814" y="550.0" type="curve" smooth="yes"/>
      <point x="450.94501061129847" y="573.0"/>
      <point x="467.267883485001" y="682.0"/>
      <point x="485.2627012389453" y="736.0" type="curve"/>
      <point x="461.92831226289695" y="747.0"/>
      <point x="445.5959386047591" y="737.0"/>
      <point x="410.93176709360074" y="711.0" type="curve" smooth="yes"/>
      <point x="348.26961090035286" y="664.0"/>
      <point x="320.9392525601255" y="633.0"/>
      <point x="308.27623265920175" y="595.0" type="curve"/>
      <point x="262.6227135427133" y="458.0"/>
      <point x="199.64085140390802" y="269.0"/>
      <point x="136.65898926510275" y="80.0" type="curve" smooth="yes"/>
      <point x="133.99309033859248" y="72.0"/>
      <point x="134.99337824115113" y="69.0"/>
      <point x="138.9939540462684" y="63.0" type="curve" smooth="yes"/>
      <point x="156.32978253511" y="37.0"/>
      <point x="195.3309341453446" y="25.0"/>
      <point x="243.3309341453446" y="25.0" type="curve" smooth="yes"/>
    </contour>
    <contour>
      <point x="168.28055119758145" y="550.0" type="curve"/>
      <point x="159.94961705223682" y="525.0" type="line"/>
      <point x="142.95451139573382" y="474.0"/>
      <point x="142.29177939736866" y="433.0"/>
      <point x="158.96084525202406" y="408.0" type="curve" smooth="yes"/>
      <point x="163.62818369132756" y="401.0"/>
      <point x="166.29494632551376" y="400.0"/>
      <point x="173.29494632551376" y="400.0" type="curve" smooth="yes"/>
      <point x="216.29494632551376" y="400.0"/>
      <point x="275.29494632551376" y="400.0"/>
      <point x="318.29494632551376" y="400.0" type="curve" smooth="yes"/>
      <point x="348.29494632551376" y="400.0"/>
      <point x="601.2949463255138" y="400.0"/>
      <point x="618.2949463255138" y="400.0" type="curve"/>
      <point x="626.6258804708584" y="425.0" type="line"/>
      <point x="643.9542234931752" y="477.0"/>
      <point x="644.2837181257265" y="517.0"/>
      <point x="627.6146522710711" y="542.0" type="curve" smooth="yes"/>
      <point x="622.9473138317676" y="549.0"/>
      <point x="620.2805511975814" y="550.0"/>
      <point x="613.2805511975814" y="550.0" type="curve" smooth="yes"/>
      <point x="553.2805511975814" y="550.0"/>
      <point x="229.28055119758142" y="550.0"/>
    </contour>
    <contour>
      <point x="59.98560487206767" y="150.0" type="curve"/>
      <point x="51.654670726723054" y="125.0" type="line"/>
      <point x="34.659565070220054" y="74.0"/>
      <point x="33.996833071854894" y="33.0"/>
      <point x="50.66589892651028" y="8.0" type="curve" smooth="yes"/>
      <point x="55.33323736581379" y="1.0"/>
      <point x="58.0" y="0.0"/>
      <point x="65.0" y="0.0" type="curve" smooth="yes"/>
      <point x="113.0" y="0.0"/>
      <point x="162.0" y="0.0"/>
      <point x="210.0" y="0.0" type="curve" smooth="yes"/>
      <point x="300.0" y="0.0"/>
      <point x="370.0" y="0.0"/>
      <point x="460.0" y="0.0" type="curve"/>
      <point x="468.3309341453446" y="25.0" type="line"/>
      <point x="478.3280551197581" y="55.0"/>
      <point x="468.6558223369576" y="113.0"/>
      <point x="449.3197059455574" y="142.0" type="curve" smooth="yes"/>
      <point x="444.6523675062539" y="149.0"/>
      <point x="441.98560487206765" y="150.0"/>
      <point x="434.98560487206765" y="150.0" type="curve" smooth="yes"/>
      <point x="301.98560487206765" y="150.0"/>
      <point x="192.98560487206765" y="150.0"/>
    </contour>
  </outline>
</glyph>
<glyph name="g.ver02" format="2">
  <advance width="600"/>
  <outline>
    <contour>
      <point x="433.9576783238789" y="441.0" type="curve" smooth="yes"/>
      <point x="477.9576783238789" y="441.0"/>
      <point x="502.2917793973686" y="433.0"/>
      <point x="531.2926431050446" y="424.0" type="curve"/>
      <point x="588.2871729564304" y="481.0"/>
      <point x="602.9516323701473" y="504.0"/>
      <point x="589.616379686423" y="524.0" type="curve" smooth="yes"/>
      <point x="577.1655913465936" y="542.6734944363305"/>
      <point x="526.9452985138571" y="570.0"/>
      <point x="458.9452985138571" y="570.0" type="curve" smooth="yes"/>
      <point x="307.9452985138571" y="570.0"/>
      <point x="186.951920272706" y="501.0"/>
      <point x="143.29782535110024" y="370.0" type="curve" smooth="yes"/>
      <point x="134.96689120575564" y="345.0" type="line" smooth="yes"/>
      <point x="120.6198778989637" y="301.9465648854962"/>
      <point x="119.30761403809424" y="268.0"/>
      <point x="161.98042262601203" y="204.0" type="curve" smooth="yes"/>
      <point x="176.64920057810878" y="182.0"/>
      <point x="225.9809984311293" y="198.0"/>
      <point x="261.64488203972905" y="227.0" type="curve"/>
      <point x="257.30790194065287" y="265.0"/>
      <point x="260.97264925692855" y="285.0"/>
      <point x="278.96746701087295" y="339.0" type="curve" smooth="yes"/>
      <point x="281.96660330319696" y="348.0" type="line" smooth="yes"/>
      <point x="305.9596936417895" y="420.0"/>
      <point x="348.9576783238789" y="441.0"/>
    </contour>
    <contour>
      <point x="350.3064624278596" y="280.0" type="curve" smooth="yes"/>
      <point x="291.3064624278596" y="280.0"/>
      <point x="205.97264925692855" y="285.0"/>
      <point x="169.97120974413534" y="300.0" type="curve"/>
      <point x="146.97437667228044" y="267.0"/>
      <point x="144.31106886879797" y="232.0"/>
      <point x="161.98042262601203" y="204.0" type="curve" smooth="yes"/>
      <point x="197.65645431549862" y="150.4936547726175"/>
      <point x="257.98560487206765" y="150.0"/>
      <point x="328.98560487206765" y="150.0" type="curve" smooth="yes"/>
      <point x="466.98560487206765" y="150.0"/>
      <point x="564.6451699422877" y="224.0"/>
      <point x="603.3007043766867" y="340.0" type="curve" smooth="yes"/>
      <point x="611.6316385220314" y="365.0" type="line" smooth="yes"/>
      <point x="630.4785598758083" y="421.5570469798658"/>
      <point x="631.7856256032532" y="460.7552352895455"/>
      <point x="589.616379686423" y="524.0" type="curve" smooth="yes"/>
      <point x="574.9476017343263" y="546.0"/>
      <point x="519.2814149052574" y="541.0"/>
      <point x="502.61695549154035" y="518.0" type="curve"/>
      <point x="499.6227135427133" y="458.0"/>
      <point x="496.6244409580652" y="440.0"/>
      <point x="474.29753744854156" y="373.0" type="curve"/>
      <point x="470.2986890587762" y="361.0" type="line" smooth="yes"/>
      <point x="452.30387130483183" y="307.0"/>
      <point x="413.3064624278596" y="280.0"/>
    </contour>
    <contour>
      <point x="48.99596936417895" y="42.0" type="curve" smooth="yes"/>
      <point x="47.663019900923814" y="38.0" type="line" smooth="yes"/>
      <point x="27.668777952096747" y="-22.0"/>
      <point x="74.00575805117293" y="-60.0"/>
      <point x="163.00575805117293" y="-60.0" type="curve"/>
      <point x="351.00575805117296" y="-60.0" type="line"/>
      <point x="361.00575805117296" y="-60.0"/>
      <point x="364.67309649047644" y="-67.0"/>
      <point x="361.3407228323386" y="-77.0" type="curve"/>
      <point x="347.01151610234587" y="-120.0" type="line"/>
      <point x="337.01439512793235" y="-150.0"/>
      <point x="327.6837488851464" y="-178.0"/>
      <point x="319.019577373988" y="-204.0" type="curve"/>
      <point x="341.019577373988" y="-204.0"/>
      <point x="407.01813786119476" y="-189.0"/>
      <point x="425.68346098258775" y="-175.0" type="curve" smooth="yes"/>
      <point x="476.3464808835115" y="-137.0"/>
      <point x="499.343601857925" y="-107.0"/>
      <point x="515.005758051173" y="-60.0" type="curve" smooth="yes"/>
      <point x="525.669353757214" y="-28.0" type="line" smooth="yes"/>
      <point x="545.3303583402273" y="31.0"/>
      <point x="512.9928024360338" y="75.0"/>
      <point x="451.99280243603386" y="75.0" type="curve" smooth="yes"/>
      <point x="226.99280243603386" y="75.0" type="line" smooth="yes"/>
      <point x="213.99280243603383" y="75.0"/>
      <point x="211.32575189928897" y="79.0"/>
      <point x="215.65783765486816" y="92.0" type="curve" smooth="yes"/>
      <point x="226.98790809253683" y="126.0" type="line"/>
      <point x="231.6532312139298" y="140.0"/>
      <point x="240.9838774567158" y="168.0"/>
      <point x="246.31567530973632" y="184.0" type="curve"/>
      <point x="248.31509950461907" y="190.0"/>
      <point x="250.64776106531554" y="197.0"/>
      <point x="252.64718526019823" y="203.0" type="curve"/>
      <point x="194.64718526019823" y="203.0"/>
      <point x="75.32172126346791" y="121.0"/>
    </contour>
    <contour>
      <point x="484.34158654001453" y="-86.0" type="curve"/>
      <point x="381.01381932281504" y="-144.0"/>
      <point x="322.01439512793235" y="-150.0"/>
      <point x="245.01439512793235" y="-150.0" type="curve"/>
      <point x="176.01439512793235" y="-150.0" type="line"/>
      <point x="117.01439512793235" y="-150.0"/>
      <point x="101.01266771258045" y="-132.0"/>
      <point x="116.67482390582833" y="-85.0" type="curve" smooth="yes"/>
      <point x="118.34101073489725" y="-80.0" type="line" smooth="yes"/>
      <point x="123.67280858791779" y="-64.0"/>
      <point x="136.33813170931077" y="-50.0"/>
      <point x="152.33726800163484" y="-41.0" type="curve"/>
      <point x="155.3364042939589" y="-32.0"/>
      <point x="150.3358284888416" y="-26.0"/>
      <point x="143.3358284888416" y="-26.0" type="curve"/>
      <point x="53.3358284888416" y="-26.0"/>
      <point x="-13.32661560696491" y="-70.0"/>
      <point x="-34.32056965323333" y="-133.0" type="curve" smooth="yes"/>
      <point x="-36.98646857974361" y="-141.0" type="line" smooth="yes"/>
      <point x="-58.313659991825816" y="-205.0"/>
      <point x="-5.309341453446109" y="-250.0"/>
      <point x="89.69065854655389" y="-250.0" type="curve"/>
      <point x="156.6906585465539" y="-250.0" type="line"/>
      <point x="258.6906585465539" y="-250.0"/>
      <point x="349.688931131202" y="-232.0"/>
      <point x="425.68346098258775" y="-175.0" type="curve"/>
      <point x="471.0135314202564" y="-141.0"/>
      <point x="495.6765513211802" y="-103.0"/>
    </contour>
    <contour>
      <point x="576.6186829068922" y="500.0" type="curve" smooth="yes"/>
      <point x="680.9461622215331" y="561.0" type="line" smooth="yes"/>
      <point x="713.2776721719949" y="580.0"/>
      <point x="734.9424194882706" y="600.0"/>
      <point x="742.9401162678015" y="624.0" type="curve" smooth="yes"/>
      <point x="745.6060151943118" y="632.0"/>
      <point x="748.9383888524496" y="642.0"/>
      <point x="752.6039998764013" y="653.0" type="curve"/>
      <point x="755.2698988029115" y="661.0"/>
      <point x="754.2696109003529" y="664.0"/>
      <point x="750.2690350952356" y="670.0" type="curve" smooth="yes"/>
      <point x="732.9332066063939" y="696.0"/>
      <point x="683.9320549961594" y="708.0"/>
      <point x="635.9320549961594" y="708.0" type="curve" smooth="yes"/>
      <point x="620.9320549961594" y="708.0" type="line"/>
      <point x="615.9334945089527" y="693.0"/>
      <point x="611.2681713875596" y="679.0"/>
      <point x="606.2696109003529" y="664.0" type="curve" smooth="yes"/>
      <point x="599.9381009498909" y="645.0"/>
      <point x="593.9392525601255" y="633.0"/>
      <point x="585.2742173412912" y="616.0" type="curve" smooth="yes"/>
      <point x="530.2845818334025" y="508.0" type="line"/>
      <point x="540.6189708094508" y="497.0"/>
      <point x="561.9527839803819" y="492.0"/>
    </contour>
  </outline>
</glyph>
<glyph name="h.alt1" format="2">
  <advance width="600"/>
  <outline>
    <contour>
      <point x="380.6598529727787" y="71.0" type="line"/>
      <point x="392.6615803881306" y="53.0"/>
      <point x="429.3312220479033" y="22.0"/>
      <point x="490.66762634186216" y="-10.0" type="curve"/>
      <point x="574.9919387283579" y="84.0" type="line"/>
      <point x="556.3240244839371" y="97.0" type="line" smooth="yes"/>
      <point x="524.6552465318404" y="119.0"/>
      <point x="456.9876201899782" y="129.0"/>
      <point x="436.3214333609093" y="124.0" type="curve" smooth="yes"/>
      <point x="425.3217212634679" y="121.0"/>
      <point x="422.65524653184036" y="119.0"/>
      <point x="416.32258497114384" y="112.0" type="curve"/>
    </contour>
    <contour>
      <point x="388.2681713875596" y="679.0" type="line"/>
      <point x="376.26644397220775" y="697.0"/>
      <point x="339.5968023124351" y="728.0"/>
      <point x="278.26039801847617" y="760.0" type="curve"/>
      <point x="205.26817138755962" y="679.0" type="line"/>
      <point x="223.9360856319804" y="666.0" type="line" smooth="yes"/>
      <point x="256.27162621826335" y="643.0"/>
      <point x="312.9404041703601" y="621.0"/>
      <point x="332.60659099942905" y="626.0" type="curve" smooth="yes"/>
      <point x="343.6063030968704" y="629.0"/>
      <point x="346.27277782849796" y="631.0"/>
      <point x="352.60543938919443" y="638.0" type="curve"/>
    </contour>
    <component base="h" yxScale="0.33323736581378444" xOffset="-40.0"/>
  </outline>
</glyph>
<glyph name="l.ss01" format="2">
  <advance width="600"/>
  <outline>
    <contour>
      <point x="259.9280243603383" y="750.0" type="curve"/>
      <point x="251.59709021499373" y="725.0" type="line"/>
      <point x="235.60169665593207" y="677.0"/>
      <point x="233.27248992593934" y="634.0"/>
      <point x="250.6083184147809" y="608.0" type="curve" smooth="yes"/>
      <point x="254.60889421989822" y="602.0"/>
      <point x="256.9424194882707" y="600.0"/>
      <point x="264.9424194882707" y="600.0" type="curve" smooth="yes"/>
      <point x="307.9424194882707" y="600.0"/>
      <point x="341.9424194882707" y="600.0"/>
      <point x="384.9424194882707" y="600.0" type="curve" smooth="yes"/>
      <point x="414.9424194882707" y="600.0"/>
      <point x="442.9424194882707" y="600.0"/>
      <point x="459.9424194882707" y="600.0" type="curve"/>
      <point x="468.2733536336153" y="625.0" type="line"/>
      <point x="484.268747192677" y="673.0"/>
      <point x="487.2647165568559" y="715.0"/>
      <point x="469.26212543382803" y="742.0" type="curve" smooth="yes"/>
      <point x="465.2615496287108" y="748.0"/>
      <point x="462.9280243603383" y="750.0"/>
      <point x="454.9280243603383" y="750.0" type="curve" smooth="yes"/>
      <point x="394.9280243603383" y="750.0"/>
      <point x="320.9280243603383" y="750.0"/>
    </contour>
    <contour>
      <point x="359.9971209744135" y="30.0" type="line"/>
      <point x="440.30732613553556" y="271.0"/>
      <point x="521.2840060282851" y="514.0"/>
      <point x="584.932342898718" y="705.0" type="curve"/>
      <point x="587.5982418252283" y="713.0"/>
      <point x="586.5979539226696" y="716.0"/>
      <point x="582.5973781175524" y="722.0" type="curve" smooth="yes"/>
      <point x="573.2627012389453" y="736.0"/>
      <point x="522.9280243603383" y="750.0"/>
      <point x="474.9280243603383" y="750.0" type="curve" smooth="yes"/>
      <point x="449.9280243603383" y="750.0" type="line"/>
      <point x="399.27594475664307" y="598.0"/>
      <point x="330.6290473990035" y="392.0"/>
      <point x="263.31509950461907" y="190.0" type="curve" smooth="yes"/>
      <point x="251.65179170113657" y="155.0"/>
      <point x="239.98848389765413" y="120.0"/>
      <point x="228.3251760941717" y="85.0" type="curve" smooth="yes"/>
      <point x="225.6592771676614" y="77.0"/>
      <point x="226.65956507022003" y="74.0"/>
      <point x="230.66014087533733" y="68.0" type="curve" smooth="yes"/>
      <point x="247.99596936417896" y="42.0"/>
      <point x="286.9971209744135" y="30.0"/>
      <point x="334.9971209744135" y="30.0" type="curve" smooth="yes"/>
    </contour>
    <contour>
      <point x="59.98560487206767" y="150.0" type="curve"/>
      <point x="51.654670726723054" y="125.0" type="line"/>
      <point x="35.6592771676614" y="77.0"/>
      <point x="33.33007043766867" y="34.0"/>
      <point x="50.66589892651028" y="8.0" type="curve" smooth="yes"/>
      <point x="54.666474731627574" y="2.0"/>
      <point x="57.0" y="0.0"/>
      <point x="65.0" y="0.0" type="curve" smooth="yes"/>
      <point x="113.0" y="0.0"/>
      <point x="162.0" y="0.0"/>
      <point x="210.0" y="0.0" type="curve" smooth="yes"/>
      <point x="300.0" y="0.0"/>
      <point x="445.0" y="0.0"/>
      <point x="535.0" y="0.0" type="curve"/>
      <point x="543.3309341453446" y="25.0" type="line"/>
      <point x="554.994241948827" y="60.0"/>
      <point x="546.9896355078887" y="108.0"/>
      <point x="524.3197059455574" y="142.0" type="curve" smooth="yes"/>
      <point x="520.31913014044" y="148.0"/>
      <point x="517.9856048720677" y="150.0"/>
      <point x="509.9856048720677" y="150.0" type="curve" smooth="yes"/>
      <point x="376.98560487206765" y="150.0"/>
      <point x="192.98560487206765" y="150.0"/>
    </contour>
  </outline>
</glyph>
<glyph name="m.alt2" format="2">
  <advance width="600"/>
  <outline>
    <contour>
      <point x="131.66762634186216" y="-10.0" type="line"/>
      <point x="176.65467072672305" y="125.0"/>
      <point x="221.30847774577018" y="259.0"/>
      <point x="266.29552213063107" y="394.0" type="curve"/>
      <point x="300.9522081752647" y="498.0" type="line" smooth="yes"/>
      <point x="302.95163237014737" y="504.0"/>
      <point x="302.617243394099" y="515.0"/>
      <point x="294.61609178386436" y="527.0" type="curve" smooth="yes"/>
      <point x="277.947025929209" y="552.0"/>
      <point x="236.61292485571926" y="560.0"/>
      <point x="206.61292485571929" y="560.0" type="curve" smooth="yes"/>
      <point x="196.61292485571929" y="560.0" type="line"/>
      <point x="156.95767832387892" y="441.0"/>
      <point x="116.30271969459722" y="319.0"/>
      <point x="76.64747316275688" y="200.0" type="curve" smooth="yes"/>
      <point x="59.65236750625388" y="149.0"/>
      <point x="41.99078711812331" y="96.0"/>
      <point x="24.995681461620308" y="45.0" type="curve" smooth="yes"/>
      <point x="22.329782535110027" y="37.0"/>
      <point x="23.330070437668667" y="34.0"/>
      <point x="27.33064624278596" y="28.0" type="curve" smooth="yes"/>
      <point x="44.666474731627574" y="2.0"/>
      <point x="68.66762634186216" y="-10.0"/>
      <point x="116.66762634186216" y="-10.0" type="curve" smooth="yes"/>
    </contour>
    <contour>
      <point x="424.9464501240917" y="558.0" type="curve" smooth="yes"/>
      <point x="402.9464501240917" y="558.0"/>
      <point x="373.2811270026987" y="544.0"/>
      <point x="343.94990495479544" y="522.0" type="curve" smooth="yes"/>
      <point x="291.9536476880579" y="483.0"/>
      <point x="241.29293100760322" y="421.0"/>
      <point x="231.63048691179677" y="377.0" type="curve"/>
      <point x="277.29437052039646" y="406.0"/>
      <point x="312.9611331545827" y="405.0"/>
      <point x="354.9611331545827" y="405.0" type="curve" smooth="yes"/>
      <point x="372.9611331545827" y="405.0"/>
      <point x="384.96142105714137" y="402.0"/>
      <point x="390.29552213063107" y="394.0" type="curve"/>
      <point x="414.2937947152792" y="412.0"/>
      <point x="451.95911783667214" y="426.0"/>
      <point x="458.6238651529479" y="446.0" type="curve" smooth="yes"/>
      <point x="480.2842939308439" y="511.0"/>
      <point x="454.9464501240917" y="558.0"/>
    </contour>
    <contour>
      <point x="310.0" y="0.0" type="line"/>
      <point x="362.3182664327642" y="157.0"/>
      <point x="406.3055987201837" y="289.0"/>
      <point x="458.6238651529479" y="446.0" type="curve"/>
      <point x="471.95335978549923" y="486.0"/>
      <point x="458.2842939308439" y="511.0"/>
      <point x="380.2842939308439" y="511.0" type="curve"/>
      <point x="340.6290473990035" y="392.0"/>
      <point x="316.3027196945972" y="319.0"/>
      <point x="276.6474731627569" y="200.0" type="curve" smooth="yes"/>
      <point x="259.6523675062539" y="149.0"/>
      <point x="239.324888191613" y="88.0"/>
      <point x="222.32978253511004" y="37.0" type="curve" smooth="yes"/>
      <point x="219.66388360859975" y="29.0"/>
      <point x="220.66417151115837" y="26.0"/>
      <point x="224.66474731627568" y="20.0" type="curve" smooth="yes"/>
      <point x="236.66647473162755" y="2.0"/>
      <point x="268.0" y="0.0"/>
      <point x="295.0" y="0.0" type="curve" smooth="yes"/>
    </contour>
    <contour>
      <point x="609.6129248557193" y="560.0" type="curve" smooth="yes"/>
      <point x="583.6129248557193" y="560.0"/>
      <point x="548.947889636885" y="543.0"/>
      <point x="516.9501928573541" y="519.0" type="curve" smooth="yes"/>
      <point x="463.6206982248027" y="479.0"/>
      <point x="413.2932189101619" y="418.0"/>
      <point x="409.96401218016916" y="375.0" type="curve"/>
      <point x="449.29494632551376" y="400.0"/>
      <point x="474.96113315458274" y="405.0"/>
      <point x="509.96113315458274" y="405.0" type="curve" smooth="yes"/>
      <point x="540.9611331545827" y="405.0"/>
      <point x="559.6293353015622" y="389.0"/>
      <point x="581.6316385220314" y="365.0" type="curve"/>
      <point x="612.6296232041208" y="386.0"/>
      <point x="646.2940826178378" y="409.0"/>
      <point x="655.29149149481" y="436.0" type="curve" smooth="yes"/>
      <point x="671.2868850538716" y="484.0"/>
      <point x="649.6129248557193" y="560.0"/>
    </contour>
    <contour>
      <point x="506.66762634186216" y="-10.0" type="line"/>
      <point x="558.9858927746263" y="147.0"/>
      <point x="602.9732250620459" y="279.0"/>
      <point x="655.29149149481" y="436.0" type="curve"/>
      <point x="673.9527839803819" y="492.0"/>
      <point x="620.2842939308439" y="511.0"/>
      <point x="555.2842939308439" y="511.0" type="curve"/>
      <point x="515.6290473990035" y="392.0"/>
      <point x="491.3027196945973" y="319.0"/>
      <point x="451.6474731627569" y="200.0" type="curve" smooth="yes"/>
      <point x="434.6523675062539" y="149.0"/>
      <point x="416.9907871181233" y="96.0"/>
      <point x="399.9956814616203" y="45.0" type="curve" smooth="yes"/>
      <point x="397.32978253511004" y="37.0"/>
      <point x="398.33007043766867" y="34.0"/>
      <point x="402.330646242786" y="28.0" type="curve" smooth="yes"/>
      <point x="419.66647473162755" y="2.0"/>
      <point x="443.66762634186216" y="-10.0"/>
      <point x="491.66762634186216" y="-10.0" type="curve" smooth="yes"/>
    </contour>
    <contour>
      <point x="294.95105656503006" y="510.0"/>
      <point x="257.61292485571926" y="560.0"/>
      <point x="196.61292485571929" y="560.0" type="curve"/>
      <point x="161.6149401736298" y="539.0"/>
      <point x="129.28573344363707" y="496.0"/>
      <point x="116.95595090852706" y="459.0" type="curve"/>
      <point x="113.29033988457542" y="448.0" type="line"/>
      <point x="173.29033988457542" y="448.0"/>
      <point x="221.29091568969272" y="442.0"/>
      <point x="247.6267441785343" y="416.0" type="curve"/>
      <point x="256.6267441785343" y="416.0"/>
      <point x="265.2929310076032" y="421.0"/>
      <point x="267.62559256829974" y="428.0" type="curve" smooth="yes"/>
    </contour>
    <contour>
      <point x="410.99539355906165" y="48.0"/>
      <point x="445.66762634186216" y="-10.0"/>
      <point x="506.66762634186216" y="-10.0" type="curve"/>
      <point x="544.3320857555792" y="13.0"/>
      <point x="578.3269035095235" y="67.0"/>
      <point x="592.9893476053301" y="111.0" type="curve"/>
      <point x="596.6549586292817" y="122.0" type="line"/>
      <point x="536.6549586292817" y="122.0"/>
      <point x="488.6543828241644" y="128.0"/>
      <point x="462.3185543353228" y="154.0" type="curve"/>
      <point x="453.3185543353228" y="154.0"/>
      <point x="444.6523675062539" y="149.0"/>
      <point x="442.3197059455574" y="142.0" type="curve" smooth="yes"/>
    </contour>
  </outline>
</glyph>
<glyph name="p.alt2" format="2">
  <advance width="600"/>
  <outline>
    <contour>
      <point x="110.02159269189849" y="-225.0" type="line"/>
      <point x="194.99712097441352" y="30.0"/>
      <point x="271.64171511158395" y="260.0"/>
      <point x="356.617243394099" y="515.0" type="curve"/>
      <point x="359.2831423206093" y="523.0"/>
      <point x="358.28285441805065" y="526.0"/>
      <point x="354.2822786129333" y="532.0" type="curve" smooth="yes"/>
      <point x="344.9476017343263" y="546.0"/>
      <point x="284.61292485571926" y="560.0"/>
      <point x="236.61292485571926" y="560.0" type="curve" smooth="yes"/>
      <point x="211.61292485571929" y="560.0" type="line"/>
      <point x="171.95767832387892" y="441.0"/>
      <point x="131.30271969459722" y="319.0"/>
      <point x="91.64747316275688" y="200.0" type="curve" smooth="yes"/>
      <point x="47.993378241151134" y="69.0"/>
      <point x="12.003742733262406" y="-39.0"/>
      <point x="-31.650352188343355" y="-170.0" type="curve" smooth="yes"/>
      <point x="-34.31625111485363" y="-178.0"/>
      <point x="-33.31596321229498" y="-181.0"/>
      <point x="-29.31538740717769" y="-187.0" type="curve" smooth="yes"/>
      <point x="-11.979558918336082" y="-213.0"/>
      <point x="37.021592691898505" y="-225.0"/>
      <point x="85.0215926918985" y="-225.0" type="curve" smooth="yes"/>
    </contour>
    <contour>
      <point x="676.2883245666649" y="469.0"/>
      <point x="618.6129248557193" y="560.0"/>
      <point x="551.6129248557193" y="560.0" type="curve" smooth="yes"/>
      <point x="492.61292485571926" y="560.0"/>
      <point x="383.6192587120095" y="494.0"/>
      <point x="308.29206729992734" y="430.0" type="curve" smooth="yes"/>
      <point x="267.62875949644484" y="395.0"/>
      <point x="258.62991110667946" y="383.0"/>
      <point x="236.96948232878344" y="318.0" type="curve"/>
      <point x="346.96314847249323" y="384.0"/>
      <point x="415.29494632551376" y="400.0"/>
      <point x="488.2949463255138" y="400.0" type="curve"/>
      <point x="536.2949463255138" y="400.0"/>
      <point x="550.631062716914" y="371.0"/>
      <point x="574.3018559869213" y="328.0" type="curve"/>
      <point x="607.3018559869213" y="328.0"/>
      <point x="639.6322143271486" y="359.0"/>
      <point x="647.2966737408657" y="382.0" type="curve" smooth="yes"/>
    </contour>
    <contour>
      <point x="303.3352526837243" y="-20.0" type="curve" smooth="yes"/>
      <point x="436.3352526837243" y="-20.0"/>
      <point x="570.3188422378814" y="151.0"/>
      <point x="633.3007043766867" y="340.0" type="curve" smooth="yes"/>
      <point x="647.2966737408657" y="382.0" type="line" smooth="yes"/>
      <point x="661.6258804708584" y="425.0"/>
      <point x="644.9530718829405" y="489.0"/>
      <point x="582.9530718829405" y="489.0" type="curve" smooth="yes"/>
      <point x="533.9530718829405" y="489.0"/>
      <point x="491.62098612736145" y="476.0"/>
      <point x="479.9576783238789" y="441.0" type="curve"/>
      <point x="489.29235520248596" y="427.0"/>
      <point x="490.960845252024" y="408.0"/>
      <point x="475.63192642459" y="362.0" type="curve" smooth="yes"/>
      <point x="468.3007043766867" y="340.0" type="line" smooth="yes"/>
      <point x="424.97984682089475" y="210.0"/>
      <point x="338.65467072672305" y="125.0"/>
      <point x="276.65467072672305" y="125.0" type="curve" smooth="yes"/>
      <point x="249.65467072672305" y="125.0"/>
      <point x="227.65467072672305" y="125.0"/>
      <point x="209.65467072672305" y="125.0" type="curve"/>
      <point x="204.3217212634679" y="121.0"/>
      <point x="202.32200916602656" y="118.0"/>
      <point x="199.6561102395163" y="110.0" type="curve" smooth="yes"/>
      <point x="185.66014087533733" y="68.0"/>
      <point x="227.33525268372432" y="-20.0"/>
    </contour>
    <contour>
      <point x="309.95105656503006" y="510.0"/>
      <point x="272.61292485571926" y="560.0"/>
      <point x="211.61292485571929" y="560.0" type="curve"/>
      <point x="176.6149401736298" y="539.0"/>
      <point x="144.28573344363707" y="496.0"/>
      <point x="131.95595090852706" y="459.0" type="curve"/>
      <point x="128.29033988457542" y="448.0" type="line"/>
      <point x="188.29033988457542" y="448.0"/>
      <point x="236.29091568969272" y="442.0"/>
      <point x="262.6267441785343" y="416.0" type="curve"/>
      <point x="271.6267441785343" y="416.0"/>
      <point x="280.2929310076032" y="421.0"/>
      <point x="282.62559256829974" y="428.0" type="curve" smooth="yes"/>
    </contour>
    <contour>
      <point x="11.683460982587725" y="-175.0"/>
      <point x="49.021592691898505" y="-225.0"/>
      <point x="110.02159269189849" y="-225.0" type="curve"/>
      <point x="145.35281473980177" y="-203.0"/>
      <point x="177.3487841039807" y="-161.0"/>
      <point x="189.67856663909072" y="-124.0" type="curve"/>
      <point x="193.34417766304236" y="-113.0" type="line"/>
      <point x="133.34417766304236" y="-113.0"/>
      <point x="85.34360185792507" y="-107.0"/>
      <point x="59.00777336908345" y="-81.0" type="curve"/>
      <point x="50.00777336908345" y="-81.0"/>
      <point x="41.34158654001453" y="-86.0"/>
      <point x="39.00892497931804" y="-93.0" type="curve" smooth="yes"/>
    </contour>
  </outline>
</glyph>
<glyph name="r.ss02" format="2">
  <advance width="600"/>
  <outline>
    <contour>
      <point x="193.28055119758145" y="550.0" type="curve"/>
      <point x="184.94961705223682" y="525.0" type="line" smooth="yes"/>
      <point x="168.95422349317516" y="477.0"/>
      <point x="166.62501676318246" y="434.0"/>
      <point x="183.96084525202406" y="408.0" type="curve" smooth="yes"/>
      <point x="187.96142105714134" y="402.0"/>
      <point x="190.29494632551376" y="400.0"/>
      <point x="198.29494632551376" y="400.0" type="curve" smooth="yes"/>
      <point x="258.29494632551376" y="400.0"/>
      <point x="285.29494632551376" y="400.0"/>
      <point x="345.29494632551376" y="400.0" type="curve"/>
      <point x="353.6258804708584" y="425.0" type="line"/>
      <point x="367.28861246922355" y="466.0"/>
      <point x="383.2805511975814" y="550.0"/>
      <point x="328.2805511975814" y="550.0" type="curve" smooth="yes"/>
      <point x="268.2805511975814" y="550.0"/>
      <point x="253.28055119758142" y="550.0"/>
    </contour>
    <contour>
      <point x="266.66762634186216" y="-10.0" type="line"/>
      <point x="311.65467072672305" y="125.0"/>
      <point x="356.64171511158395" y="260.0"/>
      <point x="401.62875949644484" y="395.0" type="curve" smooth="yes"/>
      <point x="415.9579662264376" y="438.0"/>
      <point x="387.2805511975814" y="550.0"/>
      <point x="328.2805511975814" y="550.0" type="curve" smooth="yes"/>
      <point x="293.2805511975814" y="550.0" type="line"/>
      <point x="271.28688505387163" y="484.0"/>
      <point x="215.3030075971559" y="316.0"/>
      <point x="193.3093414534461" y="250.0" type="curve" smooth="yes"/>
      <point x="170.64920057810878" y="182.0"/>
      <point x="147.65582233695764" y="113.0"/>
      <point x="124.99568146162031" y="45.0" type="curve" smooth="yes"/>
      <point x="122.32978253511001" y="37.0"/>
      <point x="123.33007043766867" y="34.0"/>
      <point x="127.33064624278597" y="28.0" type="curve" smooth="yes"/>
      <point x="144.66647473162757" y="2.0"/>
      <point x="193.66762634186216" y="-10.0"/>
      <point x="241.66762634186216" y="-10.0" type="curve" smooth="yes"/>
    </contour>
    <contour>
      <point x="575.9452985138571" y="570.0" type="curve" smooth="yes"/>
      <point x="524.9452985138571" y="570.0"/>
      <point x="438.286597151313" y="487.0"/>
      <point x="389.29177939736866" y="433.0" type="curve" smooth="yes"/>
      <point x="354.29552213063107" y="394.0"/>
      <point x="343.29782535110024" y="370.0"/>
      <point x="326.9691944262248" y="321.0" type="curve"/>
      <point x="397.296385838307" y="385.0"/>
      <point x="451.627032081093" y="413.0"/>
      <point x="508.6270320810929" y="413.0" type="curve" smooth="yes"/>
      <point x="563.6270320810929" y="413.0"/>
      <point x="595.6276078862103" y="407.0"/>
      <point x="621.9622847648172" y="393.0" type="curve"/>
      <point x="637.2949463255138" y="400.0"/>
      <point x="648.6267441785343" y="416.0"/>
      <point x="654.9582541289963" y="435.0" type="curve" smooth="yes"/>
      <point x="670.6204103222441" y="482.0"/>
      <point x="636.9452985138571" y="570.0"/>
    </contour>
    <contour>
      <point x="593.3093414534461" y="250.0" type="line"/>
      <point x="611.9706339390181" y="306.0"/>
      <point x="636.6301990092381" y="380.0"/>
      <point x="654.9582541289963" y="435.0" type="curve" smooth="yes"/>
      <point x="669.287460858989" y="478.0"/>
      <point x="610.6186829068922" y="500.0"/>
      <point x="551.6186829068922" y="500.0" type="curve" smooth="yes"/>
      <point x="526.6186829068922" y="500.0" type="line"/>
      <point x="521.2868850538716" y="484.0"/>
      <point x="515.2886124692236" y="466.0"/>
      <point x="509.956814616203" y="450.0" type="curve" smooth="yes"/>
      <point x="497.6270320810929" y="413.0"/>
      <point x="473.9671791083143" y="342.0"/>
      <point x="461.6373965732042" y="305.0" type="curve" smooth="yes"/>
      <point x="458.971497646694" y="297.0"/>
      <point x="459.9717855492526" y="294.0"/>
      <point x="463.9723613543699" y="288.0" type="curve" smooth="yes"/>
      <point x="481.3081898432115" y="262.0"/>
      <point x="520.3093414534461" y="250.0"/>
      <point x="568.3093414534461" y="250.0" type="curve" smooth="yes"/>
    </contour>
  </outline>
</glyph>
<glyph name="v.alt2" format="2">
  <advance width="600"/>
  <outline>
    <contour>
      <point x="637.9510565650301" y="510.0"/>
      <point x="600.6129248557193" y="560.0"/>
      <point x="539.6129248557193" y="560.0" type="curve"/>
      <point x="504.61494017362975" y="539.0"/>
      <point x="472.2857334436371" y="496.0"/>
      <point x="459.95595090852703" y="459.0" type="curve"/>
      <point x="456.2903398845754" y="448.0" type="line"/>
      <point x="516.2903398845754" y="448.0"/>
      <point x="564.2909156896927" y="442.0"/>
      <point x="590.6267441785343" y="416.0" type="curve"/>
      <point x="599.6267441785343" y="416.0"/>
      <point x="608.2929310076032" y="421.0"/>
      <point x="610.6255925682997" y="428.0" type="curve" smooth="yes"/>
    </contour>
    <component base="v" yxScale="0.33323736581378444" xOffset="-40.0"/>
  </outline>
</glyph>
